<?xml version="1.0" encoding="utf-8"?>
<!-- Designed by Vexels.com - 2019 All Rights Reserved - https://vexels.com/terms-and-conditions/  -->
<svg version="1.1" id="Layer_1" xmlns="http://www.w3.org/2000/svg" xmlns:xlink="http://www.w3.org/1999/xlink" x="0px" y="0px"
	 viewBox="0 0 1200 1200" enable-background="new 0 0 1200 1200" xml:space="preserve">
<g>
	<path fill="none" d="M1030.061,430.125c6.161,21.77,3.286,74.758,3.286,74.758c0.41,4.108,17.662,8.215,17.662,8.215
		s-10.679-11.09-0.411-6.161c10.27,4.929,18.484,10.269,18.484,10.269c0-3.286-5.34-9.858-5.34-9.858s9.037,4.518,13.966,11.501
		c4.929,6.983,16.019,16.43,16.019,16.43l-0.411-9.858c0,0,5.751,15.609,21.36,18.895c34.504,5.751,11.091-38.201,3.697-45.594
		C1110.981,491.328,1030.061,430.125,1030.061,430.125z"/>
	<path d="M1130.697,488.864c-13.966-9.037-73.937-57.506-125.693-112.548c-51.755-55.042-101.867-73.115-131.442-93.653
		c-29.575-20.538-112.548-4.929-131.442,8.215c-18.896,13.144-135.55,27.932-141.302,27.932c-5.75,0-34.504-6.572-34.504-6.572
		s73.937-23.824,64.9-85.438c-9.036-61.614-66.543-79.687-90.366-79.687c-23.825,0-33.683,4.929-23.003,10.68
		c10.679,5.751,83.794,6.572,74.758,58.328c-9.036,51.756-38.611,55.042-74.758,46.005c-36.147-9.037-84.616-76.401-128.157-101.868
		c-43.54-25.467-76.401-2.465-76.401-2.465c-27.11-18.895-73.115-4.108-86.259,13.966c-13.144,18.073-62.436,78.866-82.152,95.296
		c-19.717,16.43-79.687-4.929-55.863-50.112c23.825-45.183,70.651-39.433,89.545-42.719c18.896-3.286-24.644-31.218-85.437,0
		c-60.793,31.218-46.005,92.01-23.825,124.871c22.182,32.861,63.258,27.11,63.258,27.11c-22.182,19.716-18.073,42.719,12.322,49.291
		c30.397,6.572,87.902-27.11,87.902-27.11s0,12.323-0.821,23.824c-0.822,11.501,11.501,16.43,11.501,16.43
		c-4.929,16.43,26.289,25.467,26.289,25.467c12.322,17.252,18.894,78.866,18.894,78.866s-7.393,35.325-13.965,54.22
		c-6.572,18.895,8.215,46.826,18.073,82.152c9.858,35.325,27.11,55.863,27.11,55.863s6.572,29.575,5.751,48.47
		c-0.822,18.895,22.18,53.399,13.965,73.936c-8.215,20.538,2.465,34.504,2.465,34.504s-2.465,9.858,2.464,42.719
		c4.929,32.861-8.215,62.435-16.43,71.472c-8.215,9.037-8.215,18.895-9.858,25.467c-1.643,6.572-10.679,1.643-15.608,17.252
		c-4.93,15.609-25.468,27.932-15.61,30.396c9.858,2.464,10.679,11.501,41.897,11.501s27.932-21.359,27.932-21.359
		s6.572-7.394,9.037-11.501c2.464-4.108,3.286,4.929,8.215,5.75c4.929,0.822,10.679-13.144,1.643-23.824
		c-9.037-10.68-3.286-30.396-4.107-47.648c-0.822-17.252,14.786-61.614,26.287-82.152c11.501-20.538,4.929-50.934,1.643-60.792
		c-3.286-9.858,6.572-48.47,11.501-59.149c4.929-10.68,16.43-5.751,16.43-5.751c21.36,19.716,33.683,6.572,33.683,6.572
		l-11.501,84.616c0,0-18.073,20.538-3.287,53.399c14.789,32.861,4.108,53.399,1.644,66.543c-2.465,13.144-16.43,32.039-16.43,40.254
		c0,8.215-3.286,15.609-10.68,18.895c-7.393,3.286-13.144,23.824-18.894,36.968c-5.751,13.144,22.18,6.572,22.18,6.572
		c7.394,11.501,42.719-1.643,48.469-7.394c5.751-5.75,3.286-17.252,1.643-25.467s12.323-7.394,12.323-7.394
		c8.215,10.68,15.608,0.821,7.394-23.003c-12.323-36.147-6.573-82.973,5.75-97.761c12.322-14.787,9.858-30.396,9.858-41.076
		c0-10.68,36.968-118.299,36.968-118.299c46.827,13.966,156.91,13.144,156.91,13.144s4.929,13.966,13.966,19.716
		c9.036,5.75-4.929,13.966,4.107,19.716c9.036,5.751,7.394,27.932,7.394,27.932c18.894-21.359,0-31.218,8.215-36.968
		s0.821-18.895,6.571-23.002c5.751-4.108,12.323-21.36,40.255-42.719c27.932-21.359,34.504-9.858,34.504-9.858
		c4.107,23.003,41.076,105.976,48.469,116.655c7.394,10.68,7.394,49.291,3.286,72.294c-4.107,23.002-20.537,66.543-24.646,75.579
		c-4.107,9.037-29.575,29.575-37.79,32.039c-8.215,2.465-13.965,16.43-27.11,29.575c-13.144,13.144-0.822,13.144-0.822,13.144
		c3.286,7.394,64.901,4.107,72.294-0.822c7.394-4.929,6.572-16.43,18.896-19.716c12.322-3.286,7.393,5.751,13.144,7.394
		c5.75,1.643,8.214-13.144,5.75-20.538c-2.464-7.394,2.464-12.323,2.464-32.039c0-19.717,49.291-139.658,59.972-156.91
		c10.68-17.252-2.464-24.646-5.751-28.753c-3.286-4.108-15.608-40.254-19.715-50.934c-4.108-10.68-8.216-64.9-8.216-64.9
		s9.858,3.286,18.896,9.037c9.036,5.75,50.112,54.22,49.291,75.58c-0.822,21.359,13.144,32.861,30.396,61.614
		c17.251,28.753,29.575,104.333,30.396,135.55c0.822,31.218-7.393,41.076-15.608,46.827c-8.215,5.75-5.75,16.43-5.75,16.43
		s-7.394,21.359-11.501,29.575c-4.108,8.215,14.787,6.572,14.787,6.572c20.537,9.037,48.469-8.215,52.576-15.609
		c4.108-7.394,3.286-21.359,3.286-21.359c6.573,0,9.858,9.858,9.858,9.858s8.215-9.858,4.108-17.252
		c-4.108-7.394-17.253-83.795-21.359-97.761c-4.108-13.966-9.037-108.44-2.464-125.692c6.571-17.252-0.822-32.039-0.822-32.039
		c-13.144-8.215-27.111-39.433-32.039-51.756c-4.93-12.323-9.037-133.086-9.037-133.086c5.751,4.929,15.61,4.108,15.61,4.108
		l-4.108,4.108c8.215,2.465,14.787,0.822,14.787,0.822c-5.75,4.107-4.108,10.68-4.108,10.68c5.751-6.572,10.68-1.643,10.68-1.643
		c-2.465,8.215,4.929,9.037,4.929,9.037c0-10.68,18.896-13.966,18.896-13.966s6.571,13.144,9.857,3.286
		c3.286-9.858,18.073-4.929,39.433-25.467C1161.093,534.869,1144.663,497.901,1130.697,488.864z M446.521,292.812
		c0.591-0.21,1.235,0.034,1.557,0.542c7.42,11.731,15.711,22.785,25.883,31.277c5.026,4.268,10.586,7.757,16.349,10.171
		c5.727,2.337,12.027,3.37,16.994,2.119c2.452-0.632,4.369-1.81,5.349-3.278c0.541-0.769,0.753-1.422,1.077-2.695
		c0.228-1.094,0.216-1.864,0.051-2.414c-0.171-0.546-0.508-1.212-1.305-2.042c-0.777-0.825-1.9-1.679-3.153-2.562
		c-2.532-1.753-5.52-3.437-8.543-5.143c-12.184-6.863-24.376-15.137-33.789-25.82c-0.485-0.549-0.431-1.388,0.118-1.872
		c0.439-0.386,1.066-0.427,1.546-0.151c6.067,3.512,12.036,6.919,18.136,10.027c6.121,3.094,12.279,5.927,18.644,8.829
		c3.165,1.51,6.394,3.012,9.756,4.993c1.687,0.99,3.393,2.211,5.103,3.832c1.676,1.61,3.419,3.874,4.259,6.684
		c0.866,2.803,0.715,5.632,0.246,7.941c-0.418,2.125-1.378,4.833-2.91,6.894c-3.053,4.303-7.678,6.681-11.971,7.628
		c-8.761,1.905-16.808-0.352-23.761-3.526c-7.008-3.246-12.968-7.959-18.177-13.145c-10.321-10.545-17.525-23.297-22.258-36.609
		C445.477,293.809,445.835,293.056,446.521,292.812z M422.186,326.153c0.628-0.008,1.16,0.431,1.3,1.016
		c3.239,13.498,7.52,26.635,14.408,37.955c3.381,5.661,7.518,10.757,12.194,14.902c4.667,4.059,10.296,7.069,15.401,7.488
		c2.527,0.193,4.719-0.304,6.12-1.377c0.761-0.553,1.172-1.103,1.89-2.204c0.568-0.962,0.806-1.695,0.827-2.268
		c0.014-0.572-0.09-1.312-0.577-2.354c-0.471-1.032-1.257-2.202-2.158-3.442c-1.831-2.477-4.116-5.035-6.426-7.624
		c-9.32-10.427-18.19-22.192-23.653-35.34c-0.281-0.676,0.04-1.453,0.716-1.734c0.54-0.224,1.147-0.061,1.511,0.356
		c4.609,5.282,9.16,10.432,13.932,15.342c4.796,4.904,9.71,9.571,14.798,14.371c2.509,2.45,5.081,4.914,7.624,7.873
		c1.276,1.481,2.498,3.187,3.594,5.274c1.066,2.064,1.986,4.77,1.874,7.7c-0.086,2.932-1.141,5.561-2.33,7.596
		c-1.082,1.877-2.864,4.129-4.979,5.586c-4.277,3.088-9.422,3.846-13.79,3.359c-8.908-1.023-15.796-5.756-21.353-11.003
		c-5.588-5.333-9.707-11.718-12.965-18.306c-6.368-13.312-9.072-27.705-9.257-41.833
		C420.876,326.76,421.458,326.163,422.186,326.153z M389.34,369.525c0.084-0.722,0.739-1.239,1.461-1.155
		c0.623,0.073,1.095,0.577,1.157,1.176c1.465,13.803,4.011,27.384,9.377,39.5c2.62,6.051,6.063,11.639,10.164,16.354
		c4.102,4.629,9.294,8.342,14.304,9.418c2.479,0.518,4.718,0.309,6.246-0.574c0.825-0.45,1.305-0.942,2.158-1.941
		c0.687-0.881,1.018-1.576,1.114-2.142c0.087-0.565,0.081-1.312-0.268-2.409c-0.331-1.084-0.962-2.346-1.693-3.692
		c-1.496-2.693-3.432-5.525-5.387-8.391c-7.893-11.545-15.166-24.358-18.883-38.103c-0.191-0.707,0.226-1.435,0.935-1.627
		c0.563-0.152,1.144,0.088,1.451,0.548c3.888,5.833,7.734,11.53,11.831,17.015c4.121,5.483,8.39,10.747,12.814,16.165
		c2.17,2.754,4.402,5.53,6.541,8.793c1.074,1.634,2.066,3.484,2.881,5.695c0.791,2.185,1.353,4.987,0.863,7.878
		c-0.463,2.896-1.85,5.367-3.291,7.231c-1.317,1.721-3.376,3.724-5.661,4.895c-4.641,2.509-9.842,2.595-14.11,1.547
		c-8.7-2.167-14.918-7.751-19.75-13.672c-4.85-6.011-8.11-12.875-10.487-19.829C388.517,398.18,387.697,383.557,389.34,369.525z
		 M509.955,670.184c-13.642,8.718-28.916,14.492-44.868,17.774c-15.952,3.164-32.773,3.316-48.966-0.39
		c-16.121-3.829-31.552-11.179-44.501-21.522c-13.129-10.087-24.304-22.554-33.012-36.83c-4.176-7.213-7.853-14.746-10.6-22.625
		c-2.703-7.886-4.597-16.011-5.851-24.187c-1.121-8.189-1.73-16.413-1.62-24.594c0.063-8.182,0.733-16.288,1.633-24.318
		c1.938-16.059,5.329-31.699,8.559-47.153c1.529-7.738,3.194-15.419,4.057-23.124c0.962-7.675,1.251-15.464-1.059-22.706
		l-0.022-0.069c-0.22-0.689,0.16-1.426,0.849-1.646c0.62-0.198,1.279,0.091,1.565,0.652c1.904,3.723,3.004,7.792,3.668,11.872
		c0.526,4.078,0.797,8.192,0.734,12.25c-0.156,8.128-0.896,16.148-1.905,24.06c-1.917,15.836-4.424,31.406-5.505,46.941
		c-1.309,15.509-1.103,30.969,1.125,45.994c1.21,7.498,3.117,14.816,5.497,21.953c2.418,7.132,5.678,13.926,9.379,20.47
		c2.038,3.162,3.905,6.437,6.242,9.409c1.143,1.499,2.166,3.089,3.405,4.519l3.661,4.335c1.164,1.49,2.527,2.828,3.827,4.216
		c1.325,1.363,2.585,2.802,3.962,4.108c2.793,2.565,5.496,5.253,8.495,7.561c2.869,2.49,6.015,4.584,9.081,6.801
		c3.212,1.974,6.373,4.058,9.736,5.767c6.651,3.558,13.679,6.431,20.975,8.468c29.283,8.14,61.947,3.172,90.095-10.223l0.098-0.047
		c0.652-0.31,1.432-0.033,1.743,0.619C510.718,669.123,510.503,669.835,509.955,670.184z M518.985,594.765
		c-12.151,13.439-27.804,23.7-45.421,29.392c-17.556,5.963-37.318,5.612-55.172-0.084c-8.979-3.02-17.591-7.683-24.808-14.054
		c-7.325-6.245-13.061-14.187-17.154-22.666c-4.081-8.513-6.65-17.564-7.857-26.679c-1.189-9.125-1.279-18.28,0.334-27.317
		c0.128-0.716,0.812-1.192,1.527-1.065c0.586,0.104,1.011,0.581,1.077,1.143l0.01,0.09c2.009,17.382,6.249,34.447,14.194,49.054
		c4.028,7.252,8.999,13.854,15.076,19.246c6.027,5.465,13.276,9.455,21.028,12.235c1.932,0.723,3.994,1.172,5.987,1.779
		c2.022,0.502,3.989,1.317,6.071,1.52l6.182,0.997c1.028,0.216,2.069,0.274,3.115,0.299l3.13,0.141
		c4.179,0.456,8.362-0.062,12.572-0.198c4.158-0.655,8.365-1.145,12.467-2.281c16.498-3.994,32.287-12.354,45.755-23.367
		l0.092-0.075c0.559-0.457,1.382-0.374,1.839,0.184C519.442,593.568,519.412,594.293,518.985,594.765z M609.894,378.349
		l-0.074,0.006c-6.731,0.542-13.513,1.87-20.098,3.5c-6.598,1.671-13.057,3.824-19.228,6.551
		c-12.322,5.438-23.54,13.307-31.659,23.617c-8.128,10.298-12.918,22.87-14.362,35.94l-0.476,4.915
		c-0.093,1.646-0.073,3.307-0.118,4.957c-0.18,3.297,0.194,6.627,0.325,9.938c0.22,3.315,0.745,6.628,1.096,9.94
		c0.394,3.544,0.936,7.074,1.198,10.646c1.004,14.23,0.139,29.124-5.4,43.008c-2.755,6.893-6.576,13.464-11.509,19.167
		c-4.918,5.71-10.92,10.508-17.549,14.075c-13.281,7.212-28.938,9.194-43.435,6.268c-7.245-1.503-14.29-4.185-20.406-8.393
		c-6.062-4.204-11.301-9.83-14.162-16.511c-0.288-0.669,0.023-1.445,0.693-1.731c0.557-0.239,1.188-0.063,1.55,0.389l0.023,0.03
		c8.406,10.547,21.072,15.786,33.773,17.287c12.749,1.512,25.868-0.763,36.984-6.627c11.188-5.849,19.748-15.911,24.476-27.77
		c4.776-11.899,6.025-25.269,5.282-38.521c-0.183-3.322-0.641-6.642-0.941-9.971c-0.325-3.564-0.813-7.101-0.99-10.682
		c-0.059-3.595-0.33-7.168-0.045-10.779c0.1-1.801,0.138-3.601,0.293-5.399l0.678-5.388c1.143-7.138,2.805-14.291,5.817-20.97
		c2.919-6.692,6.833-12.951,11.56-18.476c9.444-11.15,22.088-18.902,35.309-23.833c13.29-4.924,27.181-7.631,41.269-7.793
		c0.724-0.008,1.316,0.571,1.325,1.293C611.101,377.721,610.572,378.293,609.894,378.349z M781.171,606.195
		c-13.771,2.536-28.529,2.241-42.296-2.465c-6.892-2.244-13.429-5.615-19.435-9.724c-5.994-4.143-11.341-9.164-16.06-14.659
		c-9.34-11.116-15.916-24.24-19.828-37.946c-3.929-13.686-5.36-28.128-3.396-42.117c0.101-0.718,0.766-1.219,1.483-1.118
		c0.638,0.089,1.105,0.624,1.13,1.246l0.001,0.028c0.559,13.674,3.216,27.078,7.715,39.743c2.316,6.303,4.937,12.479,8.224,18.274
		c3.193,5.839,6.922,11.355,11.197,16.376c8.439,10.133,19.213,18.163,31.454,23.129c12.251,5.078,25.827,6.704,39.542,6.628
		l0.022,0c0.725-0.004,1.317,0.581,1.321,1.306C782.25,605.543,781.786,606.083,781.171,606.195z M823.137,581.758
		c-8.188,1.814-16.65,2.57-25.197,2.395c-8.54-0.241-17.131-1.737-25.4-4.413c-8.315-2.582-16.166-6.651-23.43-11.516
		c-7.182-5.005-13.665-10.977-19.306-17.603c-11.17-13.382-19.002-29.15-23.496-45.603c-4.529-16.415-5.996-33.728-3.212-50.336
		c0.12-0.717,0.8-1.201,1.516-1.081c0.614,0.103,1.056,0.614,1.097,1.208l0.001,0.029c1.111,16.341,4.514,32.193,10.024,47.165
		c5.576,14.905,13.126,29.015,23.248,40.864c4.993,5.967,10.625,11.359,16.86,15.936c6.141,4.727,12.991,8.433,20.15,11.535
		c3.583,1.566,7.325,2.739,11.093,3.902l5.736,1.531l5.86,1.135c7.872,1.426,15.953,1.933,24.187,2.246l0.032,0.001
		c0.726,0.028,1.294,0.64,1.266,1.367C824.144,581.133,823.707,581.631,823.137,581.758z M945.756,447.819
		c-1.532,9.273-12.376,13.936-4.02,24.127c6.199,7.553-17.897,10.955-21.403,11.591c-1.956,0.355-9.776,0.485-11.095,2.3
		c-1.541,2.123,2.634,6.036,3.689,7.712c2.759,4.386,4.456,9.039,4.739,14.253c0.164,3.028,0.238,8.304-1.89,10.82
		c-2.654,3.14-6.62,1.516-10.045,2.894c-6.61,2.659-5.753,10.538-10.758,14.337c-7.073,5.369-15.401-2.543-22.395,5.529
		c-1.555,1.795-2.599,5.076-4.91,5.758c-3.571,1.054-9.053-3.571-11.405-5.549c-4.859-4.084-7.091-11.93-11.977-15.426
		c-5.012-3.586-6.29,2.187-8.944,6.829c-3.264,5.708-8.566,11.738-15.465,13.055c-7.975,1.522-8.412-6.834-15.106-8.878
		c-6.636-2.027-12.703,2.976-16.98-3.888c-4.364-7.004-5.226-11.682-14.272-13.42c-5.09-0.977-7.194,0.32-7.867-5.907
		c-0.329-3.043,0.527-6.287,1.302-9.204c1.449-5.455,6.1-10.791,7.038-16.069c1.323-7.448-6.891-5.179-12.123-5.2
		c-5.907-0.024-12.362-1.242-16.593-5.938c-5.817-6.455,2.95-14.712-2.286-22.531c-1.83-2.732-5.343-3.91-5.663-7.578
		c-0.263-3.03,2.009-5.606,3.562-7.919c2.192-3.262,4.902-6.105,4.841-10.298c-0.042-2.91-2.382-4.898-2.882-7.5
		c-1.44-7.504,7.884-10.48,13.998-11.882c4.891-1.121,17.378,1.367,17.744-5.007c0.169-2.936-4.188-6.655-5.4-8.981
		c-1.823-3.496-2.777-7.32-2.865-11.262c-0.065-2.898-0.091-7.99,1.954-10.216c2.831-3.083,6.77-1.466,10.404-3.207
		c6.821-3.267,5.155-10.613,9.744-14.635c5.239-4.591,13.812,1.447,19.778-1.673c7.41-3.876,5.065-12.797,14.969-6.9
		c4.312,2.567,8.089,6.223,11.15,10.167c1.825,2.351,3.534,7.68,6.154,8.963c4.886,2.393,9.198-10.075,12.373-13.236
		c5.308-5.281,11.872-8.805,18.029-4.106c2.496,1.904,3.841,4.288,7.078,5.376c3.902,1.312,7.328-0.292,11.216-0.229
		c9.227,0.15,8.196,8.467,12.693,14.089c4.538,5.675,13.134,1.155,15.75,7.204c2.931,6.778-2.446,17.585-5.06,23.487
		c-3.26,7.367-3.438,8.696,4.477,8.827c6.405,0.106,13.571,0.784,19.144,4.298c7.745,4.883,3.878,8.241,2.833,15.385
		C937.817,436.335,946.925,440.748,945.756,447.819z M1114.677,544.316c-15.608-3.286-21.36-18.895-21.36-18.895l0.411,9.858
		c0,0-11.09-9.448-16.019-16.43c-4.929-6.983-13.966-11.501-13.966-11.501s5.34,6.572,5.34,9.858c0,0-8.214-5.34-18.484-10.269
		c-10.269-4.929,0.411,6.161,0.411,6.161s-17.251-4.108-17.662-8.215c0,0,2.874-52.988-3.286-74.758c0,0,80.92,61.203,88.313,68.597
		C1125.768,506.116,1149.181,550.067,1114.677,544.316z"/>
	<path d="M895.609,442.802c-2.053,0.452-3.358,2.099-5.715,2.576c-2.491,0.503-5.539-0.046-8.091-0.008
		c-6.897,0.1-13.794,0.201-20.691,0.301c4.164-2.961,24.91-14.962,21.55-21.318c-3.25-6.15-24.785,5.972-29.028,7.907
		c2.758-4.94,5.515-9.88,8.273-14.821c1.897-3.401,3.642-8.768,6.286-11.562c2.232-2.359,5.969-2.345,7.278-5.645
		c1.023-2.579-0.292-6.098-2.452-7.687c-8.704-6.396-9.54,5.694-11.031,10.315c-2.736,8.483-9.415,17.116-13.749,24.883
		c-0.509-4.844-0.827-28.656-8.292-27.432c-6.724,1.103-6.538,25.296-6.985,30.39c-2.895-4.849-5.79-9.699-8.684-14.548
		c-2.089-3.5-6.073-7.925-7.428-11.785c-1.286-3.668,0.93-7.283-2.073-10.376c-2.186-2.253-6.751-2.949-9.257-0.682
		c-5.286,4.783,1.02,10.248,4.266,13.546c6.47,6.576,10.628,16.309,15.345,24.212c-4.255-1.854-24.146-12.642-26.519-5.551
		c-2.186,6.534,18.332,17.727,22.615,20.733c-9.792,0.143-20.055,1.304-29.799,0.808c-5.483-0.279-14.966-7.952-16.831,1.72
		c-0.702,3.637,1.867,7.651,5.621,7.954c2.796,0.226,5.972-2.425,8.807-2.962c9.051-1.715,19.734-0.424,28.929-0.558
		c-3.736,2.755-22.189,13.821-18.8,19.671c3.509,6.058,23.926-5.892,28.282-7.866c-4.749,8.509-8.808,18.319-14.365,26.286
		c-2.937,4.212-13.323,7.459-6.568,14.232c2.633,2.641,7.268,2.613,9.688-0.21c2.152-2.51,1.146-6.621,2.199-9.749
		c3.064-9.094,10.117-18.294,14.79-26.667c0.453,4.452,0.812,28.371,7.566,28.05c6.88-0.327,6.957-22.42,7.471-27.218
		c4.753,7.962,12.697,17.138,15.598,25.915c1.147,3.469-1.023,6.816,2.092,9.647c2.706,2.458,7.412,1.678,9.558-1.081
		c5.662-7.282-5.201-10.446-8.15-15.383c-4.773-7.99-9.299-16.168-14.078-24.173c4.941,2.271,23.994,13.674,28.869,8.708
		c5.141-5.236-15.952-18.281-19.431-20.811c7.998-0.117,16.025-0.499,24.01-0.572c3.149-0.029,4.838,0.177,7.774,1.112
		c3.26,1.039,4.087,3.793,7.988,1.541C910.858,449.787,902.761,441.227,895.609,442.802z"/>
</g>
</svg>
