<?xml version="1.0" encoding="utf-8"?>
<!-- Designed by Vexels.com - 2019 All Rights Reserved - https://vexels.com/terms-and-conditions/  -->
<svg version="1.1" id="Layer_1" xmlns="http://www.w3.org/2000/svg" xmlns:xlink="http://www.w3.org/1999/xlink" x="0px" y="0px"
	 viewBox="0 0 1200 1200" enable-background="new 0 0 1200 1200" xml:space="preserve">
<g>
	<path d="M607.596,533.746c-1.51-3.891-6.474-6.356-10.811-5.408c-1.118,0.247-1.982,0.767-2.82,1.271
		c-0.777,0.47-1.512,0.911-2.418,1.095c-1.318,0.263-2.93,0.163-4.484,0.068c-0.94-0.058-1.875-0.108-2.72-0.102l-14.45,0.21
		c9.716-6.374,19.288-13.473,16.45-18.842c-2.691-5.098-13.279-0.872-24.623,4.776l5.5-9.858c0.601-1.079,1.189-2.368,1.798-3.704
		c1.145-2.52,2.329-5.125,3.791-6.671c0.672-0.709,1.599-1.16,2.578-1.641c1.636-0.798,3.489-1.701,4.395-3.983
		c1.226-3.087-0.412-6.968-2.712-8.658c-2.421-1.777-4.568-2.337-6.408-1.664c-3.253,1.197-4.324,5.731-5.182,9.372
		c-0.221,0.932-0.42,1.785-0.638,2.46c-1.664,5.161-5.004,10.449-8.233,15.56c-0.727,1.15-1.433,2.266-2.111,3.368
		c-0.667-9.501-1.864-18.404-5.463-21.268c-1.011-0.803-2.2-1.118-3.423-0.919c-5.637,0.924-6.789,13.1-7.33,24.81l-5.721-9.588
		c-0.717-1.2-1.63-2.465-2.596-3.804c-1.667-2.31-3.392-4.697-4.13-6.8c-0.394-1.124-0.352-2.295-0.31-3.536
		c0.068-2.061,0.147-4.397-1.901-6.508c-2.41-2.489-7.474-3.326-10.388-0.69c-1.496,1.352-2.276,2.898-2.316,4.594
		c-0.087,3.563,3.124,6.763,5.471,9.102l0.711,0.714c4.166,4.235,7.306,10.024,10.341,15.621c0.491,0.906,0.979,1.806,1.468,2.694
		c-8.078-3.804-15.883-6.857-19.966-5.119c-1.197,0.504-2.043,1.41-2.447,2.615c-1.817,5.434,7.645,12.003,17.692,18.296
		c-2.024,0.081-4.054,0.189-6.046,0.294c-5.61,0.297-11.415,0.599-16.915,0.326c-1.258-0.066-2.909-0.667-4.657-1.302
		c-3.253-1.187-6.616-2.418-9.257-0.914c-1.51,0.853-2.507,2.499-2.969,4.886c-0.402,2.09,0.155,4.387,1.489,6.143
		c1.242,1.633,2.982,2.62,4.899,2.772c1.84,0.184,3.654-0.709,5.395-1.544c1.105-0.528,2.15-1.026,3.072-1.202
		c5.542-1.05,11.846-0.84,17.939-0.638c1.415,0.047,2.791,0.092,4.14,0.123c-8.648,5.902-17.065,12.465-14.166,17.466
		c3.014,5.193,13.825,0.396,24.004-4.802c-0.861,1.657-1.704,3.337-2.531,4.983c-2.638,5.256-5.364,10.69-8.601,15.332
		c-0.656,0.943-1.89,1.901-3.198,2.914c-2.326,1.809-4.965,3.857-5.146,6.705c-0.11,1.738,0.69,3.442,2.447,5.203
		c1.394,1.397,3.339,2.184,5.374,2.184c0.097,0,0.197-0.003,0.297-0.005c2.05-0.079,3.954-0.971,5.222-2.449
		c1.489-1.738,1.646-4.04,1.788-6.075c0.084-1.221,0.163-2.373,0.488-3.342c1.864-5.526,5.411-11.163,8.842-16.613
		c0.845-1.344,1.667-2.649,2.452-3.935c0.824,12.179,2.539,23.077,8.076,22.733c5.868-0.278,7.196-11.426,7.879-22.224
		c0.903,1.355,1.864,2.736,2.854,4.161c3.657,5.266,7.438,10.714,9.168,15.944c0.331,1.003,0.289,2.048,0.244,3.158
		c-0.079,2.003-0.168,4.274,2.056,6.296c1.381,1.258,3.266,1.84,5.314,1.68c2.171-0.189,4.208-1.252,5.448-2.846
		c4.366-5.616-0.26-9.315-3.639-12.014c-1.491-1.192-3.03-2.423-3.77-3.662c-2.192-3.67-4.329-7.385-6.464-11.097
		c-1.378-2.397-2.757-4.794-4.151-7.18c9.667,4.993,20.063,9.714,24.035,5.673c0.843-0.859,1.223-1.956,1.103-3.169
		c-0.446-4.453-7.64-10.115-15.731-15.673c2.016-0.05,4.035-0.11,6.054-0.171c3.951-0.118,7.902-0.236,11.843-0.273
		c2.883-0.042,4.261,0.171,6.737,0.961c0.79,0.252,1.426,0.656,2.04,1.05c1.517,0.971,3.237,2.077,6.393,0.252
		C607.441,539.753,608.772,536.773,607.596,533.746z"/>
	<path d="M1147.866,488.4c-5.541-11.373-21.579-32.66-26.246-48.115c-4.665-15.455-20.121-38.201-20.121-38.201
		s-6.124-12.831-6.706-31.494c0,0,4.082-7.582-3.5-15.747c0,0,21.288-6.124,23.912-13.414s8.165-13.706-2.041-9.623
		c-10.206,4.082-38.201,11.081-44.034,7.873c0,0-15.163-47.824-58.321-76.985s-74.653-17.497-76.403-12.831
		c-1.748,4.666,31.495,2.333,43.158,16.913c0,0-51.323-6.999-66.487,4.082c-15.163,11.082,32.661,1.75,55.407,12.831
		c22.745,11.081,50.74,29.161,64.737,62.404c0,0-30.328-1.749-44.908,9.332c-14.58,11.081-49.573,28.578-68.237,28.578
		s-48.99,18.08-67.07,15.164c-6.999-1.167-12.831,3.499-12.831,3.499l3.5,4.083c0,0-33.243-2.333-40.243,0
		c-6.998,2.333-16.912-4.666-16.912-4.666l-0.583,5.249c0,0-73.777-32.369-147.263-14.872
		c-73.485,17.497-147.846-6.124-182.839-6.999c-34.993-0.875-125.1-12.248-188.088,55.989
		c-33.535,38.201-83.692,48.115-101.188,48.115c-17.497,0-39.659,3.5-51.906,8.165l11.664,4.083c0,0-20.413,10.498-32.661,9.331
		c0,0,11.664,8.165,24.495,6.416l-17.497,8.165c0,0,18.08,0.583,34.993-4.082s24.495-1.166,37.909-5.249l-3.5,6.999
		c0,0,11.082-6.416,22.746-6.416s16.33-0.583,26.828-12.247l13.122,37.326c0,0-5.249,95.356-31.494,123.351
		c-26.245,27.995-46.366,48.991-62.113,55.115c-15.747,6.124-12.247,31.494-16.621,47.24c-4.374,15.747-27.12,81.359-38.493,92.732
		c0,0-27.994,17.497-6.999,20.996c0,0,2.625,13.122-12.248,16.622c-14.872,3.499-15.747,10.498-7.873,24.495
		c7.873,13.997,8.748,30.619,13.998,26.245c5.249-4.374,20.996-20.996,22.745-34.993c0,0,9.623-25.37,17.497-27.995
		s6.124-25.37,12.247-38.492c6.124-13.122,27.12-72.611,58.613-92.732c31.494-20.121,66.487-58.613,93.607-70.861
		c27.12-12.248,62.113-47.241,62.113-47.241s8.748,23.62-2.625,39.367c-11.372,15.747-16.622,56.864-28.869,69.112
		c-12.248,12.247-9.623,19.246,6.999,48.115c16.622,28.869,43.742,97.106,44.616,109.354c0.876,12.248,4.374,21.871,13.998,11.373
		c0,0,14.872,4.374,14.872,13.997s-4.374,13.997,6.124,15.747c10.498,1.75,39.368,5.249,38.493-0.875
		c-0.875-6.124-8.748-19.246-13.123-24.495c-4.374-5.249-2.624-14.872-17.497-18.372c0,0-38.492-53.364-43.741-98.855
		c-5.249-45.491,24.495-94.482,44.616-134.724c0,0,17.497-1.75,27.995,2.625c10.498,4.374,108.479,17.497,148.721,6.124
		c40.243-11.373,71.736-10.498,71.736-10.498s-1.75,55.99,6.124,74.361c0,0-6.124,41.117,2.625,62.988c0,0-1.75,61.238-7.874,76.985
		c-6.124,15.747-7.873,31.494-1.749,30.619c6.124-0.875,14.872,15.747,6.998,26.245s13.123,20.121,13.123,20.121
		s41.991,2.624,47.24-3.5c5.249-6.124-14.873-23.62-17.497-28.869c-2.625-5.249-17.497-31.494-17.497-31.494s0-25.37,0-37.617
		c0-12.248,3.5-41.117,13.123-57.739c9.623-16.622-4.375-42.866,0-65.612c4.374-22.746,8.748-54.239,15.747-56.864
		c6.999-2.624,37.617-12.247,46.366-5.249c8.748,6.999,55.115,69.111,62.988,78.734c7.873,9.623,62.112,80.484,69.111,93.606
		c6.999,13.123,18.372,42.867,24.496,51.615c6.124,8.748,9.623,4.374,13.997,5.249c4.374,0.875,12.247,13.997,11.373,24.495
		c0,0,14.871,12.248,22.745,12.248s29.744-4.374,30.619-9.623c0.874-5.249-14.873-25.37-27.12-29.744
		c-12.247-4.375-16.621-13.122-19.246-21.871c-2.624-8.748-44.616-43.741-48.115-62.988c-3.5-19.246-15.748-41.992-46.366-90.107
		c-30.619-48.116-13.997-50.74-20.121-76.985c0,0,15.747-25.37,13.997-34.118c-1.75-8.748,12.247-40.242,26.244-52.49
		c13.997-12.247,62.987-54.239,72.611-55.114c9.623-0.875,51.616-15.747,58.613-16.622c6.999-0.875,47.241,16.622,51.616,24.495
		c0,0-3.791,11.081-10.79,12.539c0,0,2.434,3.191,5.727,2.667c-0.855,0.28-3.027,2.016-5.727,11.913
		c-3.498,12.831-9.915,13.122-9.915,13.122s5.832,4.666,20.413-9.623c0,0-0.293,3.5,3.791,4.957c0,0-3.208-7.873,0.874-12.831
		c4.082-4.957,12.539-9.04,12.539-9.04s25.37-0.583,27.995,1.166c2.624,1.75,13.997,11.081,27.12,2.333
		c0,0,12.247-0.292,15.455-8.748c0,0,11.372,0.875,6.706-14.872C1146.408,503.272,1153.407,499.773,1147.866,488.4z
		 M347.617,468.915l-0.034,0.031c-7.008,6.334-11.863,14.665-15.14,23.468c-3.167,8.868-5.045,18.239-5.387,27.69
		c-0.312,9.437,0.501,18.938,2.875,28.073c2.268,9.152,6.17,17.912,11.766,25.614c0.44,0.6,0.31,1.443-0.289,1.883
		c-0.552,0.405-1.314,0.323-1.774-0.159c-6.887-7.268-11.557-16.451-14.479-26c-2.816-9.607-3.951-19.687-3.372-29.652
		c0.585-9.945,2.451-19.906,6.383-29.135c3.828-9.198,9.6-17.9,17.747-23.887c0.599-0.44,1.441-0.311,1.88,0.287
		C348.205,467.685,348.12,468.458,347.617,468.915z M390.801,460.296l-0.031,0.03c-8.095,8.079-13.57,18.105-17.28,28.671
		c-3.656,10.606-5.641,21.78-6.118,33.003c-0.444,11.221,0.501,22.515,3.104,33.448c2.6,10.934,6.865,21.488,13.19,31.125
		c0.413,0.622,0.245,1.461-0.377,1.875c-0.536,0.356-1.239,0.274-1.687-0.152c-8.66-8.333-14.686-19.32-18.316-30.836
		c-3.629-11.567-5.022-23.779-4.395-35.85c0.634-12.06,3.143-24.094,8.01-35.214c4.819-11.044,12.1-21.465,22.2-28.177
		c0.62-0.412,1.457-0.243,1.869,0.377C391.332,459.14,391.246,459.851,390.801,460.296z M452.906,631.896
		c-0.354,0.572-1.068,0.786-1.668,0.533c-8.864-3.72-16.746-9.793-23.243-17.001c-6.473-7.264-11.63-15.646-15.542-24.509
		c-7.916-17.76-11.068-37.216-11.065-56.446c0.224-19.231,3.63-38.642,11.827-56.312c4.084-8.801,9.483-17.114,16.406-24.057
		c6.928-6.876,15.527-12.315,24.944-14.588c0.723-0.175,1.452,0.27,1.626,0.994c0.157,0.65-0.186,1.303-0.781,1.556l-0.021,0.009
		c-8.416,3.591-15.6,9.257-21.284,16.15c-5.753,6.849-10.096,14.824-13.473,23.161c-3.289,8.386-5.759,17.135-7.254,26.075
		c-1.592,8.919-2.39,17.997-2.405,27.073c-0.124,9.077,0.591,18.161,2.031,27.11c1.368,8.968,3.733,17.751,6.887,26.209
		c6.381,16.801,16.857,32.443,32.581,42.188C453.104,630.432,453.299,631.263,452.906,631.896z M643.239,534.268
		c-1.41,8.536-11.394,12.829-3.7,22.212c5.707,6.954-16.477,10.085-19.705,10.671c-1.801,0.327-9,0.447-10.213,2.117
		c-1.419,1.954,2.425,5.557,3.395,7.1c2.54,4.038,4.103,8.322,4.363,13.121c0.152,2.787,0.22,7.644-1.739,9.961
		c-2.444,2.891-6.094,1.396-9.248,2.665c-6.086,2.448-5.296,9.702-9.904,13.199c-6.512,4.943-14.179-2.341-20.617,5.091
		c-1.431,1.652-2.393,4.673-4.521,5.301c-3.288,0.97-8.334-3.288-10.499-5.109c-4.473-3.76-6.528-10.983-11.026-14.202
		c-4.614-3.301-5.79,2.014-8.233,6.287c-3.005,5.255-7.886,10.806-14.237,12.018c-7.342,1.402-7.745-6.291-13.907-8.173
		c-6.108-1.866-11.695,2.74-15.633-3.58c-4.017-6.448-4.81-10.755-13.139-12.355c-4.685-0.9-6.622,0.295-7.242-5.438
		c-0.303-2.801,0.484-5.788,1.198-8.473c1.334-5.023,5.616-9.934,6.479-14.794c1.218-6.857-6.344-4.768-11.16-4.787
		c-5.439-0.022-11.38-1.143-15.276-5.466c-5.355-5.943,2.715-13.544-2.105-20.743c-1.684-2.515-4.919-3.599-5.213-6.977
		c-0.243-2.789,1.849-5.161,3.279-7.29c2.018-3.003,4.514-5.62,4.457-9.481c-0.039-2.679-2.193-4.51-2.654-6.905
		c-1.326-6.908,7.258-9.648,12.887-10.938c4.503-1.032,15.999,1.258,16.336-4.61c0.155-2.703-3.855-6.127-4.972-8.268
		c-1.678-3.219-2.556-6.739-2.638-10.368c-0.06-2.668-0.083-7.356,1.798-9.405c2.606-2.838,6.233-1.349,9.579-2.952
		c6.28-3.008,4.746-9.77,8.971-13.473c4.823-4.226,12.716,1.333,18.207-1.54c6.821-3.568,4.663-11.781,13.781-6.353
		c3.969,2.363,7.447,5.729,10.264,9.36c1.68,2.165,3.253,7.07,5.665,8.252c4.498,2.203,8.468-9.275,11.392-12.185
		c4.886-4.862,10.929-8.106,16.597-3.78c2.297,1.753,3.536,3.948,6.517,4.95c3.591,1.208,6.746-0.269,10.325-0.211
		c8.494,0.138,7.545,7.795,11.685,12.971c4.178,5.225,12.092,1.064,14.5,6.632c2.699,6.239-2.252,16.189-4.657,21.622
		c-3.002,6.782-3.166,8.006,4.12,8.126c5.896,0.097,12.493,0.722,17.624,3.957c7.13,4.496,3.57,7.587,2.608,14.163
		C635.93,523.696,644.315,527.758,643.239,534.268z M685.221,579.694c-3.598,8.873-8.379,17.267-14.248,24.783
		c-5.953,7.438-12.805,14.134-20.56,19.487c-0.612,0.423-1.451,0.269-1.874-0.343c-0.388-0.562-0.287-1.319,0.206-1.765
		c13.596-12.352,23.614-27.853,29.609-44.758c3.009-8.456,4.957-17.272,6.059-26.184c1.177-8.911,1.333-17.944,0.863-26.935
		c-1.055-17.973-5.152-35.875-12.487-52.333c-3.728-8.185-8.265-16.029-13.977-22.921c-5.58-7.012-12.74-12.678-21.065-16.007
		l-0.058-0.023c-0.69-0.276-1.025-1.058-0.75-1.748c0.253-0.632,0.932-0.967,1.575-0.806c9.394,2.347,17.664,8.109,24.293,14.98
		c6.661,6.932,12.041,14.97,16.34,23.477c8.63,17.038,13.288,35.878,14.525,54.874C694.836,542.458,692.399,561.893,685.221,579.694
		z M735.457,570.729c-6.183,15.95-17.175,30.036-31.107,39.359c-0.62,0.414-1.457,0.248-1.871-0.371
		c-0.371-0.555-0.268-1.294,0.202-1.738c11.827-11.183,20.583-24.849,25.533-39.871c4.958-15.024,6.298-31.101,5.133-46.941
		c-1.214-15.859-5.021-31.605-11.312-46.273c-3.211-7.294-7.011-14.357-11.766-20.708c-2.299-3.252-5.02-6.114-7.843-8.877
		c-2.928-2.631-6.117-4.953-9.653-6.727l-0.063-0.032c-0.664-0.333-0.932-1.141-0.599-1.805c0.303-0.603,0.997-0.879,1.619-0.676
		c4.092,1.335,7.933,3.387,11.423,5.9c3.417,2.577,6.614,5.475,9.421,8.675c5.668,6.375,10.335,13.556,14.114,21.134
		c7.605,15.152,12.022,31.791,13.448,48.692C743.513,537.351,741.699,554.754,735.457,570.729z M784.186,531.242
		c-0.683,5.073-1.712,10.121-3.409,14.957c-3.206,9.724-8.811,18.628-16.068,25.551c-0.54,0.515-1.395,0.495-1.911-0.045
		c-0.444-0.466-0.49-1.166-0.148-1.681l0.014-0.021c5.352-8.042,9.414-16.633,11.671-25.729c2.306-9.057,3.075-18.476,2.379-27.81
		c-0.608-9.335-2.611-18.623-5.924-27.383c-1.699-4.357-3.708-8.606-6.241-12.489c-2.539-3.841-5.597-7.418-9.549-9.559
		l-0.082-0.044c-0.654-0.354-0.897-1.172-0.543-1.826c0.304-0.561,0.95-0.819,1.54-0.658c5.26,1.44,9.359,5.118,12.764,8.954
		c3.33,3.962,6.049,8.36,8.233,12.981c4.41,9.238,6.833,19.303,7.605,29.483C784.847,521.021,784.75,526.153,784.186,531.242z
		 M990.408,448.425c-0.299,0.75-1.15,1.116-1.899,0.817c-0.352-0.14-0.62-0.401-0.773-0.717l-0.014-0.031
		c-2.896-5.959-4.195-11.062-7.352-14.52c-3.112-3.44-8.535-5.372-14.387-6.642c-5.874-1.286-12.123-1.87-18.338-2.528
		c-6.23-0.663-12.487-1.542-18.65-2.936c-0.723-0.164-1.177-0.883-1.015-1.608c0.161-0.714,0.877-1.163,1.591-1.018
		c6.003,1.224,12.146,1.69,18.325,1.823c6.189,0.207,12.396-0.077,18.871,0.182c3.237,0.165,6.571,0.513,9.958,1.507
		c3.371,0.943,6.832,2.805,9.554,5.582c2.722,2.782,4.502,6.348,5.108,9.863C991.979,441.729,991.693,445.201,990.408,448.425z
		 M1031.687,430.351c-0.135,0.75-0.852,1.248-1.603,1.113c-0.526-0.095-0.931-0.478-1.075-0.959l-0.007-0.023
		c-1.792-5.951-3.522-11.477-7.166-14.882c-3.517-3.547-9.22-4.896-15.106-5.658c-5.932-0.717-12.17-0.93-18.425-1.505
		c-6.256-0.532-12.587-1.492-18.696-3.209c-0.717-0.201-1.134-0.946-0.933-1.663c0.18-0.641,0.794-1.043,1.433-0.977l0.014,0.002
		c6.124,0.62,12.232,0.716,18.408,0.691c6.176,0.001,12.406-0.202,18.864,0.339c3.229,0.264,6.533,0.752,9.844,1.813
		c3.284,1.023,6.674,2.77,9.296,5.456c2.665,2.654,4.271,6.131,4.991,9.49C1032.259,423.766,1032.268,427.126,1031.687,430.351z
		 M1072.65,415.02c-0.087,0.748-0.764,1.283-1.512,1.196c-0.584-0.068-1.038-0.497-1.168-1.038l-0.004-0.02
		c-1.428-6.044-3.258-11.75-6.991-15.479c-3.647-3.78-9.211-5.667-15.146-6.671c-5.937-1.062-12.21-1.507-18.494-2.24
		c-6.288-0.715-12.648-1.714-18.821-3.424c-0.717-0.199-1.138-0.942-0.94-1.66c0.179-0.644,0.806-1.047,1.449-0.98
		c6.206,0.64,12.406,0.868,18.677,1.039c6.271,0.209,12.608,0.319,19.116,1.253c3.25,0.481,6.545,1.235,9.799,2.501
		c3.25,1.253,6.401,3.301,8.862,6.034c2.436,2.775,3.947,6.164,4.707,9.51C1072.931,408.408,1073.03,411.768,1072.65,415.02z"/>
</g>
</svg>
