<?xml version="1.0" encoding="utf-8"?>
<!-- Designed by Vexels.com - 2019 All Rights Reserved - https://vexels.com/terms-and-conditions/  -->
<svg version="1.1" id="Layer_1" xmlns="http://www.w3.org/2000/svg" xmlns:xlink="http://www.w3.org/1999/xlink" x="0px" y="0px"
	 viewBox="0 0 1200 1200" enable-background="new 0 0 1200 1200" xml:space="preserve">
<g>
	<path d="M655.529,850.418c-1.415-3.637-6.021-5.952-10.102-5.06c-1.051,0.231-1.893,0.738-2.636,1.187
		c-0.709,0.427-1.375,0.828-2.193,0.993c-1.189,0.244-2.668,0.154-4.102,0.061c-0.865-0.053-1.731-0.093-2.511-0.093l-12.902,0.188
		c8.878-5.846,17.482-12.326,14.854-17.296c-2.626-4.957-12.754-0.672-22.505,4.173l4.877-8.74c0.56-1.003,1.107-2.198,1.67-3.441
		c1.049-2.307,2.135-4.691,3.467-6.098c0.605-0.64,1.45-1.051,2.342-1.489c1.527-0.743,3.258-1.59,4.11-3.735
		c1.054-2.668-0.085-6.311-2.541-8.118c-2.265-1.662-4.293-2.182-6.021-1.548c-3.056,1.123-4.051,5.334-4.853,8.719
		c-0.202,0.855-0.385,1.641-0.584,2.259c-1.529,4.744-4.606,9.611-7.58,14.32c-0.597,0.945-1.181,1.869-1.744,2.78
		c-0.576-8.145-1.598-16.563-5.055-19.314c-0.961-0.765-2.081-1.057-3.25-0.871c-5.219,0.858-6.329,11.862-6.836,22.577l-5.068-8.49
		c-0.664-1.11-1.505-2.278-2.397-3.512c-1.532-2.124-3.117-4.317-3.791-6.239c-0.353-1.014-0.319-2.084-0.279-3.215
		c0.064-1.925,0.138-4.104-1.787-6.085c-2.257-2.328-7.006-3.114-9.741-0.642c-1.404,1.269-2.137,2.724-2.174,4.322
		c-0.082,3.337,2.904,6.31,5.084,8.482l0.65,0.65c3.828,3.889,6.719,9.218,9.512,14.373c0.393,0.722,0.783,1.442,1.173,2.153
		c-7.357-3.441-14.424-6.157-18.167-4.561c-1.134,0.478-1.935,1.338-2.32,2.485c-1.681,5.028,6.849,11.028,16.027,16.792
		c-1.739,0.074-3.478,0.165-5.185,0.255c-5.166,0.276-10.503,0.555-15.579,0.303c-1.142-0.058-2.655-0.611-4.256-1.195
		c-3.024-1.102-6.146-2.243-8.631-0.836c-1.423,0.807-2.363,2.35-2.796,4.588c-0.377,1.962,0.143,4.112,1.394,5.758
		c1.165,1.532,2.798,2.458,4.601,2.602c1.773,0.133,3.414-0.661,5.028-1.431c1.014-0.486,1.97-0.942,2.806-1.102
		c5.087-0.964,10.89-0.77,16.502-0.587c1.176,0.04,2.32,0.077,3.446,0.104c-7.906,5.418-15.47,11.413-12.783,16.048
		c2.796,4.826,12.613,0.539,21.945-4.208c-0.735,1.423-1.457,2.862-2.166,4.274c-2.424,4.834-4.933,9.833-7.909,14.1
		c-0.595,0.855-1.726,1.731-2.923,2.66c-2.164,1.683-4.619,3.587-4.789,6.265c-0.104,1.641,0.645,3.239,2.291,4.89
		c1.306,1.309,3.13,2.049,5.039,2.049c0.093,0,0.186-0.003,0.279-0.005c1.922-0.074,3.706-0.911,4.896-2.299
		c1.399-1.63,1.545-3.773,1.675-5.665c0.077-1.118,0.151-2.174,0.449-3.058c1.712-5.081,4.98-10.274,8.142-15.294
		c0.706-1.123,1.394-2.217,2.057-3.295c0.701,10.356,2.063,20.694,7.349,20.694c0.064,0,0.13,0,0.194-0.005
		c5.44-0.258,6.711-10.351,7.351-20.24c0.778,1.157,1.598,2.339,2.44,3.552c3.364,4.842,6.841,9.852,8.426,14.652
		c0.3,0.905,0.263,1.858,0.22,2.87c-0.069,1.779-0.157,3.993,1.933,5.894c1.304,1.184,3.082,1.75,4.991,1.58
		c2.034-0.175,3.942-1.171,5.105-2.668c4.096-5.27-0.223-8.721-3.374-11.241c-1.365-1.091-2.777-2.219-3.446-3.345
		c-2.028-3.396-4.006-6.831-5.984-10.269c-1.192-2.073-2.384-4.147-3.589-6.215c9.199,4.739,18.255,8.75,21.924,5.015
		c0.802-0.818,1.165-1.861,1.051-3.016c-0.409-4.091-6.889-9.247-14.246-14.323c1.75-0.042,3.499-0.096,5.249-0.149
		c3.629-0.106,7.256-0.215,10.874-0.25c2.612-0.037,3.903,0.157,6.172,0.881c0.714,0.228,1.266,0.579,1.85,0.953
		c1.359,0.873,3.05,1.957,6.016,0.234C655.388,856.068,656.633,853.267,655.529,850.418z"/>
	<path d="M1132.875,118.183c0,0,1.025-4.607-5.63-16.892c-6.654-12.285-27.13,2.048-27.13,2.048s-25.083,8.702-35.832,15.868
		c-10.749,7.166-32.847,7.276-42.998-2.048c-39.756-36.514-127.46,29.007-144.522,46.069
		c-17.063,17.063-19.792,68.251-19.792,68.251c-14.333,15.698-26.619,68.933-26.619,90.091c0,21.158-10.921,40.951-13.65,53.236
		c-2.73,12.285-49.141,68.251-75.076,81.901c-25.935,13.65-75.076,83.266-108.519,105.107
		c-33.443,21.84-108.519,113.297-118.757,146.739c-10.237,33.443-45.046,96.916-59.378,113.297
		c-14.333,16.38-21.158,88.726-27.301,130.359c-6.142,41.633-49.141,82.584-75.758,94.869
		c-26.617,12.285-173.358,23.205-199.293,24.57c-25.935,1.365-39.586-10.238-69.616-18.428s-42.315,0-25.253,13.65
		c17.063,13.65,3.413,4.778,42.315,24.57c38.904,19.793,177.453,4.095,260.037-4.095s84.631-43.681,98.964-50.506
		c14.332-6.825,33.443,4.095,35.49,9.555c2.048,5.46-6.824,32.078-0.682,38.903c6.143,6.825,134.454,6.825,134.454,6.825
		c10.921,12.285,73.029,6.143,78.489,4.778c5.461-1.365,7.508-6.143,7.508-6.143s5.46-5.46,2.73-15.015
		c-2.73-9.555-6.143-15.698-6.143-15.698c18.428-4.095,66.203,4.778,79.172,4.778c12.968,0,26.617-13.65,28.664-17.745
		c2.048-4.095,6.826-4.095,9.556-8.873c2.729-4.778-4.777-6.825-13.651-14.333c-8.872-7.508-24.569-15.015-43.68-10.92
		c-19.111,4.095-95.551-0.682-95.551-0.682c-3.413-8.19,2.729-19.11,2.729-19.11c25.936-9.555,62.11-45.046,72.347-59.378
		c10.237-14.333,13.65-69.616,13.65-69.616c3.413-8.19,70.981-30.713,83.95-32.078c12.967-1.365,34.807-24.57,34.807-24.57
		s12.968,55.283,15.016,70.981c2.047,15.698,16.379,77.123,13.65,96.234c-2.73,19.11-2.048,21.158,12.285,29.348
		c14.332,8.19,18.427,45.046,18.427,60.061s2.73,31.396,12.968,36.855c10.238,5.46,77.806,0.683,88.727,2.047
		c10.919,1.365,2.729-6.142,2.047-8.19s4.777-0.683,10.238-6.825c5.46-6.142-2.73-2.73-8.19-17.063
		c-5.461-14.333-39.586-18.428-53.918-25.253c-14.333-6.825-22.524-60.061-22.524-60.061c0.682-23.888,0.682-94.186-6.142-119.439
		c-6.826-25.253,1.365-109.884,5.46-131.724c4.095-21.84,46.41-79.853,54.601-93.504c8.19-13.65,8.872-82.584,10.921-103.059
		c2.047-20.475-30.03-47.093-17.063-62.791c12.968-15.698,6.824-68.933,6.824-87.361c0-18.428,15.698-25.935,20.475-57.331
		c4.777-31.395,20.647-49.482,25.253-59.208c4.607-9.726,13.821-7.166,25.083-13.309c11.262-6.142,5.119-21.499,5.119-21.499
		c43.51-30.201,45.046-71.663,47.605-82.413C1152.327,143.265,1132.875,118.183,1132.875,118.183z M688.264,850.943
		c-1.299,7.868-10.501,11.824-3.41,20.471c5.259,6.408-15.186,9.295-18.16,9.834c-1.659,0.301-8.295,0.411-9.413,1.951
		c-1.307,1.801,2.235,5.121,3.13,6.543c2.34,3.722,3.781,7.669,4.021,12.093c0.139,2.569,0.202,7.045-1.604,9.18
		c-2.253,2.664-5.616,1.287-8.523,2.456c-5.608,2.256-4.881,8.941-9.127,12.164c-6.001,4.555-13.067-2.158-19.001,4.691
		c-1.319,1.523-2.206,4.307-4.167,4.886c-3.03,0.895-7.68-3.03-9.677-4.708c-4.122-3.465-6.016-10.122-10.163-13.088
		c-4.252-3.043-5.335,1.856-7.588,5.794c-2.769,4.843-7.268,9.959-13.121,11.076c-6.766,1.292-7.138-5.798-12.816-7.532
		c-5.63-1.719-10.777,2.525-14.406-3.299c-3.703-5.942-4.434-9.912-12.11-11.386c-4.318-0.829-6.102,0.272-6.674-5.012
		c-0.28-2.582,0.447-5.334,1.104-7.809c1.229-4.629,5.176-9.155,5.971-13.634c1.123-6.319-5.846-4.394-10.285-4.412
		c-5.014-0.02-10.488-1.054-14.079-5.038c-4.935-5.477,2.502-12.482-1.939-19.117c-1.553-2.318-4.534-3.317-4.805-6.43
		c-0.224-2.571,1.704-4.757,3.023-6.718c1.86-2.767,4.16-5.179,4.108-8.738c-0.037-2.469-2.023-4.156-2.446-6.363
		c-1.223-6.367,6.689-8.892,11.876-10.081c4.149-0.951,14.745,1.159,15.056-4.248c0.143-2.491-3.552-5.646-4.582-7.62
		c-1.546-2.966-2.355-6.211-2.43-9.555c-0.056-2.459-0.077-6.779,1.658-8.668c2.401-2.616,5.744-1.244,8.827-2.721
		c5.788-2.772,4.374-9.005,8.267-12.417c4.444-3.895,11.718,1.228,16.78-1.419c6.287-3.288,4.297-10.857,12.701-5.855
		c3.658,2.178,6.864,5.28,9.46,8.626c1.548,1.995,2.997,6.516,5.221,7.605c4.146,2.03,7.804-8.548,10.499-11.23
		c4.503-4.481,10.072-7.471,15.297-3.484c2.116,1.616,3.259,3.638,6.005,4.562c3.311,1.113,6.218-0.248,9.516-0.194
		c7.828,0.127,6.954,7.184,10.769,11.954c3.851,4.815,11.144,0.98,13.363,6.112c2.486,5.75-2.076,14.92-4.293,19.927
		c-2.766,6.25-2.918,7.378,3.798,7.489c5.434,0.09,11.514,0.665,16.242,3.647c6.571,4.143,3.291,6.992,2.404,13.053
		C681.529,841.2,689.256,844.943,688.264,850.943z M699.02,762.584c-0.604,0.257-1.289,0.045-1.651-0.472l-0.023-0.033
		c-7.533-10.742-15.762-20.783-25.501-28.755c-4.797-4.059-10.038-7.467-15.511-10.271c-5.449-2.849-11.183-5.078-17.12-6.508
		c-5.927-1.439-12.008-2.282-18.142-2.356c-6.131-0.061-12.281,0.452-18.406,1.391c-6.127,0.936-12.232,2.288-18.318,3.961
		c-6.041,1.747-12.168,3.728-17.783,6.659l-0.131,0.069c-0.674,0.352-1.505,0.091-1.857-0.583c-0.251-0.482-0.189-1.045,0.114-1.454
		c4.293-5.81,10.216-9.674,16.261-13.021c6.131-3.241,12.714-5.639,19.52-7.186c6.806-1.558,13.856-2.162,20.89-1.917
		c7.03,0.245,14.089,1.196,20.886,3.178c6.78,2.017,13.302,4.876,19.306,8.512c5.931,3.736,11.546,7.968,16.307,12.983
		c4.767,4.986,9.146,10.287,12.67,16.091c3.735,5.659,6.605,11.788,9.212,17.924C700.037,761.488,699.713,762.289,699.02,762.584z
		 M699.834,703.924c-0.585,0.314-1.302,0.152-1.707-0.344c-6.936-8.493-14.722-16.062-23.45-21.956
		c-4.461-2.783-9.007-5.368-13.864-7.182c-4.854-1.789-9.839-3.135-14.931-3.903c-10.203-1.392-20.702-0.706-30.866,1.794
		c-10.2,2.384-20.244,5.591-30.987,8.533l-0.082,0.023c-0.746,0.205-1.519-0.235-1.723-0.982c-0.13-0.478,0.009-0.972,0.317-1.315
		c4.003-4.39,8.799-7.592,13.874-10.338c5.104-2.668,10.553-4.722,16.208-6.043c11.288-2.56,23.242-3.422,34.85-1.158
		c11.604,2.141,22.575,7.368,31.545,14.675c8.959,7.352,16.082,16.481,21.374,26.347
		C700.749,702.74,700.499,703.568,699.834,703.924z M710.802,656.873c-0.569,0.338-1.286,0.213-1.712-0.264l-0.013-0.016
		c-6.819-7.623-14.441-14.286-23-19.117c-8.576-4.797-17.975-7.73-27.646-8.737c-9.665-1.008-19.545-0.342-29.194,1.726
		c-4.841,0.957-9.662,2.079-14.567,3.166c-4.87,1.159-9.828,2.362-14.908,3.425l-0.084,0.017c-0.755,0.158-1.497-0.327-1.655-1.083
		c-0.104-0.496,0.072-0.988,0.417-1.311c4.049-3.765,8.68-6.471,13.533-8.768c4.852-2.296,9.991-3.966,15.259-5.107
		c10.544-2.114,21.561-2.933,32.388-1.189c10.824,1.532,21.338,5.667,30.229,11.888c8.928,6.2,16.09,14.479,21.434,23.5
		C711.665,655.652,711.452,656.489,710.802,656.873z M1033.543,185.853c-0.283,0.572-0.911,0.86-1.508,0.734l-0.023-0.005
		c-7.757-1.631-15.494-2.341-22.96-1.546c-7.464,0.834-14.571,3.147-21.044,6.743c-6.453,3.612-12.364,8.306-17.526,13.817
		c-5.286,5.396-10.383,11.043-16.42,16.569l-0.086,0.079c-0.577,0.528-1.473,0.488-2-0.089c-0.305-0.333-0.419-0.78-0.352-1.194
		c1.469-8.618,6.003-15.95,11.716-22.171c5.87-6.058,12.632-11.525,20.458-15.192c7.718-3.82,16.425-5.779,24.958-5.62
		c8.549,0.121,16.826,2.421,24.166,6.041C1033.601,184.355,1033.878,185.175,1033.543,185.853z M948.073,437.486
		c-0.042-0.758,0.539-1.406,1.297-1.448c0.616-0.034,1.161,0.347,1.365,0.897c5.62,15.236,7.009,32.076,6.964,47.992
		c0.024,3.926,0.024,7.864,0.481,11.215c0.224,1.656,0.522,3.155,0.98,4.174c0.469,1.036,0.897,1.524,1.61,2.004
		c0.713,0.477,1.919,0.893,3.389,1.144c1.465,0.294,2.545,0.323,3.864,0.136c2.529-0.38,5.107-1.788,7.313-3.899
		c4.422-4.296,7.256-10.958,8.27-17.945c0.993-7.037,0.538-14.515-1.126-21.832c-3.25-14.744-10.654-28.761-19.319-41.997
		c-0.417-0.629-0.244-1.476,0.385-1.893c0.551-0.365,1.274-0.272,1.724,0.178c11.322,11.438,20.879,25.243,26.021,41.348
		c2.435,8.043,3.864,16.682,2.924,25.488c-0.909,8.699-3.826,17.891-10.842,24.881c-3.469,3.43-8.06,6.27-13.431,7.194
		c-2.611,0.46-5.579,0.418-8.007-0.137c-2.424-0.495-5.103-1.293-7.692-3.069c-2.607-1.741-4.672-4.565-5.689-7.214
		c-1.054-2.672-1.443-5.14-1.629-7.436c-0.297-4.585,0.02-8.63,0.243-12.659c0.6-7.987,1.204-15.693,1.403-23.512
		C948.759,453.291,948.503,445.459,948.073,437.486z M932.363,182.244c2.684-4.647,5.961-8.944,9.646-12.878
		c7.471-7.735,16.067-14.674,25.966-19.397c9.774-4.895,20.774-7.473,31.624-7.412c10.87,0.023,21.47,2.759,30.995,7.141
		c0.685,0.315,0.985,1.125,0.67,1.81c-0.277,0.602-0.938,0.907-1.558,0.757l-0.021-0.005c-9.944-2.393-20.002-3.539-29.79-2.645
		c-9.783,0.932-19.182,3.864-27.711,8.535c-8.522,4.667-16.27,10.834-23.031,18.021c-3.438,3.54-6.766,7.206-10.183,10.888
		c-3.346,3.724-6.741,7.532-10.315,11.296l-0.058,0.061c-0.532,0.56-1.418,0.583-1.978,0.051c-0.366-0.349-0.502-0.853-0.402-1.315
		C927.406,191.752,929.677,186.893,932.363,182.244z M847.188,450.968c-4.252,7.248-9.624,14.164-16.727,19.452
		c-7.005,5.238-15.732,9.338-25.628,8.933c-4.874-0.218-10.076-1.66-14.401-4.976c-2.111-1.605-4.094-3.813-5.336-5.972
		c-1.282-2.116-2.514-4.624-2.969-7.731c-0.491-3.096,0.179-6.53,1.435-9.075c1.245-2.588,2.793-4.549,4.353-6.244
		c3.165-3.332,6.349-5.845,9.458-8.417c6.273-4.982,12.34-9.771,18.216-14.933c5.859-5.16,11.434-10.666,16.996-16.395
		c0.528-0.545,1.399-0.559,1.943-0.03c0.443,0.43,0.534,1.088,0.269,1.611c-7.371,14.471-18.792,26.924-30.508,37.697
		c-2.866,2.683-5.757,5.357-7.907,7.968c-1.065,1.288-1.962,2.525-2.4,3.553c-0.442,1.047-0.508,1.694-0.377,2.543
		c0.133,0.847,0.648,2.016,1.46,3.265c0.779,1.276,1.491,2.088,2.523,2.929c1.996,1.599,4.78,2.536,7.828,2.722
		c6.157,0.329,12.971-2.114,18.79-6.113c5.841-4.049,11.022-9.46,15.264-15.649c8.62-12.396,13.882-27.349,17.717-42.698
		c0.179-0.733,0.919-1.182,1.651-1.003c0.642,0.157,1.066,0.751,1.041,1.387C859.166,419.869,855.52,436.258,847.188,450.968z
		 M865.217,480.161c1.484-4.349,3.328-7.962,5.08-11.598c3.619-7.146,7.131-14.031,10.315-21.175
		c3.169-7.135,5.936-14.466,8.598-21.995c0.252-0.716,1.037-1.092,1.752-0.839c0.583,0.205,0.94,0.766,0.917,1.352
		c-0.654,16.227-5.833,32.311-11.979,46.992c-1.484,3.635-2.996,7.272-3.859,10.542c-0.427,1.615-0.729,3.114-0.696,4.23
		c0.035,1.136,0.244,1.752,0.717,2.468c0.475,0.714,1.431,1.561,2.692,2.356c1.24,0.834,2.226,1.274,3.515,1.608
		c2.482,0.619,5.403,0.308,8.25-0.795c5.732-2.272,10.903-7.337,14.521-13.4c3.616-6.118,6.065-13.198,7.335-20.594
		c2.655-14.863,1.193-30.647-1.731-46.195c-0.143-0.741,0.34-1.457,1.081-1.601c0.649-0.126,1.282,0.238,1.524,0.826
		c6.069,14.906,9.6,31.321,8.172,48.166c-0.839,8.362-2.831,16.888-7.078,24.66c-4.176,7.685-10.395,15.055-19.557,18.818
		c-4.52,1.837-9.848,2.698-15.163,1.492c-2.587-0.577-5.312-1.755-7.342-3.198c-2.048-1.387-4.216-3.151-5.927-5.785
		c-1.739-2.608-2.563-6.008-2.486-8.844C863.92,484.78,864.506,482.352,865.217,480.161z M892.491,651.822
		c-7.524,6.769-13.475,14.623-16.765,24.094c-1.734,4.687-2.843,9.7-3.652,14.865c-0.859,5.18-1.037,10.514-1.495,15.985
		l-0.004,0.055c-0.064,0.758-0.73,1.322-1.489,1.258c-0.579-0.048-1.045-0.452-1.204-0.976c-3.214-10.665-4.195-22.382-1.468-33.953
		c1.422-5.731,3.739-11.383,7.023-16.41c3.248-5.053,7.349-9.466,11.787-13.23c4.431-3.789,9.127-7.072,13.954-9.909
		c2.401-1.443,4.809-2.811,7.206-4.159l7.232-3.83c9.556-5.067,18.84-9.947,26.718-17.21l0.015-0.014
		c0.557-0.514,1.427-0.479,1.941,0.079c0.417,0.452,0.473,1.109,0.182,1.615c-2.827,4.925-6.742,9.2-10.927,12.991
		c-4.23,3.759-8.722,7.137-13.283,10.209l-13.444,9.067C900.493,645.415,896.268,648.44,892.491,651.822z M998.688,581.996
		c-0.313,9.882-2.107,19.768-5.157,29.334c-3.186,9.517-7.749,18.664-13.66,26.913c-5.906,8.253-13.143,15.51-21.063,21.78
		c-15.091,11.022-26.948,24.832-34.57,41.084c-7.557,16.168-10.57,34.832-8.637,53.557l0.012,0.121
		c0.077,0.751-0.467,1.422-1.219,1.499c-0.596,0.062-1.143-0.272-1.382-0.788c-2.124-4.616-3.421-9.387-4.343-14.31
		c-0.913-4.913-1.315-9.935-1.276-14.979c0.096-10.081,2-20.283,5.753-29.816c7.343-19.252,22.269-34.859,38.155-46.236
		c7.274-5.392,13.994-11.562,19.524-18.719c2.849-3.515,5.365-7.286,7.72-11.169c2.304-3.916,4.282-8.027,6.072-12.237
		c7.017-16.872,9.841-35.959,8.339-54.712l-0.008-0.111c-0.061-0.748,0.496-1.403,1.245-1.463c0.662-0.053,1.252,0.379,1.42,0.999
		c1.305,4.808,2.153,9.6,2.614,14.5C998.727,572.128,998.886,577.06,998.688,581.996z M1035.557,219.512
		c-0.263,0.521-0.812,0.802-1.361,0.746l-0.158-0.017c-5.525-0.581-10.783-1.222-15.845-0.312l-1.884,0.236
		c-0.619,0.127-1.224,0.331-1.834,0.473c-1.208,0.352-2.442,0.54-3.607,0.997c-1.16,0.48-2.298,0.983-3.454,1.41
		c-1.136,0.493-2.197,1.186-3.301,1.741c-4.307,2.491-8.255,5.69-11.803,9.39c-3.613,3.644-7.28,7.313-12.186,10.701l-0.127,0.088
		c-0.67,0.463-1.589,0.295-2.052-0.376c-0.191-0.279-0.275-0.601-0.259-0.915c0.339-6.479,3.439-11.835,7.483-16.306
		c4.16-4.372,9.106-8.166,14.712-10.82c5.555-2.739,11.923-3.96,18.01-3.677c6.161,0.008,11.927,2.231,17.059,4.807
		C1035.624,218.018,1035.894,218.839,1035.557,219.512z"/>
</g>
</svg>
