<?xml version="1.0" encoding="utf-8"?>
<!-- Designed by Vexels.com - 2019 All Rights Reserved - https://vexels.com/terms-and-conditions/  -->
<svg version="1.1" id="Layer_1" xmlns="http://www.w3.org/2000/svg" xmlns:xlink="http://www.w3.org/1999/xlink" x="0px" y="0px"
	 viewBox="0 0 1200 1200" enable-background="new 0 0 1200 1200" xml:space="preserve">
<g>
	<path fill="none" d="M512.621,983.438c4.26-9.467,5.206-28.873,5.206-28.873s-4.259,6.627-7.573,11.833
		C506.941,971.605,512.621,983.438,512.621,983.438z"/>
	<path d="M1143.099,750.559c-17.039-74.786-30.293-76.68-23.667-148.626c6.627-71.947-17.986-115.493-33.133-164.72
		c-11.708-38.053-48.646-46.214-63.668-46.575c-49.125-38.516-135.107-38.255-200.451-12.118
		c-75.733,30.293-163.773,34.08-193.12,25.56c-29.347-8.52-32.186-35.027-59.639-42.6c-27.453-7.573-36.92-24.613-107.92-87.093
		c-71-62.48-120.227-71.315-120.227-71.315c-18.302-13.253-40.391-8.205-61.849-27.138c-21.458-18.933-35.342-9.467-35.342-9.467
		c-12.622-2.524-25.244-36.604-30.924-30.293c-5.68,6.311,0,22.72,0,22.72c-14.516-5.68-15.778-27.138-19.564-19.564
		c-3.786,7.573,1.262,34.711,1.262,34.711s-12.622,6.942-17.671,20.827c-5.049,13.884-10.098,22.72-18.302,34.711
		c-8.205,11.991-37.867,40.391-37.867,40.391c-9.467,6.311-59.325,63.111-59.325,63.111c-10.098,6.942-15.777,18.302-8.204,47.964
		c7.573,29.662,37.235,19.564,37.235,19.564c21.458,11.36,30.924-13.253,30.924-13.253c23.983,1.262,79.52-17.671,79.52-17.671
		c35.342,3.787,54.276-12.622,54.276-12.622c35.973,9.467,47.964,59.955,57.43,97.822c9.467,37.867,49.858,71.946,54.907,106.658
		c5.049,34.711,10.098,65.004,16.409,78.889c6.311,13.884,53.013,42.915,53.013,42.915s-1.262,14.516,15.147,35.973
		c16.408,21.458,35.973,106.658,44.177,143.262c8.204,36.604-3.156,58.062-3.786,73.209c-0.632,15.147-23.351,38.498-23.351,38.498
		s-37.236,17.671-28.4,23.351c20.195,13.253,68.16,2.525,68.16,2.525s-9.467,12.622-18.933,25.244
		c-9.467,12.622-47.964,22.72-32.187,34.711s72.578-3.156,76.364-9.466c3.786-6.311,4.417-12.623-1.894-21.458
		c-6.311-8.835,2.525-23.351,8.836-28.4c6.311-5.049,22.72-34.08,15.147-43.547s-16.409-73.209-11.36-84.569
		c5.049-11.36,3.787-32.187-1.263-51.751c-5.049-19.564-13.884-133.795-13.884-133.795s107.92-0.631,164.089-4.418
		c56.169-3.786,136.32-54.906,147.048-62.48c10.729-7.573,35.973-0.631,35.973-0.631c6.311,6.942,41.023,143.261,46.072,175.448
		c5.049,32.186-15.778,87.724-21.458,104.764c-5.68,17.04-31.555,49.227-31.555,49.227s-34.711,24.614-32.817,32.187
		c1.893,7.573,42.915,3.787,56.799,1.263c13.885-2.525,10.098-17.04,7.573-23.352c-2.524-6.311,2.524-10.098,10.729-15.777
		c8.205-5.68,27.138-21.458,24.614-33.449c-2.524-11.991,26.507-109.813,31.555-128.115c5.049-18.302,12.622-8.205,3.786-46.071
		c-8.835-37.866-6.942-78.258-6.942-78.258l22.089,36.604c12.623,37.867,62.48,118.648,68.16,130.009
		c5.68,11.36,11.36,115.493,8.204,120.542c-3.156,5.049-20.195,39.76-20.195,39.76s-31.556,17.671-23.352,27.138
		c8.205,9.466,66.267,0.631,66.898-9.467c0.631-10.098-6.311-32.187,5.68-47.964c11.992-15.778,12.623-11.991,6.942-39.76
		c-5.68-27.769-11.36-140.106-11.36-155.253c0-15.147-16.408-46.702-29.031-68.16c-12.622-21.458-6.311-68.16-6.311-68.16
		c2.788-18.72,6.956-40.71,10.049-63.903c5.26,48.519,6.454,91.981,6.043,108.396c-0.946,37.867,17.04,68.16,34.08,102.24
		c17.04,34.08,10.414,118.333,10.414,118.333c28.4-33.133,17.986-128.746,17.986-128.746c15.147,33.133,8.52,106.973,8.52,106.973
		S1160.139,825.346,1143.099,750.559z M251.179,207.492c-9.542,0.964-18.659,3.907-26.826,8.555
		c-8.116,4.759-15.275,11.098-21.548,18.293c-6.242,7.32-11.437,15.309-16.592,23.786c-5.225,8.965-11.704,17.071-18.532,24.742
		l-5.292,5.595l-5.577,5.278c-1.832,1.79-3.811,3.398-5.724,5.084c-1.914,1.687-3.848,3.341-5.874,4.877
		c-7.95,6.339-16.249,12.131-24.624,17.63c-4.165,2.768-8.41,5.423-12.454,8.228c-4.023,2.787-8.242,5.55-11.108,9.111l-0.081,0.101
		c-0.469,0.583-1.321,0.675-1.904,0.206c-0.518-0.417-0.648-1.138-0.341-1.702c2.649-4.869,6.574-8.261,10.292-11.707
		c3.8-3.391,7.679-6.567,11.55-9.74c7.748-6.316,15.437-12.551,22.73-19.15c14.716-13.025,27.87-27.54,37.994-43.956
		c5.323-8.533,11.074-17.353,18.185-24.966c7.062-7.672,15.374-14.456,24.869-19.227c9.47-4.809,20.094-7.19,30.497-7.32
		c10.437-0.118,20.643,1.9,30.187,5.262c0.709,0.249,1.081,1.026,0.831,1.735c-0.226,0.641-0.889,1.005-1.536,0.884
		C270.558,207.289,260.718,206.455,251.179,207.492z M267.328,327.952c-0.767,0.168-1.524-0.319-1.691-1.085
		c-0.1-0.457,0.032-0.911,0.318-1.238l0.028-0.031c3.801-4.302,7.087-8.377,9.848-12.708c2.749-4.303,5.015-8.743,6.446-13.319
		c1.443-4.582,1.858-9.25,1.04-13.878c-0.802-4.651-3.053-9.224-6.309-13.855l-0.026-0.037c-0.444-0.632-0.292-1.505,0.34-1.95
		c0.418-0.294,0.944-0.326,1.38-0.131c5.48,2.469,10.371,7.205,12.935,13.364c2.622,6.138,2.695,13.249,0.92,19.456
		c-1.733,6.266-5.105,11.853-9.475,16.28C278.705,323.214,273.32,326.644,267.328,327.952z M294.363,343.896
		c-2.963,0.739-5.968,1.159-9.151,0.987c-0.787-0.043-1.391-0.715-1.348-1.503c0.024-0.433,0.238-0.811,0.558-1.056l0.077-0.058
		c4.655-3.534,9.23-6.614,13.478-9.795c4.235-3.179,8.266-6.353,11.496-10.111c3.154-3.775,5.643-7.987,6.814-12.847
		c1.352-4.834,1.312-10.213,0.881-15.906l-0.003-0.042c-0.058-0.764,0.515-1.431,1.279-1.489c0.542-0.041,1.036,0.236,1.298,0.673
		c3.066,5.143,4.884,11.364,4.584,17.88c-0.277,6.514-2.877,13.008-6.829,18.151c-3.97,5.145-8.981,9.243-14.511,11.978
		C300.219,342.129,297.343,343.211,294.363,343.896z M304.453,363.129c-0.749-0.27-1.137-1.097-0.866-1.845
		c0.146-0.405,0.454-0.704,0.824-0.851l0.042-0.016c4.932-1.932,9.377-3.558,13.606-5.518c4.193-1.965,8.207-4.018,11.736-6.68
		c3.525-2.653,6.552-5.813,8.88-9.592c2.396-3.762,3.908-8.187,5.022-13.173l0.009-0.043c0.168-0.754,0.916-1.228,1.669-1.06
		c0.503,0.112,0.883,0.485,1.028,0.944c1.644,5.208,1.523,11.142-0.317,16.686c-1.859,5.546-5.486,10.497-9.938,14.198
		c-4.455,3.717-9.68,6.384-15.181,7.601C315.493,364.994,309.735,365.035,304.453,363.129z M366.21,374.454
		c-2.236,6.261-7.142,11.499-12.69,14.677c-5.57,3.248-11.7,4.835-17.729,5.208c-6.013,0.298-12.158-0.431-17.633-3.244
		c-0.687-0.353-0.958-1.196-0.604-1.883c0.215-0.418,0.612-0.682,1.044-0.745l0.148-0.02c5.457-0.751,10.59-1.863,15.529-3.303
		c4.916-1.439,9.566-3.256,13.6-5.633c4.033-2.393,7.403-5.299,9.901-9.129c2.553-3.826,4.07-8.583,5.521-14.093l0.026-0.096
		c0.198-0.751,0.967-1.2,1.719-1.002c0.454,0.12,0.801,0.456,0.958,0.863C368.098,361.609,368.49,368.208,366.21,374.454z
		 M426.697,543.647c-3.549-5.696-4.25-9.501-11.607-10.914c-4.139-0.795-5.85,0.261-6.398-4.804
		c-0.268-2.475,0.428-5.113,1.058-7.485c1.178-4.437,4.962-8.776,5.725-13.069c1.075-6.057-5.605-4.212-9.859-4.229
		c-4.805-0.02-10.053-1.01-13.495-4.829c-4.73-5.25,2.4-11.964-1.859-18.323c-1.488-2.222-4.345-3.18-4.606-6.163
		c-0.215-2.464,1.634-4.56,2.897-6.44c1.782-2.653,3.987-4.964,3.937-8.375c-0.035-2.366-1.938-3.984-2.344-6.099
		c-1.171-6.103,6.412-8.523,11.384-9.663c3.978-0.912,14.132,1.111,14.43-4.072c0.138-2.388-3.405-5.412-4.392-7.304
		c-1.483-2.843-2.258-5.954-2.33-9.159c-0.053-2.357-0.073-6.498,1.589-8.309c2.302-2.507,5.506-1.192,8.462-2.608
		c5.547-2.657,4.192-8.631,7.924-11.902c4.26-3.734,11.233,1.177,16.084-1.361c6.026-3.152,4.119-10.407,12.174-5.612
		c3.507,2.088,6.579,5.061,9.067,8.268c1.484,1.912,2.874,6.246,5.005,7.289c3.973,1.946,7.481-8.193,10.063-10.764
		c4.315-4.295,9.654-7.161,14.662-3.339c2.03,1.549,3.124,3.487,5.757,4.373c3.173,1.067,5.959-0.238,9.121-0.186
		c7.504,0.122,6.666,6.886,10.322,11.458c3.691,4.615,10.682,0.94,12.809,5.858c2.384,5.512-1.99,14.301-4.114,19.101
		c-2.652,5.991-2.797,7.072,3.64,7.178c5.209,0.086,11.037,0.638,15.569,3.495c6.298,3.971,3.154,6.702,2.304,12.512
		c-0.97,6.631,6.436,10.22,5.487,15.971c-1.246,7.541-10.065,11.333-3.27,19.622c5.042,6.143-14.555,8.909-17.406,9.427
		c-1.591,0.288-7.95,0.394-9.022,1.87c-1.254,1.726,2.142,4.909,2.999,6.272c2.244,3.567,3.624,7.351,3.854,11.591
		c0.134,2.463,0.194,6.753-1.536,8.8c-2.159,2.554-5.384,1.233-8.169,2.354c-5.376,2.162-4.678,8.57-8.749,11.66
		c-5.753,4.366-12.526-2.068-18.214,4.497c-1.265,1.46-2.114,4.128-3.994,4.683c-2.904,0.858-7.362-2.904-9.275-4.513
		c-3.951-3.321-5.766-9.702-9.74-12.545c-4.076-2.917-5.115,1.779-7.273,5.554c-2.655,4.642-6.966,9.545-12.576,10.617
		c-6.486,1.238-6.842-5.558-12.285-7.22C435.11,545.161,430.175,549.229,426.697,543.647z M484.493,594.652
		c-5.609,0.105-11.2-0.558-16.592-1.898c-10.765-2.659-20.862-8.033-28.425-15.792c-0.527-0.541-0.516-1.406,0.025-1.933
		c0.454-0.443,1.146-0.501,1.665-0.188c8.853,5.327,18.453,8.752,28.262,10.122c4.899,0.677,9.834,0.847,14.705,0.539
		c4.866-0.382,9.677-1.198,14.301-2.598c9.219-2.878,17.863-7.732,25.261-14.217c7.483-6.42,13.679-14.382,18.547-23.539
		c0.351-0.672,1.18-0.932,1.852-0.581c0.539,0.281,0.811,0.882,0.717,1.451c-1.861,10.729-7.476,20.821-15.117,28.918
		c-7.722,8.035-17.598,14.246-28.523,17.282C495.731,593.777,490.106,594.623,484.493,594.652z M512.621,983.438
		c0,0-5.68-11.833-2.367-17.04c3.314-5.206,7.573-11.833,7.573-11.833S516.88,973.971,512.621,983.438z M521.848,630.14
		c-7.622,1.337-16.036,0.795-22.775-3.144c-0.658-0.385-0.88-1.231-0.495-1.89c0.281-0.481,0.809-0.729,1.33-0.677l0.06,0.006
		c6.988,0.703,13.542-0.495,19.819-2.602c6.243-2.194,12.178-5.262,17.606-9.042c5.402-3.811,10.28-8.301,14.314-13.423
		c3.955-5.184,7.007-10.998,8.258-17.942l0.007-0.037c0.136-0.754,0.857-1.255,1.611-1.119c0.539,0.097,0.949,0.495,1.089,0.989
		c2.126,7.532,0.228,16.001-3.596,22.845c-3.786,6.981-9.404,12.74-15.792,17.166C536.858,625.651,529.575,628.842,521.848,630.14z
		 M599.965,620.327c-2.525,6.629-6.66,12.724-11.985,17.6c-5.296,4.895-11.846,8.561-18.866,10.22
		c-7.001,1.635-14.385,1.435-20.879-1.053c-0.725-0.278-1.088-1.091-0.81-1.816c0.178-0.464,0.575-0.78,1.028-0.874l0.046-0.009
		c6.497-1.296,12.347-2.759,17.763-5.131c5.399-2.315,10.378-5.312,14.815-9.088c4.419-3.788,8.263-8.324,11.394-13.445
		c3.142-5.132,5.467-10.835,7.142-17.092l0.006-0.023c0.198-0.739,0.958-1.178,1.697-0.98c0.538,0.144,0.918,0.588,1.007,1.103
		C603.495,606.527,602.481,613.715,599.965,620.327z M994.54,555.624c-6.938,13.116-18.81,23.906-33.208,28.453
		c-7.149,2.294-14.779,2.985-22.16,2.181c-7.4-0.771-14.509-3.016-21.087-6.114l-4.859-2.464l-4.609-2.743
		c-1.555-0.873-3.004-1.963-4.501-2.95c-1.506-0.972-2.942-2.07-4.359-3.199c-5.656-4.461-11.015-9.679-14.679-16.35
		c-1.797-3.342-3.047-7.092-3.414-11.013c-0.36-3.915,0.307-8.014,2.039-11.558c3.489-7.174,10.142-11.805,17.006-14.326
		c3.488-1.221,7.097-1.958,10.727-2.303c3.638-0.224,7.282-0.132,10.858,0.441c7.158,1.11,13.924,4.003,19.852,7.943
		c0.624,0.415,0.793,1.256,0.378,1.88c-0.401,0.604-1.203,0.782-1.82,0.416l-0.025-0.015c-5.811-3.463-12.277-5.736-18.893-6.526
		c-3.313-0.393-6.647-0.333-9.932-0.003c-3.274,0.451-6.478,1.248-9.507,2.445c-5.986,2.457-11.287,6.732-13.725,12.297
		c-2.547,5.556-1.424,11.988,1.698,17.42c3.195,5.468,8.093,10.076,13.42,14.024c1.329,1.001,2.679,1.978,4.121,2.849
		c1.429,0.883,2.786,1.858,4.288,2.643l4.416,2.465l4.498,2.122c6.066,2.615,12.414,4.453,18.85,5.06
		c6.43,0.605,12.921-0.092,18.974-2.13c12.16-4.029,22.257-13.409,28.122-24.879c5.972-11.463,7.57-25.051,4.488-37.387
		c-3.071-12.398-11.126-23.226-21.825-30.785c-5.341-3.739-11.275-6.586-17.583-8.317c-6.305-1.746-12.948-2.388-19.616-2.148
		c-13.386,0.486-26.676,4.44-39.278,9.722c-12.635,5.316-24.778,11.921-36.625,19.028c-11.891,7.062-23.427,14.767-35.244,22.19
		c-5.902,3.722-11.849,7.417-17.959,10.939c-3.109,1.729-6.456,3.304-9.694,4.95c-1.61,0.874-3.318,1.506-5.04,2.112l-5.144,1.881
		c-3.39,1.416-7.004,2.028-10.532,2.982c-3.533,0.998-7.161,1.38-10.775,1.88c-1.809,0.219-3.614,0.551-5.429,0.673l-5.452,0.23
		l-5.457,0.178l-5.433-0.292c-14.505-0.69-28.705-3.879-42.24-8.522l-9.982-3.919c-3.273-1.417-6.48-2.976-9.716-4.457
		c-3.242-1.474-6.267-3.367-9.401-5.028c-3.14-1.656-6.136-3.555-9.119-5.464c-11.911-7.651-23.055-16.404-32.984-26.328
		c-0.532-0.532-0.532-1.394,0-1.926c0.468-0.469,1.201-0.519,1.731-0.162c22.999,15.465,47.238,28.56,73.006,36.654
		c12.854,4.024,26.082,6.589,39.327,7.364l4.971,0.283l4.958-0.135l4.964-0.083c1.651-0.07,3.279-0.343,4.921-0.502
		c3.276-0.377,6.583-0.625,9.771-1.467c3.2-0.748,6.52-1.12,9.608-2.289l4.713-1.499c1.583-0.476,3.158-0.975,4.638-1.713
		c3.02-1.365,6.056-2.558,9.104-4.04c6.111-3.09,12.164-6.405,18.212-9.771l36.401-20.435c12.282-6.652,24.684-13.212,37.734-18.539
		c12.981-5.389,26.685-9.673,41.101-10.804c7.189-0.534,14.557-0.126,21.719,1.565c7.162,1.672,14.055,4.65,20.254,8.651
		c6.148,4.013,11.788,9.012,16.285,15.002c4.512,5.963,7.917,12.855,9.739,20.16C1003.91,526.746,1001.55,542.532,994.54,555.624z
		 M1031.356,467.328c-0.687,0.191-1.401-0.196-1.642-0.854c-5.26-14.821-14.072-28.341-26.326-37.612
		c-12.216-9.329-27.29-14.176-42.562-15.698c-15.339-1.471-30.969-0.021-46.148,3.308c-15.184,3.379-30.042,8.414-44.205,14.923
		c-7.077,3.259-13.995,6.863-20.667,10.844c-6.875,4.066-13.939,8.091-21.117,11.82c-14.379,7.429-29.385,14.138-45.44,18.259
		c-15.98,4.086-33.243,5.248-49.59,1.506c-16.376-3.569-31.251-11.67-43.594-22.037c-0.577-0.484-0.652-1.344-0.168-1.92
		c0.422-0.503,1.138-0.621,1.695-0.321c13.977,7.508,28.568,13.374,43.684,15.401c3.763,0.554,7.554,0.821,11.341,0.907
		c3.784,0.159,7.578-0.011,11.357-0.291c7.56-0.66,15.067-2.078,22.488-4.008c14.848-3.909,29.259-10.064,43.199-17.223
		c6.993-3.585,13.813-7.418,20.685-11.431c7.084-4.086,14.4-7.723,21.862-11.01c14.937-6.523,30.516-11.64,46.585-14.657
		c16.029-3.01,32.604-4.221,48.978-1.918c8.167,1.147,16.264,3.155,23.965,6.271c7.681,3.14,14.933,7.423,21.269,12.784
		c12.781,10.737,21.093,25.752,25.295,41.286C1032.501,466.38,1032.078,467.128,1031.356,467.328z"/>
	<path d="M455.128,474.165c-3.623,2.671-13.307,6.231-13.533,11.61c-0.281,6.685,8.35,2.737,11.699,1.153
		c2.324-1.099,9.516-6.99,12.136-5.636c2.63,1.359,1.26,11.539,1.539,14.187c0.363,3.442,1.075,11.813,6.359,9.627
		c4.136-1.711,3.304-12.157,3.481-15.713c0.95-19.129,14.574,7.725,23.653-0.322c6.492-5.754-12.951-12.654-14.91-16.66
		c-3.222-6.589,12.347-9.168,15.219-14.652c7.119-13.595-20.822,2.698-22.586,1.738c-2.751-1.498-1.334-11.976-1.753-14.711
		c-0.963-6.284-5.689-12.426-8.82-3.719c-1.414,3.933,1.012,15.874-1.918,18.299c-3.247,2.688-10.25-3.961-14.336-5.432
		c-7.389-2.66-12.991-0.213-6.311,6.536c3.104,3.136,7.862,4.238,10.749,7.557C458.888,471.584,459.355,470.425,455.128,474.165z"/>
</g>
</svg>
