<?xml version="1.0" encoding="utf-8"?>
<!-- Designed by Vexels.com - 2019 All Rights Reserved - https://vexels.com/terms-and-conditions/  -->
<svg version="1.1" id="Layer_1" xmlns="http://www.w3.org/2000/svg" xmlns:xlink="http://www.w3.org/1999/xlink" x="0px" y="0px"
	 viewBox="0 0 1200 1200" enable-background="new 0 0 1200 1200" xml:space="preserve">
<g>
	<path d="M1134.118,700.533c37.465-38.6,0-111.259-23.841-95.365c-23.842,15.894-37.465,6.812-37.465,6.812
		c-72.658-129.423-337.182-150.994-359.887-133.964c-22.707,17.029-114.666,13.623-114.666,13.623s-71.522-35.194-105.582-34.059
		c-34.058,1.135-110.123-37.465-110.123-37.465l6.812-7.947c-18.164,1.135-28.382-15.894-28.382-15.894s-5.677-27.247,5.677-40.871
		c11.352-13.624,36.328-32.924,39.735-57.9c3.405-24.976,12.487-30.653,13.623-79.471c1.136-48.818-29.517-52.223-61.306-23.841
		c-31.787,28.382-48.817,78.335-48.817,78.335s-4.541-43.141-2.271-48.818c2.271-5.676,19.301-26.112-1.134-46.547
		c-20.435-20.435-44.278,20.435-54.495,39.735s-10.218,101.041-10.218,101.041c-14.759-1.135-37.464,18.165-37.464,18.165
		s-27.248-5.676-47.683-5.676s-27.246,36.329-30.653,38.6c-3.405,2.271-29.517,29.518-38.599,38.6
		c-9.082,9.082-20.435,10.217-30.653,29.518c-10.218,19.3-7.946,47.682,1.136,60.17s37.465,42.006,49.953,54.494
		c12.489,12.488,29.517,17.029,29.517,17.029c1.136,22.706,40.871,73.794,40.871,73.794c-1.136,56.764,24.976,106.717,32.923,115.8
		c7.948,9.082,34.06,99.906,27.248,138.506c-6.812,38.6-31.789,27.247-43.14,37.465c-11.353,10.218-17.03,14.759-32.924,24.977
		c-15.894,10.217-2.27,21.57-2.27,21.57c-23.842,0-30.653,18.165-31.789,34.059c-1.136,15.894,89.688,15.894,120.341,9.082
		c30.653-6.812,34.058-15.894,45.412-39.735c11.353-23.841,99.905-140.776,103.312-140.776c3.405,0,20.434,4.541,20.434,4.541
		s1.136-17.029,9.083-13.624c7.946,3.406,15.893,11.353,15.893,11.353l-2.27-18.165c51.088,30.653,74.929-3.406,145.317,28.382
		c70.388,31.788,144.182,2.271,161.212,7.947c17.03,5.676,44.276,21.571,44.276,21.571l-1.136-11.353
		c48.819,34.059,69.254,28.382,69.254,28.382c-36.33,38.6-28.383,53.359-17.03,60.17c11.353,6.812,53.358,13.624,53.358,13.624
		s-12.487,22.706-3.405,37.465c9.082,14.759,61.306,7.947,98.77,10.218c37.465,2.271,57.901-6.812,57.901-37.465
		c0-30.653,23.841-59.035,47.682-119.206c23.842-60.17-6.811-57.9-6.811-57.9s-18.166-14.759,14.759-27.247
		c32.923-12.488,12.487-35.194,29.517-54.494C1151.148,708.48,1134.118,700.533,1134.118,700.533z M325.757,463.265
		c0.652-0.31,1.421-0.095,1.829,0.468c11.055,15.188,23.395,29.361,38.128,39.892c7.299,5.287,15.258,9.497,23.463,12.18
		c8.148,2.58,16.967,3.376,23.985,1.05c3.47-1.161,6.212-3.191,7.57-5.637c0.743-1.266,1-2.422,1.313-4.274
		c0.209-1.645,0.116-2.93-0.265-3.921c-0.6-1.941-3.458-4.271-7.213-6.325c-3.716-2.094-7.966-4-12.254-5.931
		c-17.275-7.717-34.623-17.225-48.82-30.126c-0.604-0.55-0.649-1.485-0.1-2.09c0.458-0.503,1.186-0.617,1.766-0.324
		c8.448,4.268,16.837,8.344,25.392,11.978c8.577,3.618,17.219,6.837,26.106,10.093c4.428,1.699,8.93,3.38,13.593,5.649
		c2.34,1.129,4.7,2.566,7.066,4.478c2.333,1.903,4.726,4.597,6.098,8.013c1.392,3.413,1.522,7.001,1.181,10.026
		c-0.299,2.818-1.24,6.33-2.97,9.119c-3.421,5.801-9.095,9.316-14.545,11.059c-11.144,3.503-22.055,1.502-31.643-1.902
		c-9.675-3.492-18.196-9.031-25.785-15.325c-15.094-12.808-26.381-28.978-34.588-46.185
		C324.714,464.494,325.024,463.615,325.757,463.265z M270.609,505.761c0.719-0.053,1.356,0.426,1.532,1.099
		c4.789,18.166,11.141,35.851,21.047,51.011c4.882,7.577,10.77,14.388,17.442,19.866c6.655,5.362,14.584,9.304,21.966,9.685
		c3.655,0.177,6.947-0.719,9.101-2.504c1.153-0.91,1.812-1.894,2.775-3.506c0.792-1.457,1.171-2.688,1.176-3.75
		c0.146-2.026-1.671-5.235-4.425-8.512c-2.702-3.3-5.97-6.619-9.264-9.975c-13.297-13.462-26.007-28.618-34.554-45.793
		c-0.364-0.732-0.066-1.62,0.666-1.984c0.609-0.303,1.327-0.144,1.761,0.338c6.322,7.044,12.659,13.887,19.313,20.378
		c6.678,6.485,13.563,12.621,20.66,18.881c3.509,3.19,7.094,6.391,10.616,10.198c1.77,1.901,3.447,4.096,4.959,6.738
		c1.482,2.619,2.735,5.999,2.772,9.68c0.057,3.686-1.123,7.076-2.539,9.772c-1.302,2.517-3.453,5.448-6.078,7.418
		c-5.293,4.164-11.856,5.379-17.567,5.024c-11.655-0.781-21.097-6.607-28.796-13.259c-7.746-6.766-13.675-15.02-18.462-23.64
		c-9.416-17.413-14.063-36.578-15.463-55.59C269.189,506.527,269.797,505.821,270.609,505.761z M220.029,631.86
		c-5.462-8.714-8.756-18.329-10.849-27.964c-3.987-19.39-2.901-39.08,1.246-57.687c0.178-0.794,0.964-1.294,1.759-1.117
		c0.703,0.157,1.174,0.8,1.15,1.495c-0.662,18.774,0.314,37.541,5.42,54.916c2.486,8.664,6.156,16.885,10.962,24.056
		c4.825,7.055,11.276,13.119,18.234,15.615c3.448,1.225,6.86,1.318,9.437,0.23c1.365-0.538,2.28-1.291,3.669-2.556
		c1.179-1.167,1.896-2.235,2.208-3.25c0.725-1.898-0.089-5.495-1.779-9.427c-1.635-3.94-3.805-8.062-5.989-12.225
		c-8.843-16.728-16.638-34.909-19.86-53.82c-0.137-0.805,0.404-1.57,1.21-1.707c0.67-0.114,1.313,0.246,1.59,0.833
		c4.02,8.57,8.11,16.95,12.605,25.087c4.521,8.137,9.341,16,14.329,24.043c2.439,4.068,4.946,8.167,7.219,12.829
		c1.146,2.332,2.117,4.917,2.801,7.883c0.663,2.936,0.886,6.533-0.14,10.068c-1.01,3.545-3.119,6.451-5.253,8.622
		c-1.972,2.034-4.879,4.218-7.961,5.347c-6.27,2.458-12.904,1.726-18.269-0.262C232.836,648.755,225.48,640.452,220.029,631.86z
		 M309.509,748.204c-1.074,2.57-2.423,4.507-3.829,6.339c-1.62,1.912-3.43,3.675-5.482,5.023c-4.044,2.83-8.713,4.275-13.288,4.8
		c-9.247,1.061-18.101-1.991-25.19-6.697c-7.225-4.701-12.486-11.459-16.438-18.48c-7.629-14.368-9.777-30.265-8.945-45.409
		c0.044-0.814,0.74-1.437,1.554-1.393c0.7,0.039,1.26,0.567,1.375,1.229c2.542,14.637,6.607,28.993,14.404,40.497
		c3.841,5.719,8.691,10.562,14.206,13.847c5.493,3.272,11.833,4.819,17.548,4.035c2.818-0.434,5.521-1.306,7.606-2.83
		c1.091-0.708,1.946-1.629,2.758-2.556c0.885-1.122,1.671-2.3,2.052-3.191c0.384-0.937,0.384-1.313,0.332-1.809
		c-0.062-0.503-0.453-1.415-1.259-2.495c-1.552-2.23-4.24-4.747-6.915-7.213c-11.054-9.933-22.185-21.81-28.524-35.829
		c-0.339-0.749-0.009-1.631,0.74-1.971c0.586-0.265,1.254-0.117,1.68,0.316c5.251,5.379,10.517,10.467,16.092,15.168
		c2.782,2.355,5.654,4.591,8.525,6.856c2.886,2.258,5.91,4.372,8.882,6.761c2.987,2.414,6.103,4.728,9.207,8.388
		c1.481,1.863,3.05,4.257,3.781,7.432C311.158,742.194,310.594,745.703,309.509,748.204z M316.554,677.62
		c-7.63-14.368-9.777-30.265-8.946-45.409c0.044-0.814,0.74-1.437,1.554-1.393c0.7,0.039,1.26,0.567,1.375,1.229
		c2.542,14.637,6.607,28.993,14.404,40.497c3.841,5.719,8.691,10.562,14.207,13.847c5.493,3.271,11.833,4.819,17.547,4.035
		c2.818-0.434,5.521-1.306,7.606-2.83c1.091-0.708,1.946-1.629,2.758-2.556c0.885-1.122,1.671-2.3,2.054-3.191
		c0.382-0.937,0.382-1.313,0.331-1.809c-0.062-0.503-0.453-1.415-1.259-2.495c-1.552-2.23-4.24-4.747-6.915-7.213
		c-11.054-9.933-22.185-21.81-28.524-35.829c-0.339-0.749-0.007-1.631,0.742-1.971c0.584-0.265,1.254-0.117,1.68,0.316
		c5.25,5.379,10.516,10.467,16.091,15.168c2.784,2.355,5.654,4.591,8.525,6.856c2.886,2.258,5.91,4.372,8.882,6.761
		c2.987,2.414,6.103,4.728,9.207,8.388c1.481,1.863,3.05,4.257,3.781,7.432c0.778,3.172,0.215,6.681-0.871,9.181
		c-1.074,2.57-2.423,4.507-3.829,6.339c-1.62,1.912-3.428,3.675-5.482,5.023c-4.044,2.83-8.713,4.275-13.288,4.8
		c-9.245,1.061-18.101-1.991-25.19-6.697C325.766,691.399,320.505,684.64,316.554,677.62z M438.705,767.701
		c-0.543,2.446-1.322,4.85-2.509,6.999c-2.26,4.388-5.717,7.843-9.52,10.44c-7.686,5.248-16.943,6.674-25.409,5.815
		c-8.582-0.792-16.387-4.32-23.155-8.689c-13.447-9.157-22.755-22.22-29.078-36.007c-0.339-0.741-0.014-1.616,0.726-1.956
		c0.636-0.292,1.378-0.086,1.789,0.446c9.071,11.765,19.358,22.571,31.617,29.117c6.063,3.269,12.612,5.294,19.023,5.63
		c6.384,0.334,12.715-1.251,17.405-4.608c2.291-1.698,4.276-3.729,5.41-6.049c0.636-1.135,0.962-2.349,1.249-3.547
		c0.261-1.406,0.408-2.814,0.329-3.78c-0.097-1.008-0.272-1.341-0.548-1.755c-0.289-0.416-1.061-1.04-2.277-1.621
		c-2.413-1.249-5.964-2.224-9.48-3.159c-14.409-3.636-29.794-8.956-41.935-18.406c-0.65-0.504-0.768-1.44-0.264-2.089
		c0.395-0.508,1.055-0.688,1.634-0.503c7.152,2.312,14.183,4.36,21.306,5.92c3.56,0.787,7.142,1.427,10.738,2.092
		c3.606,0.653,7.268,1.113,11.01,1.843c3.768,0.744,7.604,1.339,12.055,3.131c2.178,0.958,4.683,2.345,6.808,4.813
		c2.167,2.444,3.304,5.811,3.51,8.528C439.385,763.082,439.094,765.425,438.705,767.701z M620.568,806.092
		c-0.388,0.603-1.15,0.824-1.792,0.567c-16.288-6.612-31.426-16.596-44.205-29.214c-3.138-3.202-6.068-6.622-9.101-9.96
		l-8.113-10.854c-2.344-3.867-4.684-7.759-6.9-11.717c-1.893-4.122-3.967-8.185-5.695-12.393c-1.492-4.297-3.156-8.564-4.313-12.972
		l-1.56-6.667c-0.483-2.23-1.141-4.429-1.342-6.71l-0.885-6.796c-0.281-2.267-0.669-4.528-0.597-6.82l-0.089-6.852
		c-0.007-2.284-0.039-4.565,0.281-6.831c1.438-18.174,7.447-35.89,17.699-50.472c0.474-0.674,1.403-0.836,2.078-0.362
		c0.513,0.36,0.729,0.984,0.596,1.558l-0.004,0.02c-3.972,17.033-6.851,33.436-7.102,49.912c-0.208,2.049-0.072,4.103,0.036,6.153
		l0.185,6.147c-0.021,2.054,0.268,4.084,0.505,6.12l0.702,6.109c0.133,2.055,0.719,4.032,1.124,6.041l1.309,6.015
		c0.975,3.985,2.485,7.821,3.594,11.786c5.489,15.521,14.041,30.035,24.857,42.819c10.801,12.832,23.831,23.923,38.29,33.337
		C620.811,804.497,621.009,805.409,620.568,806.092z M673.73,811.987c-0.504,0.498-1.282,0.553-1.852,0.179
		c-16.3-10.82-29.94-25.834-40.382-42.69c-10.506-16.87-18.022-35.655-22.311-55.202c-4.406-19.52-5.485-39.951-2.593-60.026
		c1.574-10.008,4.467-19.877,8.9-29.024c4.411-9.13,10.286-17.62,17.878-24.275c0.632-0.553,1.591-0.49,2.144,0.141
		c0.365,0.417,0.455,0.994,0.296,1.486c-3.049,9.344-5.711,18.216-7.789,27.159c-2.061,8.932-3.632,17.846-4.719,26.855
		c-2.41,17.994-1.693,36.47,1.358,54.608c3.218,18.117,8.857,35.916,16.986,52.651c8.188,16.695,18.731,32.393,32.098,46.055
		C674.315,810.482,674.31,811.415,673.73,811.987z M712.063,740.769c9.754,23.309,23.974,45.335,41.216,65.022l0.057,0.066
		c0.537,0.612,0.475,1.542-0.138,2.078c-0.513,0.45-1.252,0.478-1.793,0.113c-11.239-7.581-20.908-17.02-29.832-27.231
		c-4.373-5.173-8.541-10.56-12.379-16.212c-3.751-5.701-7.259-11.598-10.415-17.719c-12.666-24.411-18.472-53.192-14.992-81.133
		c0.513-3.464,0.977-6.959,1.697-10.37l2.526-10.136l1.282-5.057l1.79-4.925l3.667-9.802c5.82-12.725,13.244-24.684,22.403-35.153
		c9.238-10.389,20.1-19.133,31.796-26.158c11.77-6.931,24.323-12.311,37.693-14.892c0.796-0.154,1.565,0.367,1.72,1.162
		c0.132,0.685-0.236,1.351-0.848,1.621l-0.115,0.05c-11.855,5.227-23.03,12.072-33.017,20.022
		c-10.079,7.871-18.923,17.016-26.582,26.916c-7.415,10.128-13.221,21.174-17.987,32.63c-4.04,11.711-7.415,23.869-8.873,36.132
		C698.119,692.372,702.452,717.39,712.063,740.769z M1021.367,690.838c-1.724,10.432-13.925,15.679-4.522,27.145
		c6.974,8.498-20.136,12.325-24.081,13.041c-2.201,0.399-10.998,0.546-12.482,2.588c-1.733,2.388,2.964,6.791,4.15,8.676
		c3.105,4.935,5.014,10.17,5.331,16.035c0.185,3.407,0.268,9.342-2.125,12.174c-2.987,3.533-7.448,1.706-11.302,3.256
		c-7.438,2.992-6.471,11.856-12.104,16.13c-7.958,6.04-17.328-2.861-25.197,6.221c-1.749,2.02-2.924,5.711-5.525,6.479
		c-4.017,1.186-10.183-4.018-12.831-6.243c-5.466-4.595-7.977-13.422-13.476-17.356c-5.638-4.035-7.074,2.461-10.06,7.683
		c-3.673,6.423-9.638,13.205-17.399,14.687c-8.972,1.713-9.466-7.689-16.996-9.988c-7.465-2.28-14.292,3.348-19.105-4.375
		c-4.909-7.88-5.879-13.143-16.056-15.098c-5.725-1.1-8.093,0.36-8.852-6.646c-0.369-3.423,0.593-7.073,1.465-10.355
		c1.63-6.138,6.862-12.14,7.918-18.079c1.489-8.379-7.753-5.826-13.639-5.85c-6.646-0.027-13.908-1.397-18.668-6.681
		c-6.544-7.262,3.318-16.552-2.572-25.349c-2.058-3.074-6.012-4.399-6.371-8.526c-0.298-3.409,2.26-6.308,4.007-8.909
		c2.466-3.67,5.516-6.868,5.448-11.586c-0.047-3.274-2.681-5.511-3.242-8.438c-1.621-8.443,8.87-11.791,15.747-13.367
		c5.503-1.261,19.552,1.537,19.964-5.633c0.19-3.303-4.71-7.487-6.075-10.104c-2.052-3.933-3.125-8.236-3.224-12.671
		c-0.074-3.261-0.102-8.99,2.197-11.494c3.185-3.468,7.617-1.649,11.707-3.608c7.674-3.676,5.8-11.94,10.962-16.465
		c5.893-5.165,15.539,1.628,22.251-1.882c8.336-4.36,5.698-14.397,16.841-7.763c4.852,2.888,9.101,7.001,12.545,11.439
		c2.052,2.645,3.975,8.64,6.923,10.084c5.496,2.692,10.349-11.335,13.922-14.891c5.97-5.942,13.355-9.907,20.284-4.619
		c2.807,2.142,4.32,4.824,7.964,6.049c4.389,1.476,8.244-0.328,12.618-0.257c10.381,0.169,9.222,9.526,14.28,15.851
		c5.107,6.385,14.777,1.3,17.72,8.104c3.298,7.625-2.752,19.785-5.691,26.424c-3.669,8.288-3.869,9.784,5.035,9.931
		c7.206,0.119,15.269,0.882,21.538,4.836c8.713,5.494,4.363,9.272,3.188,17.309C1012.434,677.918,1022.682,682.883,1021.367,690.838
		z"/>
	<path d="M964.949,685.194c-2.31,0.509-3.776,2.362-6.43,2.898c-2.802,0.566-6.232-0.051-9.104-0.01
		c-7.76,0.113-15.519,0.226-23.279,0.339c4.687-3.331,28.027-16.833,24.246-23.984c-3.656-6.919-27.885,6.718-32.658,8.896
		c3.102-5.558,6.205-11.116,9.307-16.674c2.137-3.826,4.097-9.864,7.071-13.008c2.512-2.654,6.716-2.639,8.19-6.351
		c1.15-2.901-0.328-6.861-2.76-8.648c-9.792-7.196-10.733,6.406-12.41,11.605c-3.077,9.544-10.591,19.256-15.469,27.995
		c-0.571-5.449-0.931-32.24-9.328-30.862c-7.567,1.241-7.356,28.46-7.861,34.191c-3.256-5.456-6.513-10.912-9.768-16.367
		c-2.351-3.938-6.834-8.916-8.357-13.259c-1.448-4.127,1.045-8.193-2.333-11.674c-2.459-2.535-7.596-3.318-10.414-0.768
		c-5.949,5.381,1.147,11.529,4.797,15.24c7.281,7.398,11.958,18.349,17.265,27.24c-4.787-2.086-27.165-14.223-29.835-6.245
		c-2.459,7.351,20.624,19.944,25.445,23.326c-11.018,0.161-22.565,1.467-33.527,0.909c-6.168-0.314-16.838-8.946-18.935,1.935
		c-0.79,4.092,2.101,8.608,6.324,8.948c3.146,0.254,6.719-2.728,9.91-3.333c10.182-1.93,22.201-0.477,32.546-0.628
		c-4.203,3.099-24.965,15.55-21.151,22.131c3.948,6.815,26.918-6.629,31.819-8.849c-5.343,9.573-9.91,20.609-16.161,29.573
		c-3.305,4.739-14.989,8.392-7.391,16.012c2.961,2.971,8.177,2.939,10.899-0.236c2.422-2.824,1.29-7.448,2.476-10.968
		c3.445-10.232,11.382-20.581,16.638-30.002c0.511,5.008,0.915,31.919,8.512,31.559c7.742-0.367,7.828-25.223,8.406-30.622
		c5.347,8.959,14.285,19.282,17.55,29.156c1.29,3.903-1.153,7.668,2.353,10.853c3.043,2.765,8.339,1.888,10.752-1.216
		c6.371-8.193-5.851-11.753-9.168-17.307c-5.37-8.989-10.463-18.191-15.838-27.196c5.559,2.555,26.993,15.384,32.479,9.797
		c5.785-5.891-17.946-20.567-21.862-23.413c8.998-0.132,18.03-0.561,27.013-0.644c3.543-0.032,5.445,0.199,8.747,1.252
		c3.667,1.169,4.597,4.267,8.986,1.733C982.104,693.052,972.994,683.422,964.949,685.194z"/>
</g>
</svg>
