<?xml version="1.0" encoding="utf-8"?>
<!-- Designed by Vexels.com - 2019 All Rights Reserved - https://vexels.com/terms-and-conditions/  -->
<svg version="1.1" id="Layer_1" xmlns="http://www.w3.org/2000/svg" xmlns:xlink="http://www.w3.org/1999/xlink" x="0px" y="0px"
	 viewBox="0 0 1200 1200" enable-background="new 0 0 1200 1200" xml:space="preserve">
<g>
	<path d="M590.63,712.462c-2.468,1.819-9.065,4.245-9.219,7.909c-0.192,4.554,5.688,1.864,7.969,0.785
		c1.583-0.749,6.482-4.761,8.267-3.839c1.791,0.926,0.858,7.86,1.049,9.664c0.248,2.345,0.732,8.047,4.331,6.558
		c2.818-1.166,2.251-8.281,2.371-10.704c0.647-13.03,9.928,5.263,16.112-0.219c4.422-3.92-8.822-8.62-10.157-11.349
		c-2.195-4.488,8.411-6.245,10.367-9.981c4.85-9.261-14.184,1.838-15.386,1.184c-1.874-1.021-0.909-8.158-1.194-10.021
		c-0.656-4.28-3.875-8.465-6.008-2.533c-0.963,2.679,0.689,10.813-1.307,12.465c-2.212,1.831-6.982-2.698-9.766-3.7
		c-5.033-1.812-8.85-0.145-4.299,4.452c2.115,2.136,5.356,2.887,7.322,5.148C593.192,710.705,593.51,709.915,590.63,712.462z"/>
	<path d="M1119.185,1032.613c-5.149-7.953-12.425-14.631-20.707-19.214c-6.873-3.803-12.448-4.08-19.841-5.135
		c-5.76-0.822-7.053-7.345-3.601-12.085c4.524-6.211,13.83-2.061,20.036-2.474c8.419-0.561,11.074-6.992,5.19-12.799
		c-5.916-5.839-14.443-10.916-21.785-14.686c-17.084-8.771-40.299,2.077-56.175,9.534c-1.972-6.747,1.277-10.634,7.053-12.834
		c3.145-1.198,10.537-2.715,7.237-7.44c-2.487-3.56-9.05-2.623-11.617-5.978c-3.526-4.609,5.28-5.853,8.336-6.507
		c7.413-1.587,15.547-3.025,23.157-2.566c3.138,0.189,10.238,2.912,12.988,1.036c6.083-4.15-11.16-15.021-14.059-16.915
		c-12.57-8.215-25.786-11.714-40.757-10.523c-13.154,1.046-27.745,1.949-40.011-3.959c-5.417-2.609-10.011-6.774-12.456-12.352
		c-3.023-6.897,5.084-10.276,7.221-16.622c2.473-7.342-3.865-11.591-10.103-13.799c-1.36-0.481-4.817-0.605-5.739-1.873
		c-1.303-1.79,0.875-5.691,1.585-7.186c1.042-2.197,2.357-4.468,3.856-6.378c1.096-1.396,3.854-2.943,4.444-4.371
		c0.959-2.321,1.037-1.894-2.139-2.873c-4.405-1.358-9.297-0.387-13.753-1.836c-10.737-3.49-3.974-11.312,1.024-16.854
		c1.684-1.867,6.019-5.426,6.04-8.239c0.035-4.627-5.374-3.172-8.65-2.704c-5.078,0.725-9.449,2.185-14.423-0.035
		c-7.123-3.18-7.004-8.531-4.622-14.906c2.176-5.826-0.138-4.874-5.589-3.39c-7.57,2.061-16.081,4.411-22.979-0.93
		c-5.106-3.954-5.165-9.562-4.536-15.446c0.879-8.213-3.732-4.504-8.412-1.258c-9.624,6.675-23.67,18.074-35.448,9.526
		c-6.586-4.78-6.001-9.54-13.592-2.111c-5.82,5.696-11.177,9.579-18.64,12.914c-31.657,14.148-61.708,30.518-88.019,53.386
		c-13.356,11.608-24.934,24.851-36.8,37.93c-6.151,6.78-12.369,13.501-18.825,19.993c-5.979,6.013-12.291,13.479-20.398,16.619
		c-5.253,2.035-16.329,2.052-18.288-4.956c-2.344-8.385,10.619-9.629,15.886-9.683c9.61-0.099,23.217,1.099,16.792-12.474
		c-2.088-4.412-5.239-8.414-8.409-12.094c-3.07-3.563-9.785-7.117-9.166-12.141c0.629-5.11,6.579-12.147,10.204-15.589
		c6.364-6.043,13.023-3.856,19.467,0.765c3.339,2.394,10.718,10.269,14.597,5.879c3.946-4.466,2.448-18.084,1.313-23.111
		c-3.049-13.508-14.756-21-22.789-31.325c-6.893-8.86-10.713-21,1.646-26.607c11.185-5.074,25.598-3.808,37.373-2.67
		c6.498,0.628,10.566,1.229,8.182-6.585c-2.117-6.938-5.338-13.836-10.087-19.355c-5.053-5.872-11.759-10.45-19.101-12.922
		c-7.141-2.405-17.956-2.43-22.809-9.063c-8.176-11.176,9.258-26.184,17.948-30.29c6.482-3.064,11.376-2.457,18.122-1.254
		c5.894,1.051,11.682-0.162,10.514-7.586c-2.241-14.242-20.149-22.387-32.362-24.724c-12.421-2.376-29.038-2.832-33.009-17.653
		c-3.831-14.3,6.087-25.015,18.832-29.091c3.936-1.259,13.381-1.703,15.302-6.013c1.913-4.292-4.161-8.657-7.016-10.752
		c-12.308-9.032-27.128-9.973-41.887-9.718c-13.784,0.238-30.44,1.681-37.835-12.671c-6.59-12.788-0.012-27.2,11.008-34.922
		c4.504-3.156,14.913-5.834,7.779-11.807c-5.496-4.601-13.602-5.897-20.527-5.786c-13.047,0.21-23.338,6.23-34.986,11.018
		c-9.076,3.731-24.347,8.617-28.732-3.923c-2.468-7.058,0.28-14.323,4.003-20.37c1.94-3.15,4.242-6.069,6.566-8.939
		c1.998-2.467,6.407-6.105,6.534-9.411c0.42-10.912-26.19-4.049-31.255-2.491c-14.952,4.601-24.518,14.16-36.374,23.559
		c-7.067,5.602-26.632,15.577-30.462,0.817c-2.515-9.694,6.133-20.08,9.005-28.775c3.974-12.03-4.441-11.756-12.681-7.08
		c-11.856,6.729-20.501,17.496-28.781,28.066c-4.496,5.74-9.067,13.122-14.932,17.583c-5.736,4.363-13.426,2.387-19.124-1.181
		c-5.806-3.635-9.067-9.949-7.573-16.834c0.751-3.462,6.111-11.567,0.443-13.397c-6.857-2.214-16.567,12.208-19.842,16.689
		c-4.621,6.321-8.278,13.261-11.337,20.454c-2.558,6.017-4.321,12.894-8.491,18.076c-9.66,12.002-21.505-0.608-22.335-12.1
		c-0.232-3.206,2.383-10.702-2.646-11.023c-4.615-0.295-9.202,8.928-10.953,12.338c-5.736,11.174-5.54,34.193-19.491,39.15
		c-11.018,3.915-16.704-9.373-19.017-17.742c-0.627-2.27-1.058-12.03-3.194-12.769c-4.149-1.436-11.557,14.693-13.199,17.438
		c-4.927,8.238-9.738,17.577-17.139,23.893c-9.418,8.037-17.484,0.606-17.19-10.45c0.144-5.416,2.383-9.937,3.486-15.073
		c1.39-6.477-4.535-3.335-8.285-1.5c-10.131,4.959-24.998,22.304-37.535,18.333c-16.955-5.37,7.498-23.688,5.783-31.359
		c-2.111-9.437-38.805-5.293-28.09-22.221c4.083-6.451,10.287-7.555,16.932-5.726c6.666,1.835,5.195-3.429,3.098-8.207
		c-2.218-5.055-7.502-8.059-9.465-12.867c-2.495-6.112,2.642-14.609,9.26-15.205c7.743-0.697,22.779,10.828,17.171-5.316
		c-1.071-3.083-5.712-9.332-5.256-12.564c0.912-6.461,13.543-11.106,18.814-9.244c6.466,2.284,18.355,22.119,21.176,5.917
		c0.906-5.205,0.454-9.982,4.84-13.83c6.24-5.475,14.351-1.958,18.776,3.951c2.563,3.422,5.78,14.842,10.987,13.864
		c4.216-0.792,7.757-12.259,10.389-15.374c4.321-5.113,9.859-5.764,15.018-1.322c3.295,2.837,8.135,13.324,12.98,12.989
		c5.887-0.408,9.506-12.839,12.172-16.859c4.745-7.153,10.732-10.31,18.743-5.936c4.681,2.555,10.065,11.133,14.868,5.067
		c4.187-5.289,4.083-12.322,10.116-16.693c6.367-4.612,13.456-2.329,19.229,1.84c2.059,1.487,4.584,4.864,7.27,3.314
		c2.042-1.179,1.899-6.47,2.003-8.495c0.294-5.755-1.144-11.536,2.434-16.585c4.214-5.946,12.968-10.445,19.504-5.926
		c2.766,1.912,6.093,7.803,8.126,2.578c1.373-3.529-0.386-9.735-1.212-13.281c-1.292-5.544-4.405-12.548-2.03-18.237
		c3.409-8.165,7.56-3.964,12.375-0.88c10.615,6.797,5.985-11.81,3.861-16.289c-3.26-6.873-7.005-13.881-6.325-21.773
		c0.221-2.565,0.567-6.092,3.87-6.432c2.582-0.266,5.565,3.659,8.005,0.907c2.193-2.473-1.543-8.81-2.57-11.125
		c-3.29-7.41-6.874-14.544-8.929-22.428c-3.5-13.428-4.593-28.831-13.782-39.947c3.227,2.011,14.095,9.156,13.643,0.63
		c-0.228-4.306-5.12-6.264-6.76-9.78c-1.792-3.842,0.247-8.845,3.855-11.165c6.34-4.077,14.096,1.038,19.873-5.537
		c2.559-2.912,3.208-4.88-0.887-5.598c-4.487-0.786-7.829-0.074-11.531-3.84c5.894,0.01,18.6-0.587,21.344-7.461
		c1.517-3.8-1.584-3.193-4.565-3.068c-3.642,0.153-6.609,0.111-10.183-1.085c-8.446-2.827-14.888-9.388-21.049-15.508
		c-7.25-7.202-14.793-14.056-23.752-19.096c13.299-2.511,26.701-4.953,40.232-5.605c7.232-0.349,20.962,0.379,26.428-5.464
		c7.284-7.786-8.284-11.689-13.327-12.531c-13.353-2.229-27.103-3.236-40.584-4.252c2.833-4.421,3.333-10.218,2.12-15.246
		c-0.674-2.792-3.646-10.988-7.688-10.089c-2.749,0.611-3.704,6.742-4.836,8.828c-2.213,4.078-5.697,7.306-9.709,9.567
		c-15.427,8.695-37.247,3.673-50.005,17.613c-0.616-7.897-7.107-10.082-11.949-14.999c-4.708-4.781-5.064-9.045-12.693-9.146
		c-4.457-0.059-8.478,1.242-7.223-4.86c0.719-3.495,5.724-9.026,1.63-11.501c-5.066-3.063-14.659,4.857-18.209,7.578
		c-4.835,3.706-10.214,10.484-15.914,5.18c-2.544-2.367-2.736-3.475-6.286-4.152c-2.463-0.47-3.328-0.066-5.517-1.929
		c-3.631-3.091-6.148-8.748-11.721-5.035c-1.034-2.489-2.846-4.856-5.387-5.906c-3.067-1.268-4.89,0.358-7.796,0.289
		c-2.914-0.07-9.441-1.974-10.764-4.767c-1.83-3.865,1-9.53-0.131-13.754c-1.602-5.982-7.578-8.746-12.962-5.295
		c-2.053,1.316-2.981,4.503-5.019,5.514c-2.506,1.244-4.153-0.538-6.654-1.033c-5.951-1.179-9.909,1.726-13.4,6.154
		c-3.463,4.394-9.165,8.83-10.393,14.476c-1.482,6.817,3.197,12.327,8.662,15.758c-4.011,4.522-14.155,16.505-6.287,22.17
		c5.797,4.174,14.106-3.819,17.525-7.929c-1.693,7.199,5.872,10.456,11.217,6.326c-1.462,5.529,5.39,10.819,9.386,5.588
		c-1.161,4.311,0.739,8.83,5.297,9.96c-1.351,2.598-5.569,9.018-2.817,12.025c2.582,2.821,6.134-0.404,8.474-2.086
		c4.301-3.091,3.474-3.105,6.891,0.916c2.983,3.512,5.511,3.375,9.624,1.249c-1.36,5.361,0.702,8.59,6.124,7.5
		c2.585-0.52,3.362-2.334,5.432,0.702c1.197,1.755,1.167,4.1-0.403,5.409c-2.744,2.287-10.39-0.14-13.49-0.774
		c-6.207-1.27-2.937-1.62-4.967-5.959c-2.731-5.835-6.908-0.408-9.337,2.154c-4.179,4.41-9.548,4.567-15.441,5.077
		c-5.761,0.499-25.472,2.153-29.038-4.706c-1.675-3.222,1.954-10.267-4.216-10.172c-5.263,0.081-5.362,6.033-10.77,1.915
		c-9.57-7.286-8.639-20.944-16.827-29.137c-2.017-2.018-5.778-5.773-8.946-5.567c-6.21,0.404-1.993,5.336,0.121,7.578
		c4.498,4.773,5.878,10.232,6.259,16.703c0.184,3.131,0.115,6.274,0.55,9.387c0.307,2.193,2.869,6.945,1.933,8.968
		c-0.618,1.335-3.812,0.837-4.624,3.319c-0.904,2.763,1.536,3.919,1.899,6.491c0.41,2.905-1.295,6.705-1.652,9.612
		c-0.548,4.459-0.83,8.971-0.564,13.461c0.246,4.153,1.108,8.196,0.943,12.375c-0.15,3.777-1.221,7.505-1.253,11.277
		c-0.061,7.076,3.885,12.816,8.805,17.569c1.155-7.533,7.162-14.245,13.065-18.739c7.208-5.487,10.175,1.147,12.227,7.861
		c2.581-3.966,5.401-8.065,9.238-10.93c5.137-3.837,11.378-4.094,17.484-5.177c13.26-2.353,26.496-5.691,39.974-3.153
		c4.86,0.916,9.798,1.639,14.631,2.679c6.072,1.307,8.822,3.15,12.912,7.533c7.013,7.516,18.84,11.916,27.757,16.919
		c18.434,10.344,39.394,22.576,44.437,44.697c4.474,19.623-2.058,38.351-20.313,47.809c-18.053,9.354-39.982,10.07-59.836,10.555
		c-24.361,0.596-48.645,0.435-72.676,5.087c-22.015,4.262-43.467,12.189-61.702,25.445c-17.842,12.97-31.976,30.731-42.712,49.877
		c-21.448,38.249-30.377,84.735-22.215,128.016c7.548,40.02,31.643,75.236,65.718,97.406
		c39.787,25.886,88.882,31.498,134.953,23.283c51.429-9.17,94.441-35.609,138.754-61.661c10.664-6.269,21.991-12.073,34.58-12.71
		c12.152-0.615,24.254,3.064,35.121,8.236c20.621,9.814,38.365,25.426,51.445,44.071c29.099,41.48,34.54,93.633,28.861,142.797
		c-6.158,53.307-24.837,105.069-13.694,159.174c4.499,21.846,14.121,43.579,32.53,57.165c18.115,13.368,44.181,14.045,65.627,10.528
		c21.688-3.557,42.135-12.965,59.663-26.116c19.821-14.872,34.17-34.34,48.542-54.243c15.311-21.203,32.076-41.281,50.159-60.174
		c15.065-15.739,31.774-32.129,52.71-39.608c22.407-8.005,40.292,3.278,53.16,21.543c13.4,19.019,25.359,44.493,27.774,67.868
		c2.117,20.493-15.979,35.863-18.353,55.462c-1.216,10.045,3.788,15.259,9.303,22.826c2.314,3.174,4.283,6.574,4.301,10.616
		c0.023,5.201-3.355,9.585-3.559,14.773c-0.277,7.048,2.653,15.477,9.299,7.719c5.792-6.761,2.832-16.337,12.415-19.679
		c4.421-1.542,7.13-2.156,9.78-6.082c1.123-1.665,2.849-7.185,5.521-6.814c6.213,0.863-1.64,17.155,6.481,17.083
		c6.688-0.059,6.833-11.965,6.745-16.332c-0.061-3.022-0.459-7.634,2.052-9.916c3.393-3.084,6.024-0.133,7.474,3.009
		c4.5,9.751,11.489,18.428,9.269,29.766c-1.688,8.618-7.582,16.782-5.249,25.938c0.966,3.791,3.229,6.641,6.842,8.202
		c3.776,1.631,9.071-0.349,11.989,2.17c3.34,2.883,4.009,7.309,8.966,8.977c3.153,1.061,4.505-0.163,7.447-0.528
		c2.509-0.311,3.858,0.553,6.27,1.277c2.831,0.85,7.676,2.369,10.084-0.179c3.764-3.984-1.912-8.568-4.622-10.905
		c-6.922-5.968-9.144-12.488-10.456-21.407c-0.493-3.349-1.534-8.75,0.694-11.738c3.129-4.196,6.713-0.26,8.752,2.799
		c4.529,6.796,6.22,15.741,12.721,21.162c3.677,3.066,7.681,3.114,12.032,4.425c4.878,1.47,6.707,4.555,8.473,9.112
		c2.395,6.181,7.379,11.543,11.297,3.391c2.135-4.442,3.158-10.356,3.07-15.285c-0.194-10.911-8.189-20.879-4.723-31.986
		c12.35,8.153,26.777,12.787,41.587,10.579c3.837-0.572,7.689-1.355,11.589-1.217c3.671,0.13,6.604,1.809,10.032,2.424
		c5.68,1.019,6.135-4.669,8.654-8.69c3.402-5.429,6.571-2.768,11.753-3.683c5.215-0.921,2.989-6.335,0.551-9.819
		C1141.662,1034.351,1128.676,1030.5,1119.185,1032.613z M327.872,257.623c-14.982-2.526-26.957-11.168-35.219-23.756
		c-4.37-6.658-7.209-13.942-10.561-21.112c-1.059-2.265-6.531-14.89-0.428-8.502c5.365,5.615,8.158,14.77,12.521,21.331
		c4.426,6.656,9.606,13.082,16.288,17.601c13.79,9.327,33.556,7.46,47.725-0.277c10.482-5.724,19.057-19.722,9.578-30.241
		c-4.256-4.722-10.614-7.224-16.945-6.267c-7.186,1.085-16.125,9.731-8.427,16.576c1.249,1.111,7.295,2.17,7.442,4.23
		c0.242,3.385-7.032,2.12-8.488,1.631c-6.811-2.289-10.772-9.514-9.341-16.493c2.99-14.581,22.981-18.124,34.45-12.28
		c13.957,7.111,19.206,25.013,10.944,38.381C367.592,254.332,344.996,258.225,327.872,257.623z M71.416,503.519
		c4.572-14.623,19.504-27.016,35.357-25.022c15.15,1.906,24,17.342,22.772,31.714c-0.71,8.302-3.583,5.904-6.648,0.526
		c-3.598-6.314-7.46-13.689-14.433-16.82c-8.292-3.722-17.756,0.471-25.027,4.63C82.845,498.886,70.132,507.712,71.416,503.519z
		 M68.518,555.199c-1.72,2.53-2.148-1.89-2.272-2.961c-0.375-3.248,0.442-6.603,1.374-9.686c2.474-8.184,7.729-15.851,15.157-20.268
		c14.487-8.615,31.554-0.888,38.335,13.63c1.11,2.377,5.238,10.775,1.075,11.709c-2.339,0.525-6-4.159-7.335-5.427
		c-2.86-2.717-5.871-5.154-9.41-6.975C89.174,526.851,76.627,543.157,68.518,555.199z M89.367,585.539
		c-0.647,1.879-2.701,19.59-4.509,19.766c-3.558,0.347-4.281-10.728-4.523-12.834c-1.599-13.917,4.626-30.019,19.343-34.005
		c9.438-2.556,19.157,1.199,26.416,7.239c1.454,1.21,5.865,4.367,5.904,6.337c0.081,4.108-4.367,1.295-6.574,0.519
		C110.523,567.324,95.054,568.787,89.367,585.539z M119.336,609.122c-4.165,8.023-2.37,17.927,0.135,26.172
		c0.855,2.814,4.445,9.89-0.255,8.758c-6.232-1.501-10.922-14.435-12.099-19.67c-1.84-8.188-0.88-17.37,4.417-24.14
		c5.036-6.435,12.811-9.313,20.76-9.602c3.371-0.123,16.646-0.526,17.91,4.167c1.089,4.041-9.773,3.613-12.316,3.91
		C130.743,599.548,122.81,602.258,119.336,609.122z M180.585,615.118c-12.189,3.495-28.123,8.481-28.043,23.832
		c0.047,9.016,4.807,16.665,9.556,23.895c5.141,7.826-1.93,4.464-5.766,1.194c-12.335-10.513-20.061-30.727-6.966-43.894
		c6.115-6.149,16.012-9.336,24.604-8.394C175.255,611.892,184.175,614.073,180.585,615.118z M216.904,625.53
		c-11.549,4.225-27.052,10.474-26.065,25.315c0.567,8.528,5.584,16.6,11.091,22.859c1.06,1.205,4.863,3.971,3.32,5.936
		c-1.342,1.71-5.227-1.516-6.429-2.321c-13.122-8.783-23.541-27.089-13.422-41.966c4.415-6.491,11.889-10.339,19.455-11.78
		c3.115-0.594,6.454-1.072,9.591-0.384C215.482,623.418,219.913,624.408,216.904,625.53z M639.92,823.2
		c-2.947,0.564-8.959-12.604-10.061-14.572c-3.443-6.147-6.92-12.16-12.241-16.955c-9.664-8.709-20.349-5.605-30.026,1.266
		c-2.344,1.664-6.056,6.43-8.939,6.967c-4.87,0.907-2.082-3.212-0.617-5.596c11.729-19.093,34.831-24.334,49.394-5.261
		C629.263,791.45,645.488,822.133,639.92,823.2z M495.821,572.206c-8.119,2.348-16.704,6.04-18.751,15.072
		c-1.045,4.612-0.128,9.483,0.829,14.029c0.385,1.828,1.844,5.192,1.354,7.057c-1.601,6.101-9.298-8.334-10.243-10.924
		c-2.896-7.937-1.976-16.627,3.747-23.034c8.441-9.451,23.584-11.528,35.64-10.235c3.933,0.422,8.514,1.807,3.1,4.382
		C506.696,570.836,500.865,570.698,495.821,572.206z M514.189,609.387c-1.163,5.339,2.525,12.767,0.295,17.733
		c-2.677,5.962-6.005-3.638-6.956-6.563c-4.827-14.842,0.964-28.087,16.259-33.277c9.719-3.298,20.477-2.574,30.387-0.605
		c2.356,0.468,9.856,1.261,5.176,4.518c-1.998,1.391-6.694,0.163-9.129,0.237C537.467,591.817,517.147,593.929,514.189,609.387z
		 M546.481,649.15c-0.631,3.009-1.7,15.501-5.327,9.552c-5.058-8.297-1.808-24.302,3.621-31.557
		c10.783-14.41,31.569-9.626,45.502-3.326c2.048,0.926,16.544,6.705,15.175,9.977c-1.016,2.429-15.325-2.781-17.088-3.307
		c-7.653-2.283-15.522-4.706-23.631-3.705C552.52,628.289,548.925,638.605,546.481,649.15z M553.678,713.351
		c-2.128-3.178-2.176-3.983-0.902-7.353c0.791-2.092,1.495-3.088,1.539-5.378c0.03-1.567-1.077-3.116-0.695-4.724
		c1.965-8.254,12.526-0.771,15.306-6.297c2.72-5.407-9.015-10.724-1.231-16.894c1.413-1.12,3.431-0.402,4.944-1.642
		c1.215-0.996,1.046-2.685,1.933-3.864c3.164-4.207,5.605-1.228,9.688-2.78c2.748-1.044,3.556-4.355,6.623-4.641
		c3.125-0.292,6.185,3.661,7.815,5.814c1.997,2.636,2.31,5.438,6.045,3.174c3.502-2.123,2.864-8.174,8.328-8.176
		c3.179-0.001,6.286,3,9.774,3.315c5.741,0.518,5.205,1.333,8.169,5.626c2.169,3.141,5.073,1.851,7.553,3.969
		c3.061,2.613,1.043,6.109-0.148,9.088c-0.79,1.975-2.847,4.925-1.402,7.062c1.878,2.778,7.421,0.881,10.121,1.952
		c4.911,1.947,2.977,4.43,3.114,8.261c0.163,4.56,4.149,6.908,2.818,11.608c-1.081,3.816-2.664,4.232-2.148,8.458
		c0.434,3.551,1.66,4.294-2.405,5.933c-3.017,1.217-6.603,0.641-9.576,1.768c-4.6,1.743-2.164,2.696-0.498,6.823
		c1.375,3.408,2.575,7.799-0.632,10.508c-2.407,2.034-5.015,1.931-7.282,4.622c-2.776,3.295-2.716,3.909-7.36,4.793
		c-3.146,0.598-5.567,3.296-8.446,3.737c-4.754,0.729-6.288-4.68-8.89-7.519c-5.721-6.242-6.721,2.953-10.747,6.027
		c-3.884,2.965-5.394,0.794-8.5-1.291c-3.079-2.067-6.234-1.22-9.31-2.697c-1.614-0.775-2.208-2.382-3.309-3.622
		c-1.863-2.097-2.421-2.116-4.861-3.25c-3.028-1.407-4.572-1.547-4.294-5.426c0.297-4.138,6.823-9.469,2.181-12.753
		c-3.005-2.126-7.71,0.656-10.885-1.811C551.585,722.256,556.374,717.378,553.678,713.351z M617.353,910.826
		c-3.251,0.318-7.141-11.589-8.155-13.822c-2.862-6.303-6.536-12.788-11.74-17.459c-7.582-6.804-17.327-6.19-25.922-1.501
		c-1.381,0.753-5.685,4.672-7.418,3.944c-3.498-1.47,1.76-6.629,3.017-7.971c13.716-14.645,33.434-9.333,42.828,6.925
		C611.432,883.483,622.358,910.337,617.353,910.826z M630.283,862.32c-3.558,0.683-8.95-9.556-10.605-11.916
		c-4.301-6.135-9.583-12.655-16.352-16.133c-9.115-4.683-17.876-0.752-25.555,4.825c-8.624,6.263-5.303-2.537-1.736-7.458
		c11.067-15.272,30.703-13.274,42.182,0.267C620.032,834.047,635.943,861.234,630.283,862.32z"/>
</g>
</svg>
