<?xml version="1.0" encoding="utf-8"?>
<!-- Designed by Vexels.com - 2019 All Rights Reserved - https://vexels.com/terms-and-conditions/  -->
<svg version="1.1" id="Layer_1" xmlns="http://www.w3.org/2000/svg" xmlns:xlink="http://www.w3.org/1999/xlink" x="0px" y="0px"
	 viewBox="0 0 1200 1200" enable-background="new 0 0 1200 1200" xml:space="preserve">
<g>
	<path d="M886.846,704.948c-2.292,0.505-3.748,2.344-6.381,2.876c-2.78,0.561-6.185-0.051-9.034-0.009
		c-7.7,0.112-15.401,0.224-23.101,0.336c4.65-3.306,27.813-16.705,24.062-23.802c-3.63-6.867-27.673,6.667-32.412,8.829
		c3.08-5.516,6.158-11.032,9.238-16.548c2.119-3.797,4.065-9.789,7.018-12.909c2.493-2.634,6.664-2.619,8.126-6.303
		c1.141-2.879-0.325-6.809-2.739-8.583c-9.718-7.142-10.652,6.357-12.316,11.517c-3.054,9.471-10.511,19.11-15.352,27.783
		c-0.567-5.408-0.924-31.996-9.258-30.628c-7.508,1.232-7.301,28.244-7.799,33.931c-3.232-5.415-6.464-10.829-9.695-16.243
		c-2.334-3.908-6.782-8.849-8.294-13.158c-1.437-4.096,1.037-8.132-2.314-11.585c-2.442-2.515-7.538-3.293-10.336-0.762
		c-5.902,5.34,1.138,11.442,4.762,15.124c7.224,7.342,11.865,18.21,17.132,27.034c-4.751-2.07-26.958-14.115-29.608-6.197
		c-2.442,7.295,20.468,19.793,25.25,23.149c-10.933,0.16-22.392,1.455-33.271,0.902c-6.122-0.311-16.71-8.878-18.792,1.92
		c-0.783,4.061,2.085,8.543,6.276,8.88c3.122,0.252,6.668-2.708,9.835-3.308c10.106-1.915,22.033-0.474,32.299-0.623
		c-4.171,3.076-24.774,15.432-20.991,21.963c3.918,6.763,26.714-6.579,31.579-8.782c-5.304,9.501-9.835,20.453-16.04,29.349
		c-3.28,4.703-14.876,8.328-7.335,15.891c2.94,2.949,8.116,2.917,10.818-0.234c2.403-2.803,1.279-7.392,2.456-10.885
		c3.421-10.154,11.296-20.425,16.513-29.774c0.506,4.97,0.907,31.677,8.448,31.319c7.683-0.365,7.768-25.032,8.341-30.39
		c5.307,8.89,14.176,19.136,17.417,28.935c1.28,3.873-1.143,7.61,2.336,10.771c3.019,2.744,8.276,1.874,10.67-1.207
		c6.321-8.131-5.807-11.664-9.1-17.176c-5.328-8.921-10.383-18.053-15.718-26.99c5.517,2.535,26.789,15.267,32.234,9.723
		c5.74-5.846-17.812-20.411-21.697-23.236c8.931-0.131,17.893-0.557,26.809-0.639c3.515-0.032,5.402,0.197,8.681,1.242
		c3.64,1.16,4.561,4.234,8.918,1.72C903.872,712.747,894.83,703.19,886.846,704.948z"/>
	<path d="M1127.008,189.941c-1.127-13.52-21.407-22.534-21.407-22.534c5.634-46.382-10.891-43.002-15.397-47.508
		c-4.507-4.507,3.004-17.276-4.507-17.276s-15.774,7.511-15.774-2.253c0-9.764-5.258-30.796-8.263-27.04
		c-3.004,3.755,0,31.547-9.013,29.294c-9.013-2.253-3.755-11.267,2.254-24.036c6.009-12.769-6.009-21.031-6.761-10.516
		c-0.752,10.516-11.267,23.285-16.524,20.28c-5.258-3.004-11.267-39.809-16.526-38.307c-5.257,1.502,0,20.28-0.75,28.542
		c-0.752,8.262-16.526,1.502-23.285-9.764c-6.761-11.267-33.05-27.04-24.787-13.52c8.261,13.52,12.018,21.031,4.507,24.787
		c-7.511,3.755-21.783-9.765-26.289-8.262c-4.507,1.502,7.511,14.271,7.511,14.271c-12.769,0-10.515,10.516-10.515,10.516
		c-9.765,9.013-0.752,16.525-0.752,16.525c-3.004,20.28,45.819,25.538,45.819,25.538c-58.589,33.8-65.348,60.841-103.654,96.895
		c-38.308,36.054-37.556,65.348-37.556,65.348c-36.806,51.076-64.597,140.46-79.619,174.26
		c-15.022,33.8-38.307,39.809-47.321,47.321c-9.013,7.511-30.796,21.031-30.796,21.031c-9.013-25.538-48.822-47.321-48.822-47.321
		s-14.272-23.285-24.787-39.809c-10.515-16.525-18.778-51.076-18.028-70.605c0.752-19.529-22.533-60.841-27.791-49.574
		c-5.257,11.267-7.511,40.561-7.511,40.561c-18.026-26.289-21.031-6.009-21.031-6.009l-48.072-32.298
		c-18.778-40.561-36.054-33.049-36.054-33.049c-17.276-22.533-48.823-35.303-124.687-54.832s-105.157,6.76-113.419,19.529
		c-8.263,12.769,4.507,0.751,21.783,11.267s89.384,33.049,89.384,33.049c-96.145,12.769-189.284,99.899-225.337,155.482
		c-36.054,55.583-33.802,114.921-24.787,134.451c9.013,19.529,17.276-5.258,19.529-30.045c2.254-24.787,26.289-56.334,26.289-56.334
		c-18.778,39.809-18.026,123.184-5.257,151.726c12.768,28.543,30.044,57.836,25.537,10.516
		c-14.272-150.224,92.389-219.327,92.389-219.327c24.787,6.009,6.759,16.525,21.031,39.058c14.272,22.534-1.502,10.516,1.502,22.534
		c3.004,12.018-2.253,33.049-2.253,33.049c-18.778,36.054-13.521,90.886-10.517,80.37c3.004-10.516,21.032-34.552,21.032-34.552
		c0.75,16.525,19.529,26.289,19.529,26.289c-8.263,9.764-3.755,19.529-2.253,36.805c1.502,17.276,3.755,74.361,14.27,72.859
		c10.517-1.502,15.774-36.805,15.774-36.805l11.267,15.022c2.254,22.534,14.272,30.045,14.272,30.045s-8.263,17.276,3.755,32.298
		c12.019,15.022,29.295-7.511,29.295-7.511c8.261,39.058,44.316-9.013,44.316-9.013s-15.774,40.561-1.502,48.823
		c14.272,8.262,24.787-5.258,24.787-5.258c6.009,6.76,15.022,8.262,15.022,8.262s3.756,9.013,15.774,12.018
		c12.018,3.004,22.534-9.765,22.534-9.765s-0.752,16.525,12.768,24.036c13.521,7.511,30.797-6.76,30.797-6.76
		c-3.756,20.28,57.835,9.014,57.835,9.014c-1.502,12.769,3.756,81.872,30.045,84.877c26.289,3.005,22.533-47.321,39.809-28.543
		c17.276,18.778,67.602,53.33,78.867,51.827c11.267-1.502,23.285-6.76,23.285-6.76c-1.501,38.307,15.774,44.316,15.774,44.316
		c-6.009,18.027-16.524,57.085-30.044,72.107c-13.521,15.023-33.05,4.507-42.063,7.511c-9.013,3.005,6.009,15.774,12.769,16.525
		c6.759,0.751,24.035,5.258,25.537,17.276c1.502,12.018-7.511,31.547,5.258,32.298c12.768,0.751,16.524-11.267,16.524-11.267
		c30.796,30.796,46.57,22.534,46.57,22.534c10.515,5.258,46.57,8.262,39.809,2.253c-6.759-6.009-31.546-17.276-31.546-17.276
		c19.529-7.511,15.022,0.751,42.063,1.502c27.04,0.751,63.846,10.516,70.605,6.009c6.761-4.507,0-6.76-36.805-18.027
		c-36.805-11.267-55.583-24.787-59.339-28.543c-3.755-3.755-16.524-77.365-16.524-87.881c0-10.516,13.52-45.818,13.52-45.818
		c25.539-32.298,53.33-36.054,53.33-36.054c15.022,15.774,11.642-6.76,29.669-15.774c18.028-9.013,79.994-60.841,91.262-75.488
		c11.267-14.647,75.488-127.315,75.488-127.315c5.634,15.773,4.507,23.66,19.153-25.914c14.647-49.574,3.38-112.668-9.013-137.455
		c-12.394-24.787-1.502-97.27,1.502-142.337s-47.697-123.559-47.697-123.559s10.703,5.07,10.703,1.127
		c0-3.943-12.393-15.21-12.393-15.21c49.574-2.253,29.294-67.037,29.294-67.037C1125.318,186.561,1128.135,203.461,1127.008,189.941
		z M564.371,751.073c0.007,0.804-0.64,1.462-1.444,1.468c-0.77,0.007-1.407-0.604-1.465-1.36c-1.04-15.844-1.58-31.648-2.308-47.409
		c-0.776-15.755-1.842-31.471-3.675-47.05c-1.792-15.579-4.416-31.013-8.07-46.073c-1.873-7.519-4.138-14.896-6.736-22.106
		c-2.726-7.152-5.844-14.1-9.513-20.665c-7.45-12.972-17.317-24.483-30.035-31.186c-3.087-1.86-6.431-3.023-9.812-4.406
		c-3.613-1.231-7.23-2.433-10.903-3.447c-7.333-2.052-14.762-3.724-22.249-4.901c-14.965-2.231-30.223-2.576-44.773,0.025
		c-14.476,2.62-28.257,8.393-38.378,17.908c-10.19,9.453-15.988,22.697-17.465,36.933c-1.319,14.198,0.692,29.563,5.351,43.183
		c4.654,13.684,12.9,25.842,24.238,34.078c11.291,8.214,25.452,12.489,39.583,11.997c14.07-0.589,28.111-5.961,37.836-15.779
		c4.821-4.919,8.49-10.903,10.626-17.521c2.204-6.713,2.942-13.771,1.725-20.451c-2.356-13.444-13.965-24.615-27.895-29.07
		c-6.937-2.121-14.54-3.04-21.454-1.126c-3.409,0.98-6.583,2.681-8.926,5.264c-2.361,2.566-3.776,6.007-4.244,9.704l-0.003,0.023
		c-0.101,0.798-0.83,1.364-1.629,1.262c-0.74-0.094-1.28-0.728-1.275-1.456c0.031-4.181,1.182-8.591,3.803-12.212
		c2.575-3.655,6.417-6.271,10.468-7.834c8.196-3.101,17.046-2.939,25.309-1.062c8.254,2.018,16.182,5.818,22.803,11.594
		c6.582,5.762,11.664,13.688,13.852,22.468c2.183,8.787,1.791,18.001-0.608,26.393c-2.321,8.552-6.748,16.615-12.708,23.253
		c-5.929,6.693-13.413,11.828-21.454,15.379c-8.052,3.564-16.692,5.62-25.421,6.222c-8.733,0.57-17.562-0.356-26.032-2.7
		c-8.457-2.391-16.514-6.278-23.684-11.404c-14.398-10.264-24.832-25.449-30.301-41.655c-2.693-8.112-4.681-16.451-5.57-24.774
		c-0.959-8.356-1.292-16.903-0.348-25.514c0.988-8.592,3.191-17.228,6.985-25.28c3.766-8.053,9.145-15.434,15.663-21.478
		c6.493-6.097,14.114-10.732,22.031-14.178c7.939-3.448,16.221-5.712,24.538-7.102c16.675-2.7,33.433-1.988,49.663,0.688
		c8.119,1.376,16.101,3.366,23.923,5.801c3.92,1.196,7.771,2.584,11.605,4.007c3.894,1.676,7.998,3.289,11.654,5.595
		c7.454,4.352,14.284,9.831,19.837,16.271c5.617,6.384,10.297,13.408,14.235,20.721c3.79,7.385,6.874,15.012,9.499,22.737
		c2.487,7.761,4.579,15.597,6.245,23.489c3.32,15.785,5.176,31.729,6.185,47.638c1.066,15.913,1.343,31.807,1.327,47.661
		C565.032,719.487,564.375,735.311,564.371,751.073z M720.652,880.925c-16.021,0.546-32.133-4.929-45.282-14.292
		c-13.267-9.31-23.911-21.965-32.011-35.858c-8.185-13.898-14.017-29.067-17.897-44.647c-3.785-15.606-5.894-31.588-6.378-47.59
		c-0.357-8.005-0.124-16.007,0.269-23.994l0.9-11.907c0.345-3.811,0.615-7.628,0.843-11.449c0.831-15.289,0.78-30.64-0.271-45.907
		c-1.963-30.513-7.363-60.877-17.438-89.455c-10.028-28.491-24.66-55.467-45.377-76.695c-20.67-21.168-47.226-35.977-76.265-42.28
		c-14.436-3.485-29.466-4.797-44.541-4.816c-15.1-0.12-30.303,1.385-45.415,3.8c-30.295,4.757-60.119,13.606-89.68,23.684
		c-0.762,0.265-1.593-0.137-1.857-0.899c-0.24-0.688,0.075-1.438,0.698-1.771c27.769-14.633,57.285-26.453,88.33-33.798
		c15.531-3.566,31.431-6.028,47.571-6.81c16.128-0.552,32.486,0.281,48.572,3.558c8.035,1.61,15.967,3.887,23.711,6.702
		c7.765,2.759,15.325,6.162,22.573,10.135c14.607,7.797,27.663,18.274,39.159,30.011c22.853,23.796,38.626,53.131,48.832,83.586
		c10.166,30.574,15.31,62.404,16.715,94.226c0.648,15.925,0.259,31.87-1.05,47.742c-0.347,3.967-0.739,7.931-1.208,11.888
		l-1.192,11.427c-0.557,7.598-1.045,15.214-1.029,22.828c-0.142,15.233,1.268,30.45,4.259,45.342
		c1.6,7.418,3.55,14.755,5.938,21.953c2.461,7.167,5.418,14.157,8.909,20.869c6.989,13.381,16.219,25.746,28.024,35.193
		c11.762,9.37,26.244,15.717,41.591,16.316c0.804,0.027,1.433,0.701,1.406,1.505C722.032,880.286,721.405,880.894,720.652,880.925z
		 M942.836,710.55c-1.71,10.354-13.818,15.56-4.488,26.939c6.921,8.433-19.983,12.232-23.897,12.942
		c-2.184,0.396-10.916,0.542-12.387,2.568c-1.721,2.37,2.94,6.739,4.119,8.61c3.08,4.898,4.974,10.093,5.29,15.914
		c0.185,3.381,0.267,9.271-2.109,12.081c-2.965,3.506-7.39,1.693-11.216,3.232c-7.38,2.969-6.422,11.766-12.012,16.008
		c-7.898,5.995-17.196-2.839-25.004,6.174c-1.737,2.004-2.902,5.668-5.483,6.429c-3.988,1.177-10.108-3.988-12.734-6.196
		c-5.425-4.56-7.917-13.32-13.373-17.224c-5.597-4.004-7.022,2.442-9.985,7.625c-3.645,6.374-9.565,13.105-17.267,14.576
		c-8.904,1.7-9.393-7.63-16.867-9.912c-7.409-2.263-14.183,3.323-18.959-4.342c-4.873-7.82-5.835-13.044-15.936-14.984
		c-5.682-1.091-8.031,0.357-8.783-6.595c-0.368-3.397,0.587-7.02,1.452-10.277c1.617-6.091,6.812-12.048,7.858-17.942
		c1.478-8.316-7.693-5.782-13.535-5.806c-6.596-0.027-13.801-1.387-18.527-6.63c-6.495-7.207,3.294-16.426-2.552-25.157
		c-2.042-3.05-5.966-4.365-6.323-8.461c-0.294-3.383,2.243-6.26,3.978-8.841c2.447-3.642,5.474-6.816,5.405-11.499
		c-0.047-3.249-2.659-5.469-3.218-8.374c-1.609-8.378,8.803-11.701,15.629-13.266c5.462-1.252,19.404,1.526,19.813-5.591
		c0.188-3.278-4.676-7.43-6.03-10.028c-2.035-3.904-3.1-8.173-3.199-12.574c-0.073-3.236-0.101-8.922,2.182-11.407
		c3.161-3.442,7.559-1.637,11.617-3.581c7.616-3.648,5.756-11.85,10.879-16.34c5.85-5.126,15.423,1.616,22.082-1.868
		c8.273-4.327,5.655-14.288,16.713-7.704c4.815,2.866,9.033,6.948,12.45,11.352c2.037,2.625,3.945,8.575,6.871,10.008
		c5.455,2.672,10.269-11.249,13.815-14.778c5.925-5.897,13.254-9.831,20.13-4.584c2.786,2.126,4.289,4.788,7.903,6.003
		c4.356,1.465,8.182-0.326,12.523-0.255c10.301,0.168,9.151,9.454,14.171,15.731c5.068,6.337,14.665,1.29,17.586,8.043
		c3.273,7.567-2.732,19.634-5.648,26.223c-3.641,8.225-3.84,9.71,4.997,9.855c7.151,0.118,15.153,0.876,21.376,4.799
		c8.646,5.452,4.329,9.202,3.162,17.178C933.973,697.728,944.141,702.655,942.836,710.55z M997.049,686.282l-0.294,4.758
		l-0.644,4.727l-1.354,9.404c-0.115,0.795-0.853,1.347-1.647,1.233c-0.726-0.104-1.249-0.727-1.248-1.439v-0.092
		c-0.01-12.499-0.148-24.895-2.034-37.057c-1.862-12.128-4.571-24.053-8.872-35.378c-4.275-11.325-9.987-21.988-16.727-31.896
		c-6.793-9.887-14.883-18.823-23.785-26.851c-17.951-15.956-39.543-27.688-62.467-35.239c-11.482-3.749-23.357-6.337-35.389-7.491
		c-5.995-0.372-12.083-0.75-18.051-0.052c-5.972,0.554-11.949,1.674-17.508,4.104l-0.034,0.015c-0.74,0.324-1.603-0.014-1.926-0.754
		c-0.279-0.634-0.068-1.358,0.462-1.756c5.287-3.966,11.566-6.319,17.883-7.991c6.364-1.657,12.883-2.348,19.401-2.59
		c13.038-0.365,26.045,1.432,38.627,4.677c3.152,0.802,6.229,1.848,9.353,2.767c3.085,1.024,6.122,2.188,9.191,3.281
		c3.011,1.231,5.966,2.603,8.952,3.904l8.719,4.412c11.512,6.136,22.151,13.897,31.825,22.687
		c19.396,17.574,33.905,40.532,41.544,65.362c0.867,3.13,1.704,6.265,2.506,9.4c0.773,3.142,1.214,6.358,1.829,9.523
		c0.667,3.16,0.975,6.371,1.293,9.573c0.286,3.204,0.746,6.388,0.713,9.603l0.193,9.597
		C997.514,679.917,997.214,683.106,997.049,686.282z M1025.206,600.463c-0.711,0.185-1.435-0.188-1.71-0.847l-0.031-0.075
		c-8.787-21.032-19.007-41.26-32.703-58.797c-6.708-8.834-14.146-17.051-22.279-24.448c-8.121-7.415-17.002-13.896-26.292-19.652
		c-18.697-11.382-39.626-18.789-61.194-22.548c-5.399-0.945-10.847-1.593-16.324-2.032c-5.47-0.272-10.982-0.515-16.467-0.237
		c-5.493,0.229-10.982,0.77-16.368,1.849c-5.395,1.028-10.748,2.505-15.721,4.957l-0.02,0.01c-0.726,0.358-1.606,0.06-1.966-0.667
		c-0.297-0.603-0.141-1.312,0.337-1.741c4.487-4.027,9.904-6.816,15.433-9.044c5.571-2.153,11.344-3.852,17.218-4.813
		c11.732-2.234,23.752-2.364,35.601-1.237c23.752,2.299,46.784,10.75,66.914,23.497c20.195,12.701,37.366,29.974,50.148,49.743
		c6.478,9.835,11.858,20.315,16.209,31.123c1.06,2.715,2.17,5.403,3.181,8.125l2.67,8.292c1.88,5.477,2.957,11.208,4.406,16.77
		C1026.451,599.466,1025.983,600.26,1025.206,600.463z M1035.495,517.817c-0.671,0.212-1.381-0.085-1.714-0.674l-0.014-0.025
		c-10.258-18.159-21.551-35.436-35.628-50.007l-2.584-2.767l-2.739-2.609c-1.86-1.699-3.58-3.542-5.543-5.118l-5.685-4.927
		l-5.953-4.575c-8.111-5.843-16.622-11.081-25.607-15.364c-18.002-8.427-37.517-13.726-57.483-15.058
		c-9.967-0.762-20.06-0.54-29.986,0.907c-4.977,0.683-9.909,1.697-14.695,3.185c-4.805,1.428-9.519,3.289-13.787,5.979l-0.02,0.013
		c-0.685,0.432-1.592,0.227-2.024-0.459c-0.36-0.57-0.276-1.294,0.156-1.77c3.722-4.09,8.399-7.121,13.218-9.682
		c4.869-2.482,9.964-4.564,15.21-6.033c5.237-1.546,10.584-2.646,15.983-3.432c5.405-0.648,10.851-1.129,16.305-1.161
		c21.805-0.09,43.75,4.888,63.315,14.741c9.809,4.842,19.115,10.709,27.565,17.602c8.571,6.752,16.123,14.663,22.907,23.058
		c13.655,16.783,23.397,36.234,29.753,56.342C1036.692,516.752,1036.264,517.573,1035.495,517.817z"/>
</g>
</svg>
