<?xml version="1.0" encoding="utf-8"?>
<!-- Designed by Vexels.com - 2019 All Rights Reserved - https://vexels.com/terms-and-conditions/  -->
<svg version="1.1" id="Layer_1" xmlns="http://www.w3.org/2000/svg" xmlns:xlink="http://www.w3.org/1999/xlink" x="0px" y="0px"
	 viewBox="0 0 1200 1200" enable-background="new 0 0 1200 1200" xml:space="preserve">
<g>
	<path fill="none" d="M303.527,908.457c-14.277,19.921-32.87,41.835-21.582,40.507c11.289-1.328,50.468,3.652,43.163-3.652
		C317.803,938.007,308.123,902.042,303.527,908.457z"/>
	<path d="M536.718,754.207c-1.732-4.453-7.623-7.384-12.608-6.296c-1.292,0.285-2.305,0.894-3.285,1.485
		c-0.943,0.567-1.832,1.104-2.949,1.33c-1.593,0.32-3.524,0.201-5.391,0.083c-1.107-0.067-2.173-0.118-3.218-0.121l-17.961,0.263
		c11.692-7.633,23.488-16.201,20.139-22.546c-3.167-5.99-16.005-0.723-29.644,6.1l6.897-12.358c0.728-1.303,1.413-2.809,2.135-4.402
		c1.37-3.008,2.783-6.121,4.547-7.985c0.827-0.876,1.947-1.421,3.132-1.998c1.91-0.932,4.075-1.988,5.117-4.62
		c1.418-3.58-0.483-8.077-3.151-10.035c-2.815-2.068-5.315-2.724-7.416-1.95c-3.755,1.381-5.012,6.709-6.022,10.988
		c-0.263,1.115-0.502,2.135-0.763,2.944c-1.99,6.17-5.973,12.473-9.825,18.57c-0.991,1.569-1.953,3.094-2.869,4.59
		c-0.54-8.219-1.638-22-6.465-25.838c-1.152-0.916-2.498-1.284-3.895-1.047c-6.664,1.093-7.942,15.976-8.565,30.045l-7.19-12.044
		c-0.846-1.416-1.928-2.914-3.073-4.502c-1.993-2.764-4.056-5.619-4.945-8.154c-0.481-1.372-0.435-2.788-0.384-4.287
		c0.083-2.407,0.175-5.135-2.197-7.577c-2.801-2.882-8.665-3.865-12.049-0.811c-1.73,1.569-2.632,3.352-2.678,5.307
		c-0.099,4.144,3.688,7.915,6.454,10.668l0.838,0.841c4.974,5.058,8.716,11.955,12.334,18.624c0.696,1.287,1.389,2.562,2.084,3.817
		c-9.79-4.639-19.317-8.442-24.195-6.382c-1.362,0.575-2.323,1.606-2.783,2.976c-2.149,6.419,9.994,14.662,21.565,21.89
		c-2.648,0.099-5.31,0.242-7.918,0.379c-6.674,0.355-13.577,0.72-20.142,0.387c-1.531-0.078-3.51-0.8-5.605-1.563
		c-3.819-1.394-7.768-2.828-10.824-1.104c-1.759,0.999-2.879,2.85-3.422,5.662c-0.467,2.425,0.18,5.09,1.73,7.128
		c1.44,1.894,3.451,3.035,5.667,3.212c2.138,0.191,4.263-0.835,6.301-1.813c1.33-0.637,2.584-1.236,3.709-1.45
		c6.618-1.254,14.133-1.005,21.401-0.765c1.923,0.064,3.784,0.126,5.611,0.161c-7.907,5.348-21.028,14.552-17.364,20.875
		c3.537,6.116,16.677,0.14,28.882-6.116c-1.133,2.17-2.245,4.383-3.331,6.548c-3.143,6.258-6.39,12.731-10.247,18.264
		c-0.8,1.147-2.28,2.296-3.849,3.516c-2.866,2.224-5.828,4.523-6.038,7.811c-0.126,2.001,0.803,3.97,2.844,6.019
		c1.617,1.62,3.873,2.533,6.234,2.533c0.116,0,0.231-0.003,0.346-0.008c2.374-0.089,4.579-1.123,6.049-2.834
		c1.724-2.009,1.902-4.596,2.074-7.093c0.099-1.469,0.196-2.855,0.594-4.04c2.224-6.597,6.449-13.311,10.537-19.803
		c1.139-1.81,2.243-3.562,3.288-5.286c0.953,14.66,2.917,27.885,9.419,27.541c6.916-0.33,8.404-13.943,9.199-26.894
		c1.179,1.786,2.447,3.613,3.76,5.501c4.359,6.28,8.869,12.774,10.934,19.024c0.406,1.23,0.357,2.495,0.304,3.835
		c-0.094,2.334-0.199,4.982,2.369,7.314c1.601,1.458,3.779,2.149,6.159,1.942c2.519-0.218,4.88-1.45,6.315-3.298
		c5.06-6.505-0.344-10.824-4.289-13.98c-1.789-1.429-3.637-2.906-4.536-4.416c-2.619-4.381-5.168-8.815-7.719-13.25
		c-1.759-3.059-3.519-6.116-5.299-9.159c11.614,6.025,24.297,11.934,29.013,7.142c0.956-0.972,1.386-2.213,1.249-3.591
		c-0.529-5.307-9.377-12.164-19.188-18.871c2.619-0.062,5.238-0.14,7.856-0.218c4.716-0.142,9.43-0.282,14.131-0.325
		c3.443-0.059,5.106,0.204,8.085,1.152c0.967,0.309,1.735,0.798,2.476,1.273c1.751,1.117,3.742,2.396,7.376,0.295
		C536.524,761.136,538.072,757.696,536.718,754.207z"/>
	<path d="M1087.101,1017.361c-54.784-14.941-248.022-36.855-345.636-53.788c-97.615-16.933-108.571-58.768-108.571-72.713
		c0-13.945,2.988-51.796,7.968-61.756c4.98-9.961,48.807-98.611,32.87-236.068c-27.89-156.383-109.568-220.131-141.442-253.002
		c-31.874-32.87-104.587-107.576-130.485-119.528c-25.898-11.953-65.741-30.878-65.741-30.878
		c8.965-20.917,1.993-47.811-1.992-53.787c-3.985-5.976-1.992-5.976-3.985-15.937s-38.846-1.992-38.846-1.992
		c-1.992-17.929-20.918-42.831-103.592-43.827c-82.674-0.996-89.646,46.815-89.646,46.815c-4.316-6.972-7.636-6.972-8.965-2.324
		c-1.328,4.648-5.976,3.32-5.976,3.32c-6.64-5.976-11.288,0-9.961,8.633c1.328,8.633-6.64,6.64-6.64,6.64
		c-7.305,12.617-1.328,30.546-1.328,30.546h-7.969c-1.992,15.273,7.305,27.89,7.305,27.89l-9.297-1.992
		c1.328,15.273,15.273,28.554,15.273,28.554l-7.305,0.664c1.992,8.633,13.945,19.257,13.945,19.257
		c-9.961,3.984-6.64,8.633,9.297,17.265c15.937,8.633,41.171,59.1,34.53,101.599c-6.64,42.499,25.233,42.499,37.186,70.389
		c11.953,27.89,27.89,40.507,40.508,59.1c12.616,18.593,0.663,24.57,0.663,24.57c-29.882,23.242-100.935,92.302-100.935,92.302
		c-30.546,19.921-35.858,59.764-36.522,75.701c-0.664,15.937-17.265,37.187-9.96,51.132c7.304,13.945,11.952,53.788,28.553,58.436
		c16.602,4.648,53.788,2.656,53.788,2.656c20.585,3.984,13.945-4.648,13.945-4.648c6.641-9.297-6.64-17.265-6.64-17.265
		s4.648-7.305-0.664-11.289s-20.585-1.328-20.585-1.328c-5.312-3.984-12.616-2.656-16.601-2.656S99,750.082,99,750.082
		c13.945-10.625,5.977-33.866,5.977-33.866c10.625-11.953,5.976-25.234,5.976-25.234c23.242-7.969,20.586-31.874,29.218-38.515
		c8.633-6.64,57.108-16.601,66.404-24.57c9.297-7.968,39.179-19.921,39.179-19.921c-19.921,34.53-15.938,73.045-8.633,85.662
		c7.304,12.617,7.304,81.014,7.304,81.014l-51.796,148.746c0,0-4.649,12.617-7.968,23.242c-3.32,10.625-23.906,9.961-34.531,15.273
		s-7.968,27.226-15.937,30.546c-7.968,3.32-17.265,21.249-17.265,21.249c4.648,17.265,15.937,11.289,15.937,11.289l1.328,7.304
		c0,0-15.938,19.921-22.577,23.906c-6.641,3.984-8.633,49.803-12.618,59.1c-3.984,9.297-4.648,10.625,6.641,10.625
		s13.945-21.913,13.945-21.913c9.961,2.656,11.289-11.953,13.945-17.265c2.656-5.312,15.273-33.866,15.273-33.866
		c16.6,0.664,19.921-9.297,25.898-10.625s35.858,5.313,45.819,3.32c9.961-1.992,18.593-29.218,18.593-29.218
		c53.124,17.929,190.581,21.25,224.448,22.578c33.866,1.328,27.89-1.328,58.436-12.617c30.546-11.289,268.275,7.969,319.074,8.965
		c50.799,0.996,155.387,6.972,199.214,10.957c43.827,3.984,92.634,19.921,105.584,8.965
		C1158.818,1044.255,1141.884,1032.302,1087.101,1017.361z M554.714,451.372c15.991,9.065,29.608,21.644,40.005,36.132
		c0.445,0.621,0.304,1.486-0.318,1.932c-0.528,0.379-1.233,0.333-1.706-0.071l-0.012-0.011
		c-13.364-11.42-27.502-21.354-42.852-28.37c-7.726-3.384-15.641-6.161-23.763-8.117c-8.131-1.904-16.423-3.075-24.78-3.405
		c-8.351-0.419-16.769-0.069-25.147,0.957c-8.407,0.867-16.723,2.645-25.025,4.65c-16.525,4.265-32.876,10.293-48.578,17.907
		l-0.083,0.04c-0.686,0.332-1.511,0.046-1.843-0.639c-0.281-0.579-0.119-1.259,0.351-1.656
		c13.777-11.622,29.881-20.124,46.981-26.147c17.109-5.893,35.481-9.31,53.965-8.238c9.203,0.588,18.421,1.861,27.325,4.41
		C538.082,443.433,546.729,446.802,554.714,451.372z M387.32,426.478c4.907-13.427,13.805-25.101,24.916-34.406
		c5.591-4.605,11.784-8.587,18.454-11.603c1.637-0.826,3.347-1.474,5.051-2.148c1.691-0.712,3.417-1.322,5.172-1.849
		c3.486-1.141,7.073-1.897,10.653-2.633c7.19-1.395,14.505-1.772,21.744-1.548c3.609,0.261,7.228,0.415,10.768,1.08
		c3.575,0.461,7.068,1.253,10.556,2.029c13.875,3.435,26.977,9.086,38.697,16.779c0.643,0.422,0.821,1.285,0.4,1.927
		c-0.338,0.516-0.971,0.73-1.536,0.577c-13.358-3.637-26.391-7.266-39.574-9.066c-13.119-1.992-26.268-2.362-39.038-0.379
		c-3.166,0.6-6.345,1.198-9.422,2.151c-1.57,0.375-3.116,0.827-4.631,1.376c-1.529,0.511-3.073,0.993-4.548,1.647
		c-5.979,2.417-11.764,5.415-17.176,9.08c-10.812,7.287-20.473,16.942-27.975,28.113l-0.077,0.113
		c-0.423,0.631-1.278,0.798-1.908,0.375C387.309,427.732,387.107,427.059,387.32,426.478z M243.868,396.915
		c-1.305,2.897-3.2,4.994-5.035,6.697c-1.808,1.756-4.35,3.353-6.85,4.328c-5.128,2.025-10.589,1.983-15.391,0.842
		c-9.74-2.353-17.092-8.766-22.452-15.807c-5.442-7.118-8.747-15.337-10.872-23.569c-4.021-16.624-3.018-33.581,0.755-49.421
		c0.177-0.742,0.923-1.201,1.665-1.024c0.651,0.155,1.082,0.754,1.06,1.397c-0.531,15.997,0.437,32.005,5.38,46.458
		c2.408,7.199,5.946,13.902,10.505,19.463c4.549,5.506,10.501,9.775,16.581,11.164c3.018,0.665,5.986,0.527,8.372-0.474
		c1.238-0.532,2.156-1.124,3.268-2.149c1.138-0.989,1.963-1.983,2.328-2.77c0.363-0.79,0.478-1.437,0.338-2.579
		c-0.139-1.122-0.67-2.574-1.347-4.123c-1.366-3.137-3.438-6.541-5.481-9.947c-8.406-13.734-16.059-29.02-19.211-45.145
		c-0.148-0.754,0.344-1.484,1.098-1.632c0.613-0.12,1.212,0.185,1.493,0.708c3.82,7.118,7.715,14.023,11.983,20.67
		c4.283,6.654,8.856,12.997,13.574,19.586c2.311,3.366,4.711,6.695,6.865,10.815c1.047,2.082,2.008,4.42,2.501,7.283
		C245.508,390.513,245.206,394.04,243.868,396.915z M255.673,330.351c-8.416-14.89-12.087-31.475-12.791-47.743
		c-0.033-0.762,0.559-1.407,1.321-1.44c0.668-0.029,1.248,0.429,1.403,1.054c3.864,15.532,9.174,30.665,17.881,43.215
		c4.285,6.266,9.522,11.745,15.428,15.848c5.882,4.052,12.774,6.53,19.003,6.203c3.084-0.185,5.901-1.131,7.923-2.746
		c1.046-0.85,1.766-1.671,2.556-2.961c0.824-1.263,1.345-2.445,1.481-3.302c0.133-0.859,0.066-1.513-0.38-2.573
		c-0.441-1.041-1.349-2.292-2.424-3.597c-2.172-2.644-5.096-5.352-7.993-8.069c-11.841-10.911-23.384-23.521-30.826-38.169
		c-0.348-0.685-0.075-1.522,0.61-1.87c0.557-0.283,1.216-0.153,1.63,0.273c5.621,5.802,11.257,11.378,17.178,16.604
		c5.94,5.229,12.074,10.08,18.415,15.126c3.143,2.605,6.363,5.152,9.561,8.525c1.577,1.716,3.141,3.702,4.398,6.321
		c1.267,2.576,1.942,6.051,1.442,9.182c-0.463,3.143-1.713,5.679-3.012,7.819c-1.258,2.184-3.267,4.415-5.405,6.037
		c-4.378,3.35-9.642,4.804-14.574,5.02c-10.012,0.401-18.838-3.756-25.919-9.063C265.396,344.69,259.968,337.688,255.673,330.351z
		 M281.945,948.964c-11.288,1.328,7.305-20.585,21.582-40.507c4.597-6.415,14.277,29.55,21.581,36.854
		C332.413,952.616,293.233,947.636,281.945,948.964z M337.957,284.421c-8.931-0.718-17.251-3.76-24.791-7.689
		c-15.046-8.134-26.977-20.225-36.224-33.627c-0.433-0.628-0.275-1.488,0.353-1.922c0.551-0.38,1.285-0.3,1.749,0.147
		c11.533,11.098,24.078,21.089,38.127,27.086c6.962,3.027,14.311,4.882,21.493,5.215c7.136,0.303,14.29-1.264,19.391-4.854
		c2.514-1.798,4.397-4.096,5.249-6.54c0.433-1.276,0.607-2.354,0.59-3.867c0.026-1.507-0.161-2.786-0.502-3.584
		c-0.344-0.798-0.748-1.317-1.69-1.977c-0.927-0.647-2.362-1.224-3.966-1.757c-3.246-1.084-7.161-1.822-11.06-2.582
		c-15.831-2.942-32.312-7.481-46.405-15.927c-0.659-0.395-0.873-1.249-0.478-1.908c0.322-0.536,0.949-0.776,1.525-0.635
		c7.846,1.924,15.584,3.648,23.38,4.924c7.811,1.268,15.585,2.114,23.638,3.015c4.048,0.535,8.128,0.979,12.631,2.135
		c2.247,0.615,4.628,1.465,7.086,3.014c2.444,1.508,4.863,4.091,6.104,7.009c1.28,2.908,1.57,5.72,1.608,8.223
		c0.095,2.518-0.419,5.476-1.366,7.987c-1.926,5.166-5.611,9.197-9.671,12.002C356.46,283.974,346.776,285.149,337.957,284.421z
		 M579.323,754.747c-1.677,10.155-13.554,15.261-4.402,26.422c6.789,8.272-19.6,11.997-23.44,12.693
		c-2.142,0.388-10.706,0.531-12.149,2.519c-1.688,2.325,2.885,6.61,4.04,8.445c3.021,4.804,4.88,9.899,5.189,15.608
		c0.18,3.316,0.261,9.093-2.069,11.849c-2.908,3.439-7.249,1.661-11.002,3.17c-7.239,2.912-6.299,11.54-11.781,15.701
		c-7.747,5.88-16.867-2.785-24.526,6.055c-1.703,1.966-2.846,5.559-5.377,6.306c-3.911,1.155-9.914-3.911-12.49-6.077
		c-5.321-4.473-7.766-13.065-13.117-16.894c-5.489-3.927-6.887,2.395-9.793,7.479c-3.575,6.251-9.381,12.854-16.936,14.296
		c-8.734,1.667-9.214-7.484-16.543-9.722c-7.267-2.219-13.912,3.259-18.596-4.258c-4.78-7.67-5.723-12.793-15.63-14.696
		c-5.573-1.07-7.877,0.351-8.615-6.469c-0.361-3.332,0.576-6.885,1.425-10.08c1.587-5.974,6.681-11.817,7.708-17.598
		c1.449-8.156-7.547-5.671-13.276-5.694c-6.47-0.026-13.538-1.36-18.172-6.503c-6.37-7.069,3.23-16.111-2.504-24.675
		c-2.003-2.992-5.851-4.282-6.201-8.299c-0.289-3.318,2.2-6.14,3.901-8.672c2.401-3.572,5.369-6.685,5.302-11.278
		c-0.046-3.186-2.609-5.365-3.157-8.214c-1.578-8.218,8.634-11.477,15.329-13.012c5.356-1.228,19.031,1.497,19.433-5.483
		c0.185-3.215-4.586-7.288-5.914-9.835c-1.996-3.829-3.04-8.017-3.138-12.333c-0.071-3.174-0.099-8.751,2.14-11.188
		c3.1-3.376,7.414-1.606,11.394-3.512c7.47-3.578,5.646-11.622,10.671-16.027c5.736-5.028,15.126,1.585,21.659-1.832
		c8.114-4.244,5.546-14.014,16.393-7.557c4.723,2.811,8.859,6.815,12.211,11.134c1.998,2.575,3.87,8.411,6.739,9.816
		c5.35,2.621,10.074-11.033,13.551-14.495c5.812-5.784,13-9.643,19.743-4.497c2.733,2.085,4.207,4.696,7.752,5.888
		c4.273,1.437,8.025-0.32,12.283-0.25c10.104,0.164,8.976,9.273,13.9,15.429c4.971,6.215,14.384,1.265,17.249,7.889
		c3.21,7.422-2.679,19.258-5.54,25.721c-3.571,8.068-3.766,9.523,4.902,9.666c7.014,0.116,14.862,0.859,20.966,4.707
		c8.481,5.347,4.246,9.025,3.102,16.849C570.629,742.171,580.602,747.003,579.323,754.747z M608.544,689.851
		c-0.589,0.018-1.103-0.334-1.321-0.846l-0.034-0.081c-1.006-2.383-1.886-4.772-2.824-7.132l-1.31-3.55l-1.537-3.459
		c-1.06-2.286-1.998-4.594-2.984-6.871l-3.396-6.616c-4.688-8.661-9.737-16.963-15.915-24.268
		c-12.152-14.728-27.349-26.258-44.574-34.202c-17.233-7.918-36.132-12.643-55.543-15.05c-9.714-1.202-19.578-1.797-29.489-1.747
		c-9.902,0.008-19.955,0.519-29.616,2.854l-0.095,0.023c-0.747,0.18-1.497-0.278-1.678-1.025c-0.138-0.568,0.099-1.141,0.547-1.461
		c4.419-3.131,9.365-5.267,14.345-7.064c5.003-1.738,10.13-3.154,15.303-4.263c10.366-2.202,20.972-3.183,31.619-3.162
		c21.261,0.051,42.911,4.218,62.735,13.505c19.817,9.191,37.317,24.148,49.043,42.531c11.711,18.456,17.458,39.704,18.074,60.452
		C609.916,689.187,609.313,689.828,608.544,689.851z M614.77,579.638c-0.534,0.266-1.159,0.155-1.573-0.226
		c-13.812-12.776-27.559-24.809-42.374-34.691c-14.7-10.001-30.504-17.635-47.107-22.084c-16.58-4.585-34.005-5.639-51.517-3.898
		c-8.767,0.854-17.556,2.459-26.308,4.678c-8.786,2.11-17.509,5.041-26.118,8.411l-0.096,0.037c-0.715,0.28-1.522-0.073-1.802-0.788
		c-0.211-0.54-0.06-1.133,0.333-1.511c7.032-6.737,15.233-11.834,23.841-16.317c8.646-4.404,17.892-7.758,27.48-10.028
		c19.137-4.513,39.844-4.588,59.183,0.819c19.385,5.198,37.174,15.313,51.718,28.29c14.61,12.964,26.494,28.406,34.968,45.433
		C615.743,578.455,615.461,579.294,614.77,579.638z"/>
</g>
</svg>
