<?xml version="1.0" encoding="utf-8"?>
<!-- Designed by Vexels.com - 2019 All Rights Reserved - https://vexels.com/terms-and-conditions/  -->
<svg version="1.1" id="Layer_1" xmlns="http://www.w3.org/2000/svg" xmlns:xlink="http://www.w3.org/1999/xlink" x="0px" y="0px"
	 viewBox="0 0 1200 1200" enable-background="new 0 0 1200 1200" xml:space="preserve">
<g>
	<path d="M416.451,434.86c-1.585-4.077-6.996-6.773-11.532-5.763c-1.185,0.261-2.112,0.818-3.006,1.358
		c-0.854,0.515-1.659,1-2.665,1.203c-1.434,0.289-3.187,0.181-4.892,0.075c-1.006-0.062-2.02-0.118-2.93-0.11l-16.156,0.236
		c10.607-6.933,21.239-14.699,18.184-20.48c-2.897-5.468-14.51-0.734-26.885,5.449l6.191-11.091
		c0.662-1.186,1.284-2.554,1.941-4.003c1.243-2.736,2.53-5.566,4.13-7.256c0.747-0.789,1.761-1.284,2.833-1.808
		c1.745-0.852,3.725-1.818,4.683-4.232c1.299-3.275-0.443-7.396-2.884-9.19c-2.571-1.893-4.851-2.493-6.798-1.782
		c-3.442,1.268-4.591,6.134-5.514,10.044c-0.24,1.009-0.456,1.935-0.69,2.666c-1.809,5.603-5.427,11.332-8.928,16.872
		c-0.871,1.381-1.72,2.722-2.527,4.042c-0.497-7.507-1.513-19.895-5.891-23.377c-1.055-0.842-2.28-1.182-3.585-0.963
		c-6.074,0.996-7.259,14.44-7.832,27.206l-6.446-10.804c-0.772-1.288-1.755-2.651-2.798-4.094c-1.812-2.512-3.687-5.11-4.494-7.41
		c-0.436-1.24-0.392-2.522-0.346-3.882c0.076-2.2,0.158-4.693-2.013-6.933c-2.566-2.643-7.939-3.542-11.037-0.739
		c-1.585,1.436-2.413,3.073-2.454,4.865c-0.092,3.795,3.363,7.236,5.886,9.748l0.764,0.764c4.525,4.598,7.926,10.876,11.218,16.946
		c0.606,1.116,1.208,2.224,1.809,3.315c-8.869-4.198-17.491-7.609-21.904-5.738c-1.254,0.53-2.14,1.478-2.563,2.741
		c-1.957,5.849,8.996,13.32,19.494,19.884c-2.354,0.09-4.719,0.215-7.037,0.338c-6.074,0.322-12.352,0.655-18.309,0.352
		c-1.386-0.07-3.182-0.725-5.086-1.418c-3.483-1.27-7.088-2.586-9.893-1c-1.592,0.902-2.65,2.648-3.139,5.187
		c-0.428,2.22,0.166,4.661,1.582,6.528c1.32,1.734,3.164,2.78,5.195,2.944c1.98,0.154,3.896-0.763,5.761-1.656
		c1.205-0.577,2.344-1.121,3.361-1.315c6.013-1.14,12.846-0.917,19.458-0.694c1.692,0.055,3.333,0.11,4.94,0.141
		c-9.44,6.419-18.79,13.592-15.677,18.968c3.243,5.59,15.122,0.209,26.197-5.466c-1.004,1.925-1.987,3.883-2.948,5.801
		c-2.859,5.696-5.814,11.584-9.323,16.617c-0.724,1.038-2.069,2.082-3.491,3.186c-2.494,1.936-5.322,4.131-5.514,7.145
		c-0.117,1.838,0.734,3.642,2.601,5.516c1.483,1.485,3.549,2.321,5.712,2.321c0.104,0,0.209-0.001,0.316-0.005
		c2.176-0.083,4.196-1.029,5.542-2.596c1.58-1.843,1.743-4.205,1.901-6.489c0.092-1.33,0.178-2.587,0.538-3.656
		c2.02-5.996,5.863-12.101,9.577-18.004c1.006-1.596,1.98-3.144,2.905-4.666c0.874,13.29,2.657,25.196,8.614,24.936
		c6.309-0.299,7.684-12.598,8.41-24.358c1.05,1.583,2.173,3.201,3.335,4.874c3.964,5.71,8.061,11.613,9.939,17.292
		c0.367,1.112,0.324,2.259,0.275,3.473c-0.087,2.135-0.183,4.554,2.171,6.693c1.47,1.335,3.447,1.972,5.643,1.78
		c2.306-0.199,4.471-1.329,5.786-3.021c4.635-5.961-0.308-9.911-3.916-12.795c-1.623-1.297-3.302-2.638-4.115-4.001
		c-2.385-3.991-4.706-8.03-7.03-12.069c-1.567-2.724-3.131-5.447-4.719-8.158c10.543,5.464,22.011,10.775,26.296,6.403
		c0.882-0.896,1.279-2.04,1.152-3.308c-0.484-4.828-8.461-11.035-17.346-17.115c2.326-0.056,4.652-0.125,6.979-0.195
		c4.291-0.129,8.581-0.256,12.859-0.296c3.096-0.018,4.645,0.187,7.338,1.047c0.874,0.278,1.569,0.722,2.24,1.152
		c1.608,1.026,3.427,2.194,6.767,0.27C416.278,441.213,417.692,438.058,416.451,434.86z"/>
	<path d="M1149.967,657.593c-1.138-9.1-21.612-21.612-21.612-21.612c-1.138-15.925-37.538-53.461-42.087-78.486
		c-4.55-25.024-11.375-60.286-11.375-60.286l22.75-21.612c17.062-2.275,37.536-5.687,32.986-21.612
		c-4.549-15.925-23.886-7.962-23.886-7.962c4.549-48.912-17.063-53.461-32.987-35.262c-15.924,18.2-40.949,26.162-40.949,26.162
		c-35.261-31.849-164.933-87.586-200.196-92.136c-35.262-4.55-174.034-29.574-241.145-50.049
		c-67.111-20.475-260.482-20.475-329.868-12.512c-69.387,7.962-127.398,54.599-146.735,77.348
		c-19.337,22.75-37.536,25.024-44.361,15.925c-6.826-9.1-19.338-18.2-20.475,7.962c-1.138,26.162,32.986,34.124,32.986,34.124
		C21.59,577.97,146.713,635.981,146.713,635.981c7.962,36.399-11.375,60.286-3.413,79.623
		c7.962,19.337,15.925,109.198,18.199,122.847c2.275,13.65,17.063,17.062,17.063,17.062s0,0,6.824,18.2
		c6.824,18.2,22.75,12.512,22.75,12.512c3.413,9.1,21.612,5.687,21.612,5.687s4.549,23.887,11.375,28.437
		c6.824,4.55,38.674,1.137,38.674,1.137s-7.962-50.049-21.612-87.586c-13.65-37.537-4.55-90.998-4.55-90.998
		c13.65-17.062,22.75-90.998,21.612-105.785c-1.138-14.787,14.788-37.537,14.788-37.537c43.223-9.1,252.52,30.712,287.781,25.024
		c35.262-5.687,113.748,3.412,113.748,3.412c4.55,15.925,13.65,104.648,20.475,117.16c6.824,12.512,7.962,48.911,5.687,84.173
		c-2.274,35.262,12.513,26.162,12.513,26.162s1.138-17.062,11.375,2.275s37.536,3.412,37.536,3.412s-7.962-20.475-17.062-52.324
		c-9.1-31.849,5.687-83.036,5.687-83.036l9.1,37.537c-11.374,23.887,2.275,63.699,7.963,61.424c5.687-2.275,5.687-7.962,14.786,0
		s37.538,10.237,32.987-7.962c-4.551-18.2-21.612-56.874-17.062-93.273c4.549-36.399,3.412-83.036,3.412-83.036
		c20.475-5.687,121.71,4.55,121.71,4.55c21.612,15.925,39.812,15.925,39.812,15.925c22.75,15.925,50.049,12.512,50.049,12.512
		c26.163,13.65,37.538-2.275,37.538-2.275c25.024,15.925,43.223,11.375,48.911,5.687
		C1122.667,671.243,1151.103,666.693,1149.967,657.593z M165.876,447.748c-8.495,9.942-15.64,20.801-20.943,32.395
		c-2.612,5.819-4.7,11.823-6.404,17.94c-1.634,6.141-2.733,12.406-3.589,18.768c-0.185,3.195-0.736,6.398-0.75,9.638
		c-0.08,1.62-0.112,3.242-0.236,4.878l0.006,4.911c-0.05,3.293,0.18,6.592,0.29,9.939c0.115,3.35,0.512,6.682,0.58,10.137
		l0.003,0.113c0.015,0.729-0.564,1.331-1.293,1.346c-0.54,0.011-1.01-0.305-1.224-0.766c-1.452-3.143-2.892-6.342-4.04-9.644
		c-0.98-3.335-2.25-6.66-2.833-10.128l-1.084-5.188c-0.269-1.748-0.445-3.509-0.669-5.272l-0.306-2.651l-0.108-2.666
		c-0.074-1.78-0.152-3.566-0.161-5.352c0.131-7.148,0.989-14.321,2.665-21.324c1.764-6.977,4.259-13.761,7.356-20.229
		c6.282-12.915,15.138-24.347,25.43-33.897c10.391-9.459,21.999-17.416,35.005-22.507c0.674-0.264,1.433,0.069,1.697,0.742
		c0.218,0.557,0.029,1.172-0.423,1.518l-0.078,0.059C184.119,428.637,174.357,437.809,165.876,447.748z M206.063,467.131
		l-0.023,0.054c-4.989,11.824-9.66,23.685-13.613,35.629c-3.973,11.936-7.196,24.002-9.153,36.09
		c-1.011,6.042-1.502,12.096-1.643,18.094c-0.2,6.004,0.136,11.966,1.094,17.802c0.961,5.833,2.417,11.608,4.701,17.197
		c2.341,5.561,5.436,10.87,8.989,16.274l0.031,0.046c0.403,0.613,0.232,1.436-0.38,1.839c-0.452,0.297-1.018,0.282-1.445,0.009
		c-5.627-3.597-10.583-8.413-14.615-14.025c-3.998-5.642-6.873-12.091-8.782-18.763c-3.875-13.444-3.294-27.517-0.92-40.699
		c2.468-13.237,6.888-25.861,12.58-37.724c5.745-11.845,12.479-23.116,20.963-33.179c0.468-0.555,1.297-0.626,1.852-0.158
		C206.149,465.996,206.28,466.615,206.063,467.131z M209.012,365.429l-0.099,0.013c-7.307,0.943-14.592,2.382-21.601,4.329
		c-7.032,1.931-13.808,4.492-20.29,7.553c-3.298,1.44-6.31,3.375-9.454,5.081l-4.494,2.916c-0.752,0.485-1.539,0.924-2.265,1.446
		l-2.127,1.634c-5.994,4.051-11.022,9.195-16.732,14.19l-0.084,0.074c-0.548,0.479-1.381,0.424-1.86-0.124
		c-0.361-0.411-0.418-0.983-0.194-1.446c3.38-6.934,7.975-13.516,13.892-18.725c2.799-2.8,6.107-4.976,9.314-7.274
		c3.394-2,6.81-3.983,10.44-5.499c7.158-3.235,14.743-5.424,22.42-6.607c7.7-1.101,15.45-1.407,23.175-0.154
		c0.715,0.116,1.2,0.789,1.084,1.503C210.041,364.925,209.572,365.356,209.012,365.429z M263.605,579
		c-0.357,0.402-0.903,0.536-1.386,0.389c-6.803-2.086-13.197-6.037-18.304-11.444c-5.124-5.4-8.785-12.274-10.619-19.474
		c-1.893-7.202-2.145-14.668-1.154-21.793c1.012-7.141,3.029-14.014,6.596-20.274c0.361-0.632,1.164-0.852,1.796-0.492
		c0.487,0.277,0.729,0.817,0.651,1.339l-0.015,0.098c-1.01,6.639-1.598,13.332-1.548,19.832c0.054,3.256,0.232,6.476,0.611,9.639
		c0.409,3.163,1.04,6.255,1.88,9.262c1.666,6.03,4.372,11.613,7.967,16.765c3.622,5.152,8.258,9.696,13.393,14.255l0.019,0.018
		C264.043,577.609,264.094,578.45,263.605,579z M455.163,435.369c-1.526,9.239-12.332,13.885-4.005,24.039
		c6.176,7.525-17.832,10.915-21.326,11.548c-1.949,0.353-9.74,0.483-11.053,2.291c-1.536,2.115,2.624,6.014,3.674,7.684
		c2.749,4.37,4.44,9.006,4.721,14.2c0.164,3.017,0.238,8.273-1.882,10.78c-2.646,3.129-6.595,1.511-10.009,2.884
		c-6.586,2.649-5.731,10.499-10.718,14.284c-7.049,5.349-15.346-2.534-22.313,5.509c-1.55,1.788-2.59,5.057-4.893,5.737
		c-3.558,1.05-9.019-3.558-11.363-5.529c-4.84-4.069-7.064-11.886-11.933-15.37c-4.994-3.573-6.265,2.179-8.91,6.804
		c-3.252,5.688-8.535,11.694-15.408,13.007c-7.945,1.517-8.382-6.809-15.05-8.845c-6.612-2.019-12.656,2.965-16.919-3.874
		c-4.348-6.978-5.207-11.639-14.22-13.371c-5.07-0.974-7.167,0.319-7.837-5.885c-0.329-3.031,0.524-6.264,1.296-9.17
		c1.443-5.435,6.078-10.751,7.013-16.01c1.319-7.421-6.866-5.16-12.078-5.181c-5.887-0.024-12.316-1.237-16.533-5.916
		c-5.795-6.431,2.939-14.658-2.277-22.449c-1.823-2.722-5.324-3.895-5.642-7.55c-0.264-3.019,2.001-5.586,3.548-7.889
		c2.185-3.25,4.886-6.082,4.824-10.261c-0.042-2.899-2.373-4.881-2.871-7.473c-1.436-7.476,7.855-10.442,13.946-11.838
		c4.873-1.117,17.314,1.361,17.68-4.989c0.168-2.925-4.172-6.63-5.381-8.948c-1.817-3.483-2.766-7.294-2.855-11.221
		c-0.065-2.888-0.089-7.961,1.947-10.179c2.82-3.071,6.745-1.461,10.367-3.195c6.796-3.255,5.135-10.574,9.707-14.581
		c5.219-4.574,13.762,1.442,19.705-1.667c7.382-3.861,5.046-12.749,14.914-6.875c4.297,2.558,8.06,6.2,11.109,10.13
		c1.818,2.343,3.521,7.652,6.131,8.93c4.868,2.384,9.165-10.037,12.329-13.187c5.287-5.262,11.827-8.773,17.962-4.091
		c2.485,1.897,3.827,4.272,7.052,5.357c3.887,1.307,7.301-0.291,11.175-0.228c9.191,0.15,8.166,8.436,12.645,14.037
		c4.522,5.654,13.086,1.151,15.692,7.177c2.921,6.753-2.437,17.521-5.04,23.4c-3.25,7.34-3.427,8.664,4.46,8.794
		c6.38,0.105,13.52,0.781,19.073,4.282c7.716,4.865,3.864,8.211,2.822,15.328C447.252,423.927,456.326,428.323,455.163,435.369z
		 M500.115,447.982c-0.315,0.655-1.101,0.93-1.755,0.615c-0.545-0.263-0.826-0.865-0.721-1.434
		c2.739-14.867,2.864-29.63-0.422-43.609c-3.232-13.982-9.706-26.984-18.091-38.676c-8.432-11.681-18.769-22.117-30.348-31.103
		c-11.621-8.952-24.382-16.551-38.353-22.246l-0.023-0.009c-0.673-0.274-0.995-1.041-0.721-1.713
		c0.229-0.563,0.805-0.88,1.381-0.808c15.44,1.939,30.266,8.12,43.51,16.504c13.255,8.432,25.16,19.269,34.495,32.214
		c9.351,12.881,15.985,28.087,18.134,44.027C509.445,417.653,506.832,434.023,500.115,447.982z M554.717,483.456
		c-0.401,0.604-1.217,0.769-1.82,0.368c-0.517-0.343-0.708-0.999-0.502-1.558c6.072-16.422,9.027-33.427,7.716-50.127
		c-0.611-8.337-2.229-16.551-4.572-24.543c-2.431-7.973-5.647-15.712-9.498-23.145c-7.751-14.854-17.909-28.513-29.605-40.817
		c-11.679-12.378-24.964-23.254-39.857-32.522l-0.011-0.007c-0.618-0.385-0.808-1.198-0.423-1.816
		c0.312-0.502,0.91-0.72,1.452-0.579c8.717,2.275,17.026,6.044,24.891,10.539c7.874,4.511,15.212,9.936,22.099,15.901
		c13.641,12.068,25.165,26.734,33.374,43.248c4.11,8.246,7.38,16.954,9.543,25.96c1.088,4.496,1.978,9.051,2.494,13.657
		c0.501,4.604,0.738,9.239,0.642,13.861C570.336,450.389,564.609,468.55,554.717,483.456z M607.233,484.802
		c-0.4,0.604-1.215,0.769-1.819,0.368c-0.517-0.343-0.71-0.999-0.503-1.558c6.073-16.422,9.027-33.427,7.716-50.127
		c-0.611-8.337-2.228-16.551-4.572-24.543c-2.431-7.973-5.647-15.712-9.497-23.145c-7.752-14.854-17.909-28.513-29.605-40.817
		c-11.681-12.378-24.964-23.254-39.859-32.522l-0.011-0.007c-0.618-0.385-0.808-1.198-0.423-1.816
		c0.313-0.502,0.91-0.72,1.454-0.579c8.716,2.275,17.026,6.044,24.89,10.539c7.874,4.511,15.212,9.936,22.1,15.901
		c13.64,12.068,25.164,26.734,33.373,43.248c4.11,8.246,7.381,16.954,9.543,25.96c1.089,4.496,1.98,9.051,2.496,13.657
		c0.501,4.604,0.738,9.239,0.642,13.861C622.854,451.736,617.125,469.897,607.233,484.802z M846.212,511.504
		c-0.581-2.411-0.688-5.348-0.283-7.983c0.8-5.41,3.627-10.165,7.159-13.671c7.2-7.11,16.727-9.744,25.564-10.264
		c8.96-0.542,17.627,1.283,25.667,4.075c16.088,5.837,29.797,15.862,41.283,27.51c0.508,0.515,0.502,1.344-0.013,1.852
		c-0.455,0.449-1.162,0.491-1.67,0.141c-13.267-9.139-27.294-17.16-42.215-21.148c-7.403-2.037-15.029-2.872-22.267-2.203
		c-7.189,0.688-14.109,3.348-18.503,7.8c-2.164,2.222-3.566,4.86-3.911,7.516c-0.171,1.378-0.115,2.555,0.217,4.095
		c0.288,1.539,0.735,2.858,1.293,3.726c1.33,3.242,10.056,3.831,17.897,4.027c8.055,0.297,16.424,0.721,24.612,2.075
		c8.202,1.302,16.277,3.359,23.96,6.357c0.678,0.264,1.013,1.028,0.748,1.705c-0.218,0.561-0.789,0.885-1.359,0.831
		c-8.086-0.769-16.048-1.341-23.998-1.442c-7.967-0.096-15.831,0.252-23.982,0.586c-4.101,0.094-8.247,0.26-12.885-0.224
		c-2.324-0.286-4.818-0.806-7.431-1.988c-2.6-1.151-5.231-3.272-6.874-5.814C847.546,516.534,846.736,513.919,846.212,511.504z
		 M949.472,577.408c-0.375,0.517-1.064,0.675-1.622,0.414c-14.547-6.818-29.713-12.283-45.05-13.48
		c-7.617-0.639-15.239-0.06-22.206,1.965c-6.916,2.027-13.24,5.879-16.901,11.046c-1.795,2.573-2.815,5.433-2.792,8.119
		c0.023,1.391,0.234,2.539,0.775,3.991c0.496,1.47,1.122,2.684,1.769,3.404c0.652,0.721,1.29,1.125,2.432,1.46
		c1.126,0.329,2.685,0.419,4.39,0.404c3.455-0.034,7.405-0.614,11.355-1.178c15.97-2.434,33.055-3.566,49.186-0.27
		c0.713,0.146,1.173,0.842,1.027,1.555c-0.12,0.587-0.614,1.002-1.182,1.049c-8.074,0.668-15.992,1.515-23.817,2.82
		c-7.839,1.314-15.503,3.041-23.444,4.804c-4.012,0.812-8.039,1.713-12.669,2.067c-2.326,0.137-4.855,0.09-7.649-0.599
		c-2.771-0.655-5.8-2.312-7.859-4.608c-2.092-2.276-3.273-4.775-4.135-7.093c-0.924-2.322-1.424-5.219-1.389-7.873
		c0.057-5.443,2.131-10.462,5.009-14.452c5.872-8.081,14.645-12.381,23.215-14.548c8.674-2.221,17.529-2.026,25.937-0.755
		c16.877,2.811,32.121,10.338,45.33,19.928C949.768,576.003,949.897,576.822,949.472,577.408z M957.816,454.207
		c-0.515,0.379-1.222,0.318-1.673-0.102c-11.877-11.03-24.592-21.14-38.778-27.547c-7.027-3.243-14.464-5.358-21.763-5.95
		c-7.244-0.549-14.583,0.868-19.57,4.574c-2.464,1.846-4.184,4.233-4.851,6.809c-0.343,1.344-0.42,2.51-0.288,4.121
		c0.099,1.57,0.382,2.939,0.841,3.911c1.065,3.576,9.563,5.49,17.328,6.973c7.948,1.596,16.183,3.372,24.09,6.032
		c7.928,2.614,15.611,5.944,22.766,10.133c0.627,0.367,0.838,1.174,0.47,1.801c-0.305,0.52-0.919,0.751-1.475,0.607
		c-7.905-2.055-15.719-3.907-23.597-5.296c-7.895-1.384-15.756-2.317-23.899-3.303c-4.084-0.57-8.227-1.079-12.741-2.303
		c-2.257-0.651-4.635-1.567-7.019-3.119c-2.375-1.523-4.637-3.943-5.937-6.652c-1.33-2.704-1.827-5.41-2.051-7.887
		c-0.276-2.444-0.039-5.406,0.702-7.994c1.473-5.333,5.009-9.762,9.101-12.712c4.117-2.985,8.762-4.758,13.39-5.578
		c4.636-0.83,9.256-0.841,13.719-0.332c8.956,1.012,17.216,4.26,24.719,8.339c14.979,8.389,27.053,20.391,36.795,33.643
		C958.525,452.958,958.4,453.778,957.816,454.207z"/>
</g>
</svg>
