<?xml version="1.0" encoding="utf-8"?>
<!-- Designed by Vexels.com - 2019 All Rights Reserved - https://vexels.com/terms-and-conditions/  -->
<svg version="1.1" id="Layer_1" xmlns="http://www.w3.org/2000/svg" xmlns:xlink="http://www.w3.org/1999/xlink" x="0px" y="0px"
	 viewBox="0 0 1200 1200" enable-background="new 0 0 1200 1200" xml:space="preserve">
<g>
	<path d="M1030.002,186.449c-27.194-30.215-55.897-60.431-95.179-74.027c-75.537-28.705-75.537-34.748-99.711-48.345
		c-24.172-13.597-63.451-22.662-134.458-1.511c-71.005,21.151-191.867,149.566-96.688,321.793s276.471,179.781,234.169,249.277
		c0,0-137.481-52.877-231.148-27.194c-86.796,23.799-107.409,72.249-96.745,122.504c0.082,0.06,0.175,0.096,0.257,0.159
		c0.412,0.317,0.789,0.663,1.134,1.031l0.135,0.149c4.25,4.629,9.464,9.452,14.611,13.811c5.225,4.404,10.702,8.531,16.398,12.357
		c5.69,3.85,11.689,7.187,17.879,10.206c6.213,2.978,12.719,5.261,19.434,7.059l0.088,0.024c1.044,0.279,1.662,1.35,1.383,2.393
		c-0.25,0.933-1.134,1.526-2.064,1.441c-7.2-0.653-14.428-1.875-21.452-3.871c-6.998-2.034-13.932-4.475-20.6-7.488
		c-6.677-2.99-13.206-6.351-19.545-10.068c-6.306-3.741-12.227-7.532-18.397-12.262c-32.013,8.886-104.284,41.779-46.613,151.111
		c0,0-105.755-39.28-167.695-12.086c-61.942,27.194-206.975,142.012-93.668,232.658c43.811,31.726,105.753,40.791,99.71,30.215
		c-6.043-10.575-63.453-13.597-87.625-71.006c-24.173-57.409,77.048-200.932,240.212-66.474
		c163.162,134.458,315.751,142.012,457.761,87.624c142.013-54.388,119.352-146.544,78.561-175.249c0,0,51.575-74.962,12.932-143.979
		c-0.091-0.009-0.181,0.006-0.274-0.006c-0.941-0.114-1.841-0.343-2.687-0.67l-1.143-0.453c-1.547-0.608-2.47-1.059-3.592-1.607
		c-1.09-0.517-2.123-1.061-3.139-1.612c-2.073-1.074-4.006-2.259-5.965-3.42c-3.844-2.403-7.575-4.896-11.11-7.612
		c-7.093-5.392-13.708-11.254-19.676-17.659c-5.906-6.452-11.497-13.109-16.215-20.339c-2.527-3.481-4.593-7.276-6.815-10.915
		c-2.144-3.695-3.968-7.57-5.94-11.312c-0.501-0.953-0.137-2.132,0.816-2.634c0.846-0.446,1.873-0.208,2.443,0.52l0.105,0.136
		c2.575,3.276,4.968,6.642,7.642,9.78c2.754,3.081,5.313,6.277,8.286,9.111c5.614,5.942,11.918,11.137,18.306,15.999
		c6.447,4.813,13.317,8.953,20.339,12.52c2.754,1.419,5.572,2.651,8.394,3.821c17.147-13.469,65.959-60.406,47.148-146.93
		c-22.66-104.243-107.265-142.012-167.695-178.271c-60.431-36.259-237.189-181.292-92.156-223.594c0,0,49.856,55.899,67.985,92.157
		c18.129,36.258,86.114,104.243,104.242,61.941c0,0,21.908,29.838,22.285,54.388s10.952,33.992,11.331,20.395
		c0.377-13.597,1.509-36.636,15.106-13.219c13.597,23.417,1.511-26.061-26.815-58.165c-28.328-32.104-18.131-48.722-62.698-110.664
		c0,0,122.373-9.065,137.481-15.108C1054.176,227.24,1057.196,216.664,1030.002,186.449z M745.63,647.66
		c0.566-0.731,1.551-0.95,2.359-0.59c11.203,5.03,21.824,11.57,31.419,19.557c9.599,7.969,18.123,17.434,24.926,28.03
		c13.727,21.229,20.316,46.226,21.13,70.661c0.036,1.082-0.812,1.989-1.894,2.025c-0.938,0.031-1.746-0.603-1.967-1.478
		l-0.008-0.031c-2.959-11.712-6.119-23.198-10.317-34.214c-4.211-10.999-9.338-21.532-15.743-31.24
		c-6.378-9.717-13.909-18.646-22.327-26.844c-8.415-8.212-17.681-15.688-27.228-23.12
		C745.124,649.753,744.965,648.518,745.63,647.66z M644.613,635.915c0.377-0.868,1.311-1.322,2.201-1.131
		c13.284,2.845,25.833,7.817,37.904,13.987c12.015,6.228,23.39,13.974,33.462,23.334c10.028,9.357,18.845,20.427,24.678,33.073
		c5.923,12.563,8.814,26.541,8.088,40.109c-0.057,1.085-0.983,1.918-2.07,1.859c-0.896-0.048-1.62-0.689-1.812-1.523l-0.01-0.045
		c-2.927-12.765-6.986-24.817-13.319-35.724c-6.15-10.959-14.087-20.844-23.177-29.707c-9.199-8.754-19.417-16.591-30.384-23.429
		c-10.916-6.875-22.538-12.997-34.453-18.188l-0.099-0.043C644.634,638.057,644.182,636.905,644.613,635.915z M562.139,658.694
		l-0.231,0.012c-1.075,0.056-1.993-0.77-2.049-1.845c-0.048-0.896,0.52-1.683,1.332-1.953c6.514-2.164,13.164-1.824,19.632-1.22
		c6.414,0.885,12.739,2.372,18.83,4.453c12.215,4.135,23.72,10.216,34.222,17.824c10.394,7.684,19.958,16.953,26.977,28.095
		c7,11.075,11.449,24.001,11.501,36.962c0.004,1.098-0.882,1.991-1.98,1.996c-0.804,0.003-1.5-0.473-1.814-1.16l-0.032-0.071
		c-5.166-11.306-10.843-21.416-17.812-30.778c-6.937-9.307-14.883-18.065-24.318-25.226c-4.644-3.642-9.469-7.112-14.58-10.142
		c-5.02-3.175-10.306-5.968-15.724-8.429C585.327,662.366,573.657,658.089,562.139,658.694z M755.788,1014.559
		c-1.911,2.207-3.196,6.241-6.037,7.08c-4.393,1.296-11.131-4.391-14.024-6.823c-5.972-5.021-8.718-14.668-14.725-18.967
		c-6.163-4.409-7.731,2.689-10.996,8.396c-4.013,7.019-10.533,14.431-19.015,16.051c-9.805,1.872-10.344-8.402-18.573-10.915
		c-8.158-2.492-15.619,3.659-20.877-4.781c-5.366-8.611-6.426-14.364-17.549-16.5c-6.256-1.202-8.844,0.394-9.671-7.263
		c-0.406-3.741,0.646-7.73,1.599-11.317c1.782-6.707,7.501-13.267,8.654-19.757c1.627-9.157-8.473-6.367-14.904-6.393
		c-7.264-0.029-15.2-1.527-20.402-7.3c-7.152-7.937,3.626-18.088-2.811-27.703c-2.249-3.359-6.569-4.807-6.961-9.317
		c-0.326-3.725,2.47-6.893,4.379-9.736c2.695-4.01,6.028-7.505,5.953-12.662c-0.053-3.577-2.931-6.023-3.545-9.222
		c-1.77-9.226,9.694-12.885,17.21-14.608c6.014-1.378,21.366,1.68,21.816-6.156c0.208-3.61-5.147-8.182-6.639-11.042
		c-2.241-4.299-3.413-9-3.522-13.847c-0.08-3.563-0.112-9.824,2.401-12.561c3.48-3.79,8.324-1.802,12.793-3.943
		c8.387-4.017,6.338-13.049,11.981-17.993c6.439-5.645,16.981,1.779,24.316-2.057c9.109-4.765,6.226-15.733,18.405-8.484
		c5.302,3.156,9.946,7.651,13.707,12.501c2.243,2.891,4.345,9.443,7.566,11.02c6.007,2.942,11.31-12.387,15.215-16.273
		c6.525-6.494,14.596-10.826,22.167-5.048c3.066,2.341,4.722,5.272,8.703,6.611c4.797,1.613,9.008-0.359,13.789-0.281
		c11.344,0.185,10.077,10.41,15.606,17.323c5.58,6.978,16.149,1.42,19.365,8.857c3.604,8.333-3.009,21.621-6.22,28.877
		c-4.01,9.057-4.229,10.692,5.502,10.852c7.876,0.13,16.686,0.964,23.539,5.284c9.523,6.004,4.768,10.133,3.484,18.916
		c-1.467,10.026,9.73,15.451,8.294,24.145c-1.883,11.401-15.217,17.134-4.941,29.665c7.621,9.287-22.005,13.469-26.317,14.251
		c-2.405,0.436-12.019,0.596-13.639,2.828c-1.896,2.61,3.238,7.421,4.536,9.482c3.392,5.393,5.477,11.114,5.826,17.524
		c0.202,3.723,0.293,10.209-2.323,13.303c-3.264,3.861-8.139,1.864-12.351,3.559c-8.128,3.269-7.074,12.956-13.227,17.627
		C774.625,1014.362,764.386,1004.634,755.788,1014.559z M937.897,956.295c6.127,9.547,10.498,21.118,10.283,33.461
		c-0.143,12.387-5.782,24.227-13.353,33.262c-7.748,9.032-17.256,15.814-27.066,21.443c-19.825,11.079-41.366,17.438-63.011,21.601
		c-21.723,3.904-43.79,5.351-65.65,4.123c-1.079-0.06-1.902-0.984-1.843-2.061c0.055-0.992,0.858-1.771,1.822-1.841
		c21.544-1.602,42.832-4.887,63.569-9.985c20.656-5.179,40.98-12.128,58.944-22.548c8.949-5.188,17.153-11.47,23.64-18.875
		c3.045-3.799,5.98-7.729,7.75-12.11c2.064-4.273,3.123-8.867,3.583-13.56c0.004-2.365,0.271-4.737-0.137-7.135l-0.339-3.613
		l-0.835-3.593c-0.415-2.433-1.374-4.77-2.216-7.144c-0.686-2.431-1.957-4.688-2.992-7.038
		c-4.545-9.265-10.725-17.964-17.265-26.549l-0.034-0.045c-0.656-0.861-0.49-2.091,0.372-2.746c0.747-0.568,1.768-0.518,2.455,0.065
		C923.971,938.53,931.769,946.64,937.897,956.295z M978.079,587.404c8.219,10.636,12.875,22.891,15.354,35.227
		c0.215,1.07-0.478,2.111-1.547,2.327c-0.844,0.169-1.669-0.225-2.087-0.923l-0.023-0.04c-6.293-10.564-12.657-20.796-20.642-28.767
		c-7.889-8.02-17.406-13.343-27.617-13.724c-10.155-0.544-20.873,3.008-30.346,9.092c-9.471,6.107-18.117,14.182-24.368,24.319
		l-0.055,0.09c-0.572,0.927-1.788,1.215-2.714,0.644c-0.72-0.445-1.054-1.282-0.899-2.067c2.596-12.925,10.676-24.257,20.903-32.733
		c5.122-4.318,11.047-7.778,17.507-10.309c6.487-2.418,13.633-3.713,20.844-3.243c7.179,0.513,14.346,2.635,20.436,6.302
		C968.907,577.277,974.05,582.049,978.079,587.404z M918.492,514.932c5.723,0.884,11.247,2.47,16.332,4.834
		c10.287,4.522,19.026,11.314,26.902,18.679c0.791,0.738,0.833,1.977,0.093,2.766c-0.659,0.705-1.719,0.814-2.5,0.303l-0.031-0.021
		c-8.825-5.766-17.854-11.164-27.373-14.599c-4.741-1.763-9.586-2.903-14.405-3.47c-4.825-0.418-9.607-0.111-14.123,1.21
		c-9.079,2.539-16.85,8.969-22.958,16.909c-6.07,7.969-11.028,17.313-14.714,26.954l-0.05,0.128
		c-0.385,1.007-1.513,1.512-2.521,1.126c-0.888-0.34-1.385-1.259-1.225-2.162c1.911-10.874,5.768-21.298,12.04-30.69
		c3.127-4.673,6.914-9.036,11.434-12.709c4.543-3.608,9.829-6.573,15.585-8.11C906.707,514.535,912.741,514.101,918.492,514.932z
		 M827.902,499.706c3.952-8.879,11.026-17.25,20.576-21.385c4.686-2.134,9.749-3.188,14.733-3.484
		c4.991-0.235,9.889,0.329,14.607,1.318c9.452,2.028,18.091,6.019,26.125,10.689c0.936,0.543,1.252,1.741,0.709,2.676
		c-0.484,0.834-1.49,1.176-2.365,0.855l-0.032-0.012c-8.505-3.116-17.096-5.872-25.719-7.015c-4.299-0.588-8.581-0.727-12.739-0.408
		c-4.137,0.46-8.12,1.46-11.769,3.135c-7.308,3.384-12.974,9.669-16.997,17.163c-4.031,7.468-6.834,16.075-8.541,24.724
		l-0.029,0.145c-0.21,1.059-1.237,1.748-2.296,1.539c-0.905-0.179-1.54-0.957-1.574-1.84
		C822.206,518.209,823.893,508.7,827.902,499.706z M749.589,85.572l-0.027,0.015c-7.364,3.877-14.125,8.147-19.247,13.509
		c-4.997,5.457-8.309,11.789-9.542,18.969c-1.252,7.142-0.92,14.837,0.301,22.606c1.223,7.766,3.23,15.713,5.448,23.661l0.038,0.134
		c0.293,1.053-0.322,2.145-1.376,2.439c-0.774,0.216-1.566-0.06-2.05-0.637c-5.698-6.815-9.654-14.686-12.297-23.218
		c-2.54-8.512-3.636-17.881-1.768-27.248c1.721-9.359,7.125-18.331,14.557-24.111c7.457-5.773,16.185-8.87,24.814-9.841
		c1.088-0.122,2.07,0.661,2.193,1.749C750.726,84.43,750.288,85.201,749.589,85.572z M785.223,116.455
		c-2.836,2.482-5.324,5.124-7.274,8.11c-3.87,5.939-5.713,13.197-5.854,21.111c-0.156,7.882,1.037,16.331,2.807,24.759l0.036,0.171
		c0.225,1.071-0.461,2.123-1.534,2.348c-0.758,0.159-1.507-0.14-1.961-0.708c-5.864-7.389-9.542-16.18-10.9-25.842
		c-0.663-4.821-0.589-9.873,0.347-14.911c0.987-5.018,2.979-9.995,5.93-14.312c2.919-4.338,6.676-8.032,10.828-10.883
		c4.196-2.752,8.602-4.984,13.176-6.402c9.082-3.029,18.392-3.778,27.449-3.01c1.094,0.093,1.908,1.056,1.814,2.152
		c-0.069,0.808-0.61,1.461-1.328,1.712l-0.04,0.013c-8.36,2.905-16.501,5.545-23.655,9.351
		C791.479,111.997,788.196,114.12,785.223,116.455z M836.278,142.874c-9.143,3.777-14.001,11.603-16.065,21.707
		c-1.902,10.152-1.14,21.683,0.103,33.249l0.013,0.127c0.116,1.092-0.673,2.072-1.765,2.189c-0.776,0.083-1.496-0.293-1.888-0.907
		c-3.398-5.322-5.708-11.047-7.329-17.129c-0.799-3.044-1.427-6.157-1.713-9.368c-0.417-3.194-0.414-6.49-0.164-9.811
		c0.486-6.629,2.544-13.649,6.759-19.63c4.187-5.999,10.413-10.466,16.827-12.98c6.456-2.592,13.079-3.321,19.459-3.662
		c6.371-0.079,12.629,0.492,18.658,1.587c12.09,2.253,23.573,6.043,34.485,11.01c0.991,0.45,1.427,1.618,0.978,2.608
		c-0.37,0.812-1.222,1.252-2.064,1.136l-0.034-0.005c-11.726-1.637-23.242-3.47-34.597-3.977
		C856.685,138.37,845.326,139.004,836.278,142.874z M949.854,184.078c-0.278,0.732-0.941,1.206-1.673,1.279l-0.036,0.003
		c-12.69,1.237-24.974,1.723-36.696,3.528c-11.665,1.615-22.857,4.522-31.194,9.938c-8.351,5.33-13.265,13.458-15.274,24.184
		c-1.856,10.676-1.086,22.875,0.616,35.154l0.025,0.171c0.151,1.087-0.61,2.091-1.696,2.242c-0.755,0.104-1.467-0.23-1.885-0.806
		c-7.779-10.78-12.393-23.701-12.539-38.022c0.04-7.136,1.608-14.681,5.185-21.581c3.571-6.889,9.214-12.787,15.592-16.771
		c12.913-8.048,27.205-9.911,40.339-9.569c13.265,0.521,26.01,3.07,38.079,7.671C949.73,181.889,950.248,183.045,949.854,184.078z"
		/>
	<path d="M798.309,898.769c-2.047-5.263-8.739-8.61-14.624-7.322c-1.517,0.335-2.683,1.037-3.811,1.715
		c-1.025,0.621-1.997,1.204-3.182,1.445c-1.727,0.351-3.869,0.21-5.942,0.088c-1.262-0.08-2.489-0.149-3.651-0.137l-18.756,0.274
		c12.879-8.473,25.38-17.871,21.572-25.075c-3.796-7.165-18.493-0.953-32.644,6.083l7.101-12.722
		c0.808-1.445,1.593-3.167,2.409-4.959c1.525-3.35,3.099-6.818,5.035-8.861c0.88-0.93,2.104-1.528,3.404-2.161
		c2.207-1.079,4.711-2.302,5.942-5.401c1.532-3.865-0.118-9.136-3.678-11.747c-3.274-2.409-6.22-3.175-8.705-2.241
		c-4.421,1.624-5.862,7.726-7.021,12.627c-0.293,1.235-0.556,2.375-0.846,3.27c-2.218,6.883-6.677,13.942-10.992,20.768
		c-0.873,1.384-1.727,2.733-2.55,4.063c-0.835-11.815-2.313-24.046-7.325-28.032c-1.38-1.098-2.988-1.521-4.692-1.258
		c-7.562,1.239-9.162,17.224-9.898,32.762l-7.371-12.356c-0.96-1.605-2.18-3.297-3.472-5.088c-2.222-3.08-4.52-6.262-5.5-9.048
		c-0.515-1.471-0.461-3.022-0.408-4.665c0.095-2.782,0.202-5.938-2.58-8.804c-3.274-3.377-10.138-4.509-14.094-0.93
		c-2.028,1.837-3.087,3.941-3.141,6.254c-0.114,4.829,4.212,9.136,7.371,12.28l0.934,0.934c5.549,5.641,9.734,13.359,13.782,20.825
		c0.579,1.067,1.155,2.131,1.73,3.179c-10.676-5-20.943-8.934-26.359-6.635c-1.635,0.694-2.794,1.936-3.346,3.586
		c-2.443,7.287,9.955,15.996,23.261,24.354c-2.535,0.103-5.077,0.24-7.569,0.37c-7.482,0.396-15.226,0.812-22.578,0.435
		c-1.658-0.084-3.849-0.884-6.174-1.73c-4.375-1.597-8.903-3.251-12.494-1.208c-2.058,1.162-3.415,3.396-4.04,6.632
		c-0.545,2.828,0.206,5.942,2.012,8.32c1.688,2.222,4.051,3.564,6.658,3.773c2.519,0.259,4.943-0.953,7.28-2.073
		c1.467-0.701,2.855-1.364,4.07-1.597c7.375-1.395,15.787-1.121,23.931-0.854c1.719,0.057,3.396,0.114,5.039,0.152
		c-11.468,7.855-22.456,16.553-18.569,23.264c4.051,6.99,18.298,0.755,31.829-6.132c-1.071,2.077-2.123,4.173-3.16,6.232
		c-3.518,7.013-7.154,14.266-11.472,20.452c-0.865,1.239-2.504,2.512-4.238,3.861c-3.133,2.432-6.685,5.191-6.933,9.063
		c-0.149,2.371,0.934,4.684,3.312,7.066c1.89,1.898,4.528,2.969,7.291,2.969c0.133,0,0.267-0.004,0.4-0.008
		c2.782-0.107,5.366-1.315,7.085-3.323c2.024-2.359,2.237-5.465,2.428-8.206c0.111-1.62,0.213-3.148,0.644-4.429
		c2.481-7.364,7.215-14.883,11.792-22.155c1.037-1.646,2.05-3.255,3.022-4.837c1.018,15.013,2.984,30.026,10.63,30.026
		c0.095,0,0.191,0,0.286-0.008c7.878-0.37,9.715-15.024,10.641-29.366c1.132,1.685,2.325,3.407,3.556,5.176
		c4.879,7.028,9.921,14.293,12.223,21.256c0.435,1.315,0.377,2.698,0.32,4.162c-0.103,2.576-0.232,5.782,2.79,8.53
		c1.883,1.711,4.448,2.531,7.222,2.283c2.942-0.255,5.702-1.696,7.383-3.861c5.927-7.619-0.324-12.616-4.89-16.263
		c-1.978-1.586-4.025-3.221-4.997-4.852c-2.939-4.92-5.805-9.898-8.667-14.88c-1.738-3.022-3.476-6.049-5.233-9.06
		c13.332,6.872,26.47,12.722,31.802,7.299c1.159-1.182,1.685-2.687,1.517-4.356c-0.591-5.93-10.005-13.412-20.68-20.772
		c2.538-0.065,5.073-0.141,7.611-0.217c5.275-0.156,10.55-0.316,15.809-0.362c3.758-0.05,5.66,0.229,8.949,1.277
		c1.037,0.332,1.837,0.842,2.687,1.384c1.963,1.258,4.406,2.813,8.701,0.343v-0.004C798.103,906.94,799.906,902.889,798.309,898.769
		z"/>
</g>
</svg>
