<?xml version="1.0" encoding="utf-8"?>
<!-- Designed by Vexels.com - 2019 All Rights Reserved - https://vexels.com/terms-and-conditions/  -->
<svg version="1.1" id="Layer_1" xmlns="http://www.w3.org/2000/svg" xmlns:xlink="http://www.w3.org/1999/xlink" x="0px" y="0px"
	 viewBox="0 0 1200 1200" enable-background="new 0 0 1200 1200" xml:space="preserve">
<g>
	<path d="M821.817,503.595c-1.352-3.486-5.776-5.695-9.677-4.848c-1.004,0.222-1.808,0.706-2.52,1.135
		c-0.678,0.411-1.322,0.797-2.108,0.956c-1.143,0.232-2.557,0.144-3.937,0.061c-0.83-0.05-1.644-0.083-2.648-0.088l-12.174,0.179
		c8.522-5.609,16.795-11.829,14.275-16.593c-2.507-4.744-12.235-0.633-21.6,4.025l4.696-8.416c0.537-0.961,1.059-2.106,1.599-3.296
		c1.006-2.214,2.048-4.505,3.327-5.854c0.58-0.615,1.392-1.009,2.25-1.43c1.463-0.714,3.12-1.523,3.935-3.574
		c1.011-2.555-0.078-6.041-2.431-7.773c-2.164-1.591-4.104-2.093-5.761-1.483c-2.926,1.074-3.879,5.11-4.646,8.353
		c-0.194,0.82-0.371,1.574-0.562,2.169c-1.468,4.55-4.416,9.218-7.269,13.733c-0.58,0.918-1.148,1.816-1.692,2.699
		c-0.552-7.819-1.531-15.912-4.848-18.55c-0.916-0.726-1.972-1.009-3.105-0.832c-5.001,0.82-6.063,11.392-6.547,21.678l-4.88-8.177
		c-0.633-1.062-1.44-2.179-2.295-3.362c-1.47-2.038-2.991-4.144-3.639-5.995c-0.343-0.974-0.308-2-0.27-3.087
		c0.06-1.841,0.131-3.927-1.708-5.824c-2.161-2.227-6.704-2.984-9.329-0.615c-1.342,1.216-2.04,2.608-2.078,4.136
		c-0.076,3.193,2.782,6.04,4.87,8.121l0.625,0.628c3.675,3.733,6.447,8.845,9.125,13.789c0.381,0.704,0.762,1.402,1.14,2.093
		c-7.062-3.309-13.852-5.907-17.441-4.389c-1.085,0.457-1.851,1.279-2.219,2.376c-1.612,4.817,6.59,10.58,15.398,16.111
		c-1.682,0.068-3.367,0.159-5.022,0.247c-4.953,0.265-10.073,0.535-14.931,0.288c-1.097-0.056-2.55-0.585-4.086-1.145
		c-2.893-1.054-5.884-2.146-8.268-0.802c-1.362,0.769-2.26,2.247-2.673,4.389c-0.361,1.876,0.139,3.94,1.337,5.513
		c1.117,1.468,2.678,2.353,4.401,2.489c1.677,0.169,3.269-0.63,4.82-1.372c0.971-0.464,1.889-0.903,2.691-1.057
		c4.878-0.921,10.439-0.744,15.821-0.562c1.14,0.038,2.255,0.073,3.349,0.101c-7.589,5.196-14.86,10.951-12.288,15.393
		c2.684,4.623,12.111,0.497,21.062-4.056c-0.709,1.375-1.407,2.764-2.091,4.129c-2.328,4.638-4.734,9.433-7.589,13.526
		c-0.573,0.82-1.657,1.662-2.805,2.552c-2.073,1.612-4.424,3.438-4.588,6c-0.098,1.569,0.618,3.1,2.194,4.681
		c1.248,1.253,2.994,1.96,4.82,1.96c0.088,0,0.177-0.003,0.265-0.005c1.841-0.071,3.551-0.87,4.691-2.199
		c1.339-1.564,1.48-3.619,1.604-5.433c0.073-1.072,0.144-2.083,0.426-2.926c1.644-4.875,4.777-9.854,7.809-14.669
		c0.686-1.087,1.354-2.149,1.995-3.193c0.671,9.937,1.972,19.867,7.034,19.867c0.063,0,0.126,0,0.189-0.005
		c5.213-0.245,6.429-9.942,7.042-19.433c0.749,1.115,1.539,2.255,2.351,3.425c3.228,4.651,6.568,9.458,8.091,14.066
		c0.288,0.868,0.25,1.786,0.212,2.754c-0.068,1.705-0.151,3.829,1.849,5.645c1.246,1.132,2.943,1.67,4.779,1.511
		c1.945-0.169,3.771-1.122,4.883-2.555c3.922-5.042-0.214-8.348-3.233-10.762c-1.309-1.047-2.663-2.129-3.307-3.206
		c-1.94-3.251-3.831-6.537-5.723-9.826c-1.155-2.01-2.31-4.018-3.478-6.02c8.827,4.547,17.531,8.419,21.045,4.83
		c0.767-0.782,1.115-1.778,1.004-2.883c-0.391-3.924-6.618-8.875-13.685-13.746c1.675-0.043,3.347-0.091,5.022-0.141
		c3.498-0.106,6.994-0.209,10.479-0.242c2.53-0.03,3.748,0.154,5.922,0.845c0.683,0.217,1.213,0.557,1.776,0.916
		c1.299,0.83,2.916,1.869,5.758,0.224C821.68,509,822.873,506.319,821.817,503.595z"/>
	<path d="M1146.196,488.39c-10.563-14.788-14.789-19.013-16.901-34.858c-2.112-15.845-8.45-27.464-20.07-38.027
		s-25.351-20.07-25.351-29.576c0-9.507-16.901-15.845-26.407-11.619c0,0-15.845-15.845-36.971-12.676
		c-21.127,3.169-74.997-3.169-89.786-2.113c-14.789,1.056-74.998,15.845-74.998,15.845s-50.703-6.338-72.885,9.507
		c0,0-54.927,2.113-77.11-5.281c-22.182-7.394-83.448-23.239-125.7-13.732s-117.249-2.113-156.332,16.901
		c0,0-40.14,7.394-69.716,7.394c-29.576,0-84.504,29.576-107.743,96.123c-23.239,66.547-66.547,109.855-111.968,106.687
		c-45.421-3.169-54.928-33.802-46.477-48.59c8.45-14.788,15.845-35.914-11.619-28.52c-27.464,7.394-35.914,44.365-12.675,78.166
		c23.238,33.802,95.067,76.054,193.303-1.056c0,0-25.351,69.716-41.195,82.391c-15.845,12.676-17.958,15.845-21.127,31.689
		c-3.168,15.845-28.52,64.434-35.914,72.885c-7.394,8.45,2.112,28.52,2.112,39.083c0,10.563,15.845,22.182,24.295,19.013
		c0,0,28.52,8.45,28.52-5.281s-11.619-30.633-11.619-30.633s19.014-45.421,29.576-48.59c10.563-3.169,62.322-44.365,92.955-80.279
		c30.633-35.914,85.56-58.096,97.18-59.153c11.619-1.056,53.872,82.391,51.759,111.968c-2.112,29.576,2.113,30.633,19.014,43.308
		c16.901,12.676,34.858,30.633,43.308,36.971c8.45,6.338,17.957,17.957,35.914,25.351c17.958,7.394,44.365-2.113,51.759-11.619
		c7.394-9.507,11.62-13.732,11.62-13.732s-11.62-13.732-23.239-13.732c-11.62,0-30.633-1.056-30.633-1.056
		s-30.633-34.858-31.689-42.252c-1.056-7.394,8.45-86.617,5.281-115.137c0,0,16.901-1.056,27.464,1.056
		c10.563,2.113,8.45-4.225,8.45-4.225s34.858,28.52,31.689,14.788c0,0,19.014,12.675,21.127,8.45c2.112-4.225,5.281-8.45,5.281-8.45
		s12.676,7.394,13.732,0s3.169-13.732,14.789-7.394c0,0-3.169,34.858-8.45,50.702c-5.282,15.845-9.507,41.196-20.07,51.759
		c-10.563,10.563,1.056,19.013,1.056,19.013s-24.295,13.732-13.732,35.914c10.563,22.182,22.182,41.196,31.689,42.252
		c9.507,1.056,30.633,2.113,32.746-6.338c2.113-8.45,0-22.182-13.732-27.464c-13.732-5.282,0-20.07,5.281-27.464
		c5.281-7.394,99.292-132.038,99.292-132.038s32.746-2.113,49.647-13.732c0,0,26.407,20.07,29.576,26.408
		c3.169,6.338,8.45,6.338,15.844,14.788c7.395,8.45,26.408,34.858,31.689,40.139s84.504,62.322,89.786,70.772
		c5.281,8.45,27.465,28.52,38.027,28.52c10.563,0,58.096-9.507,66.547-14.788c8.45-5.281,0-30.633-15.844-28.52
		c-15.845,2.113-20.07,7.394-33.802-3.169c-13.732-10.563-32.746-23.239-40.14-32.745s-53.872-101.405-60.21-120.418
		c-6.337-19.013-2.112-65.491-2.112-65.491s27.464-6.338,40.14-24.295c0,0,12.675-1.056,12.675,5.281c0,0,14.789-7.394,15.845,0
		c0,0,7.394,3.169,14.787-3.169c7.395-6.338,26.408-6.338,30.634,2.113c4.225,8.45,17.956,17.957,34.857,14.788
		c16.901-3.169,17.958-14.788,17.958-14.788l14.788-13.732C1141.972,512.685,1156.759,503.179,1146.196,488.39z M369.577,464.674
		c0.678-7.235,4.398-14.394,9.381-19.425c2.411-2.579,6.168-5.416,10.857-6.06c2.314-0.334,4.737-0.095,6.86,0.605
		c2.149,0.681,4.001,1.761,5.601,2.992c3.151,2.522,5.366,5.542,7.107,8.652c1.751,3.115,2.982,6.388,3.817,9.716
		c3.418,13.193,1.17,27.685-6.546,38.268c-0.423,0.581-1.237,0.708-1.818,0.285c-0.488-0.356-0.651-0.997-0.442-1.534
		c4.441-11.391,4.363-23.789,0.6-34.531c-0.986-2.655-2.183-5.196-3.612-7.473c-1.433-2.266-3.182-4.24-5.021-5.519
		c-1.846-1.303-3.556-1.798-5.073-1.525c-1.581,0.256-3.207,1.302-5.042,3.234c-3.87,3.813-6.197,8.346-7.012,13.585
		c-0.863,5.252-0.156,11.05,1.038,16.848c2.569,11.645,7.291,23.222,11.751,34.927l0.006,0.015c0.255,0.671-0.081,1.422-0.752,1.678
		c-0.568,0.217-1.195,0.007-1.528-0.469c-7.252-10.36-13.65-21.427-17.66-33.981C370.085,478.704,368.88,471.883,369.577,464.674z
		 M292.365,460.961c0.955-2.134,2.454-4.052,4.182-5.472c1.725-1.451,3.629-2.438,5.525-3.131c3.816-1.312,7.553-1.568,11.113-1.375
		c3.568,0.187,6.992,0.898,10.251,1.974c12.975,4.172,24.015,13.825,28.827,26.005c0.264,0.669-0.064,1.425-0.732,1.689
		c-0.561,0.222-1.191,0.017-1.533-0.448c-7.247-9.847-17.763-16.414-28.851-18.983c-2.77-0.588-5.558-0.936-8.246-0.947
		c-2.68-0.002-5.284,0.419-7.348,1.289c-2.088,0.862-3.422,2.043-4.003,3.47c-0.629,1.472-0.615,3.406,0.034,5.99
		c1.151,5.309,3.735,9.7,7.725,13.193c3.976,3.539,9.252,6.043,14.789,8.138c11.212,4.06,23.519,6.265,35.794,8.76l0.016,0.003
		c0.704,0.143,1.158,0.829,1.015,1.533c-0.122,0.596-0.633,1.013-1.214,1.04c-12.633,0.584-25.405,0.067-38.157-3.262
		c-6.359-1.654-12.766-4.286-18.485-8.732c-5.749-4.444-9.807-11.417-11.391-18.318C290.786,469.96,290.4,465.268,292.365,460.961z
		 M343.033,591.234c-3.663,12.801-8.437,25.387-15.985,37.003c-3.76,5.793-8.497,11.309-14.797,15.526
		c-6.307,4.25-14.548,5.992-21.932,5.301c-3.69-0.237-8.439-1.387-12.039-4.717c-1.789-1.633-3.19-3.728-4.028-5.892
		c-0.87-2.17-1.224-4.372-1.293-6.473c-0.057-4.204,0.907-8.001,2.264-11.479c1.353-3.488,3.182-6.667,5.317-9.565
		c8.402-11.572,21.626-19.447,35.365-20.323c0.718-0.046,1.335,0.498,1.381,1.215c0.039,0.608-0.356,1.148-0.912,1.325
		c-12.287,3.92-22.415,12.262-28.704,22.545c-1.52,2.586-2.803,5.274-3.714,7.982c-0.9,2.703-1.352,5.476-1.166,7.877
		c0.41,4.914,2.754,6.902,8.399,7.357c5.738,0.603,11.064-0.548,15.916-3.425c4.892-2.847,9.154-7.329,13.074-12.203
		c7.76-9.926,13.992-21.541,20.467-33.037l0.008-0.014c0.352-0.625,1.144-0.846,1.769-0.494
		C342.956,590.046,343.195,590.67,343.033,591.234z M355.876,539.281c-9.185,8.693-19.194,16.644-31.024,22.452
		c-5.896,2.901-12.467,5.093-19.701,5.461c-7.256,0.39-14.884-2.24-20.59-6.431c-2.905-2.006-6.262-5.307-7.587-9.851
		c-0.67-2.24-0.788-4.672-0.407-6.875c0.358-2.225,1.156-4.216,2.139-5.979c2.032-3.487,4.695-6.121,7.517-8.299
		c2.824-2.189,5.881-3.886,9.051-5.201c12.549-5.315,27.214-5.217,38.814,0.863c0.637,0.334,0.882,1.12,0.549,1.757
		c-0.28,0.535-0.891,0.79-1.453,0.662c-11.919-2.723-24.172-0.828-34.245,4.469c-2.482,1.364-4.82,2.921-6.863,4.668
		c-2.032,1.749-3.728,3.769-4.723,5.776c-1.018,2.016-1.257,3.782-0.765,5.242c0.486,1.526,1.759,2.981,3.938,4.514
		c4.339,3.268,9.164,4.906,14.466,4.945c5.322,0.083,10.954-1.467,16.514-3.497c11.142-4.249,21.902-10.617,32.826-16.745
		l0.014-0.008c0.627-0.351,1.419-0.128,1.771,0.498C356.415,538.231,356.298,538.881,355.876,539.281z M421.284,540.678
		c-2.629,12.371-6.358,24.597-12.802,36.093c-3.208,5.734-7.374,11.268-13.121,15.677c-5.753,4.439-13.526,6.603-20.603,6.39
		c-3.53-0.003-8.168-0.816-11.838-3.805c-1.823-1.464-3.301-3.399-4.237-5.429c-0.968-2.035-1.441-4.127-1.632-6.136
		c-0.305-4.024,0.392-7.705,1.479-11.099c1.083-3.405,2.636-6.538,4.501-9.419c7.316-11.498,19.446-19.741,32.447-21.317
		c0.714-0.087,1.363,0.422,1.449,1.135c0.073,0.599-0.285,1.157-0.82,1.37c-11.359,4.523-20.372,13.036-25.66,23.115
		c-1.269,2.531-2.311,5.14-3.001,7.739c-0.68,2.593-0.931,5.219-0.61,7.436c0.306,2.238,1.111,3.827,2.345,4.75
		c1.265,0.981,3.14,1.457,5.805,1.481c5.428,0.228,10.329-1.161,14.717-4.138c4.429-2.952,8.186-7.424,11.612-12.252
		c6.762-9.822,12.007-21.172,17.524-32.417l0.007-0.014c0.316-0.645,1.095-0.911,1.74-0.595
		C421.131,539.508,421.406,540.109,421.284,540.678z M532.299,422.971l-0.044,0.026c-5.938,3.551-11.15,8.078-15.873,13.05
		c-4.716,4.973-8.965,10.352-12.715,16.021c-3.779,5.649-6.955,11.65-9.63,17.787c-2.614,6.169-4.563,12.553-5.795,19.002
		c-2.336,12.939-1.201,26.15,3.71,38.297c2.376,6.113,5.731,11.899,9.581,17.501c3.899,5.591,8.574,10.697,13.306,16.014
		l0.039,0.044c0.479,0.538,0.431,1.362-0.107,1.841c-0.427,0.38-1.035,0.427-1.507,0.162c-6.302-3.551-12.312-7.837-17.567-13.092
		c-5.25-5.245-9.788-11.359-13.297-18.141c-3.489-6.789-5.736-14.304-6.637-21.956c-0.893-7.665-0.355-15.419,1.15-22.861
		c1.459-7.468,4.059-14.61,7.368-21.308c3.249-6.737,7.394-12.953,12.01-18.713c4.655-5.733,9.897-10.968,15.703-15.482
		c5.769-4.518,12.208-8.365,19.255-10.545c0.685-0.212,1.411,0.171,1.623,0.856C533.052,422.058,532.801,422.672,532.299,422.971z
		 M598.765,419.423l-0.04,0.037c-5.706,5.226-10.17,11.562-14.163,18.091c-3.897,6.612-7.223,13.522-9.967,20.624
		c-5.505,14.189-8.756,29.125-9.26,43.996c-0.473,14.882,1.96,29.627,7.21,43.553c2.649,6.961,5.981,13.713,9.805,20.346
		c3.917,6.584,8.507,12.832,13.204,19.319l0.027,0.038c0.424,0.586,0.294,1.404-0.293,1.828c-0.449,0.325-1.037,0.322-1.477,0.04
		c-6.825-4.397-13.154-9.707-18.695-15.867c-5.511-6.178-10.281-13.139-14.048-20.68c-7.624-15.099-10.527-32.456-9.559-49.207
		c0.944-16.817,5.729-33.144,13.311-47.808c0.915-1.851,1.898-3.666,2.989-5.423c1.023-1.789,2.15-3.521,3.283-5.242
		c2.243-3.454,4.718-6.761,7.376-9.903c5.356-6.219,11.442-12.037,18.822-15.853c0.637-0.329,1.421-0.08,1.75,0.557
		C599.316,418.402,599.187,419.037,598.765,419.423z M685.024,593.964c-0.317,0.51-0.929,0.724-1.478,0.561
		c-16.498-4.931-31.799-15.58-42.352-30.069c-10.53-14.51-16.454-32.092-17.903-49.755c-0.732-8.843-0.576-17.758,0.776-26.506
		c0.294-2.192,0.663-4.371,1.147-6.532c0.413-2.172,0.901-4.327,1.505-6.458l0.883-3.195l1.069-3.144l1.083-3.133l1.253-3.076
		c3.329-8.191,7.898-15.929,13.654-22.691c5.846-6.655,13.154-12.272,21.45-15.173c0.676-0.236,1.416,0.12,1.652,0.796
		c0.204,0.582-0.032,1.212-0.533,1.526l-0.04,0.024c-6.991,4.387-12.623,10.309-17.07,17c-4.428,6.731-7.654,14.176-10.159,21.816
		c-4.817,15.372-6.436,31.719-4.903,47.661c1.613,15.915,6.284,31.505,14.657,45.084l3.293,4.994
		c1.164,1.62,2.439,3.158,3.655,4.754c2.561,3.07,5.209,6.129,8.21,8.85c5.857,5.616,12.555,10.422,19.707,14.859l0.026,0.016
		C685.214,592.552,685.402,593.354,685.024,593.964z M853.219,504.091c-1.246,7.545-10.07,11.339-3.271,19.631
		c5.044,6.145-14.562,8.913-17.414,9.431c-1.591,0.289-7.954,0.395-9.027,1.871c-1.253,1.727,2.144,4.911,3.001,6.274
		c2.245,3.569,3.626,7.355,3.856,11.596c0.134,2.464,0.193,6.756-1.539,8.803c-2.16,2.555-5.385,1.234-8.173,2.355
		c-5.378,2.163-4.68,8.574-8.753,11.665c-5.754,4.368-12.53-2.069-18.22,4.499c-1.266,1.461-2.116,4.13-3.996,4.685
		c-2.906,0.858-7.365-2.906-9.279-4.515c-3.953-3.323-5.769-9.706-9.745-12.551c-4.078-2.918-5.117,1.78-7.276,5.556
		c-2.656,4.644-6.969,9.55-12.582,10.621c-6.489,1.239-6.845-5.56-12.29-7.223c-5.399-1.649-10.336,2.422-13.816-3.164
		c-3.551-5.698-4.251-9.505-11.612-10.919c-4.141-0.795-5.853,0.261-6.401-4.806c-0.268-2.476,0.428-5.115,1.059-7.489
		c1.178-4.439,4.964-8.779,5.727-13.074c1.076-6.06-5.607-4.213-9.863-4.231c-4.807-0.019-10.058-1.01-13.5-4.831
		c-4.733-5.252,2.4-11.97-1.86-18.332c-1.488-2.223-4.347-3.181-4.607-6.166c-0.215-2.465,1.634-4.561,2.898-6.443
		c1.783-2.654,3.989-4.967,3.939-8.379c-0.035-2.367-1.938-3.986-2.345-6.102c-1.172-6.105,6.414-8.527,11.389-9.667
		c3.979-0.912,14.139,1.112,14.437-4.074c0.137-2.389-3.407-5.414-4.394-7.307c-1.484-2.845-2.259-5.956-2.332-9.163
		c-0.053-2.358-0.073-6.501,1.59-8.312c2.303-2.508,5.509-1.193,8.466-2.609c5.55-2.658,4.194-8.635,7.928-11.907
		c4.262-3.735,11.238,1.178,16.092-1.361c6.029-3.153,4.121-10.412,12.179-5.614c3.508,2.089,6.582,5.063,9.072,8.272
		c1.484,1.913,2.875,6.249,5.006,7.293c3.975,1.947,7.484-8.197,10.068-10.769c4.317-4.297,9.659-7.164,14.667-3.341
		c2.03,1.549,3.126,3.489,5.759,4.374c3.174,1.067,5.962-0.237,9.126-0.186c7.506,0.122,6.669,6.889,10.326,11.463
		c3.694,4.617,10.688,0.94,12.815,5.861c2.385,5.514-1.99,14.308-4.116,19.109c-2.652,5.994-2.797,7.075,3.642,7.182
		c5.211,0.086,11.042,0.638,15.577,3.497c6.3,3.973,3.155,6.705,2.304,12.518C846.759,494.748,854.168,498.338,853.219,504.091z
		 M910.065,499.705c-1.636,14.055-7.977,27.245-17.096,37.329c-0.482,0.532-1.303,0.573-1.835,0.092
		c-0.458-0.414-0.552-1.081-0.261-1.598l0.009-0.016c6.473-11.521,10.643-23.866,11.211-36.497
		c0.604-12.6-2.117-25.184-7.174-36.785c-5.082-11.607-12.527-22.252-21.668-31.175c-9.162-8.814-20.228-16.181-33.044-18.377
		l-0.044-0.007c-0.705-0.121-1.178-0.791-1.058-1.496c0.106-0.616,0.631-1.055,1.232-1.076c6.954-0.245,13.917,1.491,20.323,4.217
		c6.373,2.834,12.313,6.611,17.64,11.088c10.711,8.902,19.26,20.346,25.007,33.116C909.06,471.266,911.743,485.659,910.065,499.705z
		 M959.654,472.193c-0.55,11.414-4.368,22.262-9.894,31.689c-0.363,0.619-1.159,0.827-1.778,0.464
		c-0.521-0.305-0.75-0.915-0.596-1.469l0.009-0.03c2.868-10.296,4.899-20.591,4.439-30.739c-0.377-10.111-2.969-19.946-7.797-28.741
		c-2.32-4.44-5.167-8.632-8.392-12.549c-3.148-3.993-6.802-7.591-10.597-11.069c-3.859-3.398-7.936-6.638-12.303-9.448
		c-4.322-2.832-8.935-5.508-13.73-7.045l-0.116-0.037c-0.681-0.218-1.056-0.947-0.837-1.627c0.18-0.563,0.711-0.916,1.274-0.898
		c5.856,0.188,11.116,2.226,16.245,4.413c5.086,2.311,9.909,5.179,14.419,8.517c4.559,3.281,8.677,7.17,12.498,11.359
		c3.74,4.263,7.048,8.955,9.78,14.001c2.634,5.09,4.753,10.498,6.025,16.12C959.482,460.738,960.017,466.506,959.654,472.193z
		 M998.762,457.889c-0.1,1.067-0.165,2.133-0.298,3.195l-0.731,6.336c-0.888,4.148-2.015,8.226-3.315,12.188
		c-0.223,0.681-0.956,1.052-1.637,0.829c-0.518-0.17-0.856-0.634-0.892-1.146l-0.01-0.159c-0.277-4.15-0.087-8.161-0.194-12.144
		l-0.444-5.931c-0.086-0.982-0.103-1.961-0.155-2.938c-0.047-0.977-0.295-1.932-0.431-2.895c-0.343-1.919-0.627-3.831-0.871-5.744
		c-0.327-1.897-0.953-3.721-1.404-5.575l-0.677-2.78c-0.296-0.902-0.676-1.776-0.992-2.668c-0.695-1.76-1.187-3.61-2.029-5.3
		c-2.976-6.964-7.3-13.265-12.438-18.986c-5.159-5.689-11.346-10.738-18.087-14.976l-0.124-0.077
		c-0.607-0.381-0.788-1.181-0.407-1.787c0.298-0.474,0.854-0.688,1.371-0.577c8.452,1.825,16.148,6.013,22.767,11.649
		c6.579,5.643,12.171,12.761,15.668,20.858c0.985,1.969,1.526,4.116,2.3,6.167c0.346,1.04,0.714,2.076,1.013,3.127l0.644,3.211
		c0.349,2.152,0.864,4.281,1.058,6.435c0.141,2.159,0.243,4.319,0.286,6.471C998.737,455.747,998.852,456.822,998.762,457.889z"/>
</g>
</svg>
